<svg width="1440" height="1293" viewBox="0 0 1440 1293" fill="none" xmlns="http://www.w3.org/2000/svg">
<g clip-path="url(#clip0_2_70)">
<rect width="1440" height="1293" fill="white"/>
<rect width="1440" height="115" fill="#D9D9D9"/>
<path d="M34.8182 69V45.7273H42.6818C44.5076 45.7273 46 46.0568 47.1591 46.7159C48.3258 47.3674 49.1894 48.25 49.75 49.3636C50.3106 50.4773 50.5909 51.7197 50.5909 53.0909C50.5909 54.4621 50.3106 55.7083 49.75 56.8295C49.197 57.9508 48.3409 58.8447 47.1818 59.5114C46.0227 60.1705 44.5379 60.5 42.7273 60.5H37.0909V58H42.6364C43.8864 58 44.8902 57.7841 45.6477 57.3523C46.4053 56.9205 46.9545 56.3371 47.2955 55.6023C47.6439 54.8598 47.8182 54.0227 47.8182 53.0909C47.8182 52.1591 47.6439 51.3258 47.2955 50.5909C46.9545 49.8561 46.4015 49.2803 45.6364 48.8636C44.8712 48.4394 43.8561 48.2273 42.5909 48.2273H37.6364V69H34.8182ZM54.767 69V51.5455H57.358V54.1818H57.5398C57.858 53.3182 58.4337 52.6174 59.267 52.0795C60.1004 51.5417 61.0398 51.2727 62.0852 51.2727C62.2822 51.2727 62.5284 51.2765 62.8239 51.2841C63.1193 51.2917 63.3428 51.303 63.4943 51.3182V54.0455C63.4034 54.0227 63.1951 53.9886 62.8693 53.9432C62.5511 53.8902 62.214 53.8636 61.858 53.8636C61.0095 53.8636 60.2519 54.0417 59.5852 54.3977C58.9261 54.7462 58.4034 55.2311 58.017 55.8523C57.6383 56.4659 57.4489 57.1667 57.4489 57.9545V69H54.767ZM73.233 69.3636C71.6572 69.3636 70.2746 68.9886 69.0852 68.2386C67.9034 67.4886 66.9792 66.4394 66.3125 65.0909C65.6534 63.7424 65.3239 62.1667 65.3239 60.3636C65.3239 58.5455 65.6534 56.9583 66.3125 55.6023C66.9792 54.2462 67.9034 53.1932 69.0852 52.4432C70.2746 51.6932 71.6572 51.3182 73.233 51.3182C74.8087 51.3182 76.1875 51.6932 77.3693 52.4432C78.5587 53.1932 79.483 54.2462 80.142 55.6023C80.8087 56.9583 81.142 58.5455 81.142 60.3636C81.142 62.1667 80.8087 63.7424 80.142 65.0909C79.483 66.4394 78.5587 67.4886 77.3693 68.2386C76.1875 68.9886 74.8087 69.3636 73.233 69.3636ZM73.233 66.9545C74.4299 66.9545 75.4148 66.6477 76.1875 66.0341C76.9602 65.4205 77.5322 64.6136 77.9034 63.6136C78.2746 62.6136 78.4602 61.5303 78.4602 60.3636C78.4602 59.197 78.2746 58.1098 77.9034 57.1023C77.5322 56.0947 76.9602 55.2803 76.1875 54.6591C75.4148 54.0379 74.4299 53.7273 73.233 53.7273C72.036 53.7273 71.0511 54.0379 70.2784 54.6591C69.5057 55.2803 68.9337 56.0947 68.5625 57.1023C68.1913 58.1098 68.0057 59.197 68.0057 60.3636C68.0057 61.5303 68.1913 62.6136 68.5625 63.6136C68.9337 64.6136 69.5057 65.4205 70.2784 66.0341C71.0511 66.6477 72.036 66.9545 73.233 66.9545ZM85.2358 51.5455H87.9176V70.2727C87.9176 71.3485 87.732 72.2803 87.3608 73.0682C86.9972 73.8561 86.4441 74.4659 85.7017 74.8977C84.9669 75.3295 84.0388 75.5455 82.9176 75.5455C82.8267 75.5455 82.7358 75.5455 82.6449 75.5455C82.554 75.5455 82.4631 75.5455 82.3722 75.5455V73.0455C82.4631 73.0455 82.5464 73.0455 82.6222 73.0455C82.6979 73.0455 82.7812 73.0455 82.8722 73.0455C83.6903 73.0455 84.2888 72.803 84.6676 72.3182C85.0464 71.8409 85.2358 71.1591 85.2358 70.2727V51.5455ZM86.554 48.6364C86.0313 48.6364 85.5805 48.4583 85.2017 48.1023C84.8305 47.7462 84.6449 47.3182 84.6449 46.8182C84.6449 46.3182 84.8305 45.8902 85.2017 45.5341C85.5805 45.178 86.0313 45 86.554 45C87.0767 45 87.5237 45.178 87.8949 45.5341C88.2737 45.8902 88.4631 46.3182 88.4631 46.8182C88.4631 47.3182 88.2737 47.7462 87.8949 48.1023C87.5237 48.4583 87.0767 48.6364 86.554 48.6364ZM100.148 69.3636C98.4659 69.3636 97.0152 68.9924 95.7955 68.25C94.5833 67.5 93.6477 66.4545 92.9886 65.1136C92.3371 63.7652 92.0114 62.197 92.0114 60.4091C92.0114 58.6212 92.3371 57.0455 92.9886 55.6818C93.6477 54.3106 94.5644 53.2424 95.7386 52.4773C96.9205 51.7045 98.2992 51.3182 99.875 51.3182C100.784 51.3182 101.682 51.4697 102.568 51.7727C103.455 52.0758 104.261 52.5682 104.989 53.25C105.716 53.9242 106.295 54.8182 106.727 55.9318C107.159 57.0455 107.375 58.4167 107.375 60.0455V61.1818H93.9205V58.8636H104.648C104.648 57.8788 104.451 57 104.057 56.2273C103.67 55.4545 103.117 54.8447 102.398 54.3977C101.686 53.9508 100.845 53.7273 99.875 53.7273C98.8068 53.7273 97.8826 53.9924 97.1023 54.5227C96.3295 55.0455 95.7348 55.7273 95.3182 56.5682C94.9015 57.4091 94.6932 58.3106 94.6932 59.2727V60.8182C94.6932 62.1364 94.9205 63.2538 95.375 64.1705C95.8371 65.0795 96.4773 65.7727 97.2955 66.25C98.1136 66.7197 99.0644 66.9545 100.148 66.9545C100.852 66.9545 101.489 66.8561 102.057 66.6591C102.633 66.4545 103.129 66.1515 103.545 65.75C103.962 65.3409 104.284 64.8333 104.511 64.2273L107.102 64.9545C106.83 65.8333 106.371 66.6061 105.727 67.2727C105.083 67.9318 104.288 68.447 103.341 68.8182C102.394 69.1818 101.33 69.3636 100.148 69.3636ZM118.545 69.3636C116.909 69.3636 115.5 68.9773 114.318 68.2045C113.136 67.4318 112.227 66.3674 111.591 65.0114C110.955 63.6553 110.636 62.1061 110.636 60.3636C110.636 58.5909 110.962 57.0265 111.614 55.6705C112.273 54.3068 113.189 53.2424 114.364 52.4773C115.545 51.7045 116.924 51.3182 118.5 51.3182C119.727 51.3182 120.833 51.5455 121.818 52C122.803 52.4545 123.61 53.0909 124.239 53.9091C124.867 54.7273 125.258 55.6818 125.409 56.7727H122.727C122.523 55.9773 122.068 55.2727 121.364 54.6591C120.667 54.0379 119.727 53.7273 118.545 53.7273C117.5 53.7273 116.583 54 115.795 54.5455C115.015 55.0833 114.405 55.8447 113.966 56.8295C113.534 57.8068 113.318 58.9545 113.318 60.2727C113.318 61.6212 113.53 62.7955 113.955 63.7955C114.386 64.7955 114.992 65.572 115.773 66.125C116.561 66.678 117.485 66.9545 118.545 66.9545C119.242 66.9545 119.875 66.8333 120.443 66.5909C121.011 66.3485 121.492 66 121.886 65.5455C122.28 65.0909 122.561 64.5455 122.727 63.9091H125.409C125.258 64.9394 124.883 65.8674 124.284 66.6932C123.693 67.5114 122.909 68.1629 121.932 68.6477C120.962 69.125 119.833 69.3636 118.545 69.3636ZM136.92 51.5455V53.8182H127.875V51.5455H136.92ZM130.511 47.3636H133.193V64C133.193 64.7576 133.303 65.3258 133.523 65.7045C133.75 66.0758 134.038 66.3258 134.386 66.4545C134.742 66.5758 135.117 66.6364 135.511 66.6364C135.807 66.6364 136.049 66.6212 136.239 66.5909C136.428 66.553 136.58 66.5227 136.693 66.5L137.239 68.9091C137.057 68.9773 136.803 69.0455 136.477 69.1136C136.152 69.1894 135.739 69.2273 135.239 69.2273C134.481 69.2273 133.739 69.0644 133.011 68.7386C132.292 68.4129 131.693 67.9167 131.216 67.25C130.746 66.5833 130.511 65.7424 130.511 64.7273V47.3636ZM168.773 45.7273V69H166.045L153.364 50.7273H153.136V69H150.318V45.7273H153.045L165.773 64.0455H166V45.7273H168.773ZM179.185 69.4091C178.079 69.4091 177.075 69.2008 176.173 68.7841C175.272 68.3598 174.556 67.75 174.026 66.9545C173.495 66.1515 173.23 65.1818 173.23 64.0455C173.23 63.0455 173.427 62.2348 173.821 61.6136C174.215 60.9848 174.741 60.4924 175.401 60.1364C176.06 59.7803 176.787 59.5152 177.582 59.3409C178.385 59.1591 179.192 59.0152 180.003 58.9091C181.063 58.7727 181.923 58.6705 182.582 58.6023C183.249 58.5265 183.734 58.4015 184.037 58.2273C184.348 58.053 184.503 57.75 184.503 57.3182V57.2273C184.503 56.1061 184.196 55.2348 183.582 54.6136C182.976 53.9924 182.056 53.6818 180.821 53.6818C179.541 53.6818 178.537 53.9621 177.81 54.5227C177.082 55.0833 176.571 55.6818 176.276 56.3182L173.73 55.4091C174.185 54.3485 174.791 53.5227 175.548 52.9318C176.313 52.3333 177.147 51.9167 178.048 51.6818C178.957 51.4394 179.851 51.3182 180.73 51.3182C181.291 51.3182 181.935 51.3864 182.662 51.5227C183.397 51.6515 184.105 51.9205 184.787 52.3295C185.476 52.7386 186.048 53.3561 186.503 54.1818C186.957 55.0076 187.185 56.1136 187.185 57.5V69H184.503V66.6364H184.366C184.185 67.0152 183.882 67.4205 183.457 67.8523C183.033 68.2841 182.469 68.6515 181.764 68.9545C181.06 69.2576 180.2 69.4091 179.185 69.4091ZM179.594 67C180.654 67 181.548 66.7917 182.276 66.375C183.01 65.9583 183.563 65.4205 183.935 64.7614C184.313 64.1023 184.503 63.4091 184.503 62.6818V60.2273C184.389 60.3636 184.139 60.4886 183.753 60.6023C183.374 60.7083 182.935 60.803 182.435 60.8864C181.942 60.9621 181.461 61.0303 180.991 61.0909C180.529 61.1439 180.154 61.1894 179.866 61.2273C179.17 61.3182 178.518 61.4659 177.912 61.6705C177.313 61.8674 176.829 62.1667 176.457 62.5682C176.094 62.9621 175.912 63.5 175.912 64.1818C175.912 65.1136 176.257 65.8182 176.946 66.2955C177.643 66.7652 178.526 67 179.594 67ZM192.08 69V51.5455H194.67V54.2727H194.898C195.261 53.3409 195.848 52.6174 196.659 52.1023C197.47 51.5795 198.443 51.3182 199.58 51.3182C200.731 51.3182 201.689 51.5795 202.455 52.1023C203.227 52.6174 203.83 53.3409 204.261 54.2727H204.443C204.89 53.3712 205.561 52.6553 206.455 52.125C207.348 51.5871 208.42 51.3182 209.67 51.3182C211.231 51.3182 212.508 51.8068 213.5 52.7841C214.492 53.7538 214.989 55.2652 214.989 57.3182V69H212.307V57.3182C212.307 56.0303 211.955 55.1098 211.25 54.5568C210.545 54.0038 209.716 53.7273 208.761 53.7273C207.534 53.7273 206.583 54.0985 205.909 54.8409C205.235 55.5758 204.898 56.5076 204.898 57.6364V69H202.17V57.0455C202.17 56.053 201.848 55.2538 201.205 54.6477C200.561 54.0341 199.731 53.7273 198.716 53.7273C198.019 53.7273 197.367 53.9129 196.761 54.2841C196.163 54.6553 195.678 55.1705 195.307 55.8295C194.943 56.4811 194.761 57.2348 194.761 58.0909V69H192.08ZM227.21 69.3636C225.528 69.3636 224.078 68.9924 222.858 68.25C221.646 67.5 220.71 66.4545 220.051 65.1136C219.4 63.7652 219.074 62.197 219.074 60.4091C219.074 58.6212 219.4 57.0455 220.051 55.6818C220.71 54.3106 221.627 53.2424 222.801 52.4773C223.983 51.7045 225.362 51.3182 226.938 51.3182C227.847 51.3182 228.744 51.4697 229.631 51.7727C230.517 52.0758 231.324 52.5682 232.051 53.25C232.778 53.9242 233.358 54.8182 233.79 55.9318C234.222 57.0455 234.438 58.4167 234.438 60.0455V61.1818H220.983V58.8636H231.71C231.71 57.8788 231.513 57 231.119 56.2273C230.733 55.4545 230.18 54.8447 229.46 54.3977C228.748 53.9508 227.907 53.7273 226.938 53.7273C225.869 53.7273 224.945 53.9924 224.165 54.5227C223.392 55.0455 222.797 55.7273 222.381 56.5682C221.964 57.4091 221.756 58.3106 221.756 59.2727V60.8182C221.756 62.1364 221.983 63.2538 222.438 64.1705C222.9 65.0795 223.54 65.7727 224.358 66.25C225.176 66.7197 226.127 66.9545 227.21 66.9545C227.915 66.9545 228.551 66.8561 229.119 66.6591C229.695 66.4545 230.191 66.1515 230.608 65.75C231.025 65.3409 231.347 64.8333 231.574 64.2273L234.165 64.9545C233.892 65.8333 233.434 66.6061 232.79 67.2727C232.146 67.9318 231.35 68.447 230.403 68.8182C229.456 69.1818 228.392 69.3636 227.21 69.3636Z" fill="black"/>
<path d="M256.466 54.6364H259.409L266.33 71.5398H266.568L273.489 54.6364H276.432V75H274.125V59.5284H273.926L267.562 75H265.335L258.972 59.5284H258.773V75H256.466V54.6364ZM282.569 80.7273C282.172 80.7273 281.817 80.6941 281.505 80.6278C281.194 80.5682 280.978 80.5085 280.859 80.4489L281.456 78.3807C282.026 78.5265 282.529 78.5795 282.967 78.5398C283.404 78.5 283.792 78.3045 284.13 77.9531C284.475 77.6084 284.79 77.0483 285.075 76.2727L285.512 75.0795L279.865 59.7273H282.41L286.626 71.8977H286.785L291.001 59.7273H293.547L287.064 77.2273C286.772 78.0161 286.411 78.669 285.98 79.1861C285.549 79.7098 285.048 80.0975 284.478 80.3494C283.915 80.6013 283.279 80.7273 282.569 80.7273ZM304.519 75V59.7273H306.786V62.0341H306.945C307.223 61.2784 307.727 60.6652 308.456 60.1946C309.185 59.724 310.007 59.4886 310.922 59.4886C311.095 59.4886 311.31 59.4919 311.569 59.4986C311.827 59.5052 312.023 59.5152 312.155 59.5284V61.9148C312.076 61.8949 311.893 61.8651 311.608 61.8253C311.33 61.7789 311.035 61.7557 310.723 61.7557C309.981 61.7557 309.318 61.9115 308.735 62.223C308.158 62.5279 307.701 62.9522 307.363 63.4957C307.031 64.0327 306.865 64.6458 306.865 65.3352V75H304.519ZM320.875 75.3182C319.404 75.3182 318.134 74.9934 317.067 74.3438C316.007 73.6875 315.188 72.7727 314.611 71.5994C314.041 70.4195 313.756 69.0473 313.756 67.483C313.756 65.9186 314.041 64.5398 314.611 63.3466C315.188 62.1468 315.99 61.2121 317.017 60.5426C318.051 59.8665 319.258 59.5284 320.637 59.5284C321.432 59.5284 322.218 59.661 322.993 59.9261C323.769 60.1913 324.475 60.6222 325.111 61.2188C325.748 61.8087 326.255 62.5909 326.632 63.5653C327.01 64.5398 327.199 65.7396 327.199 67.1648V68.1591H315.426V66.1307H324.813C324.813 65.2689 324.641 64.5 324.296 63.8239C323.958 63.1477 323.474 62.6141 322.844 62.223C322.221 61.8319 321.485 61.6364 320.637 61.6364C319.702 61.6364 318.893 61.8684 318.211 62.3324C317.534 62.7898 317.014 63.3864 316.65 64.1222C316.285 64.858 316.103 65.6468 316.103 66.4886V67.8409C316.103 68.9943 316.301 69.9721 316.699 70.7741C317.104 71.5696 317.664 72.1761 318.38 72.5938C319.096 73.0047 319.927 73.2102 320.875 73.2102C321.492 73.2102 322.049 73.1241 322.546 72.9517C323.05 72.7727 323.484 72.5076 323.848 72.1562C324.213 71.7983 324.495 71.3542 324.694 70.8239L326.961 71.4602C326.722 72.2292 326.321 72.9053 325.757 73.4886C325.194 74.0653 324.498 74.5161 323.669 74.8409C322.841 75.1591 321.909 75.3182 320.875 75.3182ZM336.973 75.3182C335.542 75.3182 334.309 74.9801 333.275 74.304C332.24 73.6278 331.445 72.6965 330.888 71.5099C330.331 70.3234 330.053 68.9678 330.053 67.4432C330.053 65.892 330.338 64.5232 330.908 63.3366C331.485 62.1435 332.287 61.2121 333.314 60.5426C334.348 59.8665 335.555 59.5284 336.934 59.5284C338.007 59.5284 338.975 59.7273 339.837 60.125C340.699 60.5227 341.405 61.0795 341.955 61.7955C342.505 62.5114 342.846 63.3466 342.979 64.3011H340.632C340.453 63.6051 340.056 62.9886 339.439 62.4517C338.829 61.9081 338.007 61.6364 336.973 61.6364C336.059 61.6364 335.257 61.875 334.567 62.3523C333.884 62.8229 333.351 63.4891 332.966 64.3509C332.588 65.206 332.4 66.2102 332.4 67.3636C332.4 68.5436 332.585 69.571 332.956 70.446C333.334 71.321 333.864 72.0005 334.547 72.4844C335.237 72.9683 336.045 73.2102 336.973 73.2102C337.583 73.2102 338.137 73.1042 338.634 72.892C339.131 72.6799 339.552 72.375 339.897 71.9773C340.241 71.5795 340.487 71.1023 340.632 70.5455H342.979C342.846 71.447 342.518 72.259 341.995 72.9815C341.478 73.6974 340.792 74.2675 339.936 74.6918C339.088 75.1094 338.1 75.3182 336.973 75.3182ZM346.409 75V59.7273H348.756V75H346.409ZM347.603 57.1818C347.145 57.1818 346.751 57.026 346.419 56.7145C346.095 56.4029 345.932 56.0284 345.932 55.5909C345.932 55.1534 346.095 54.7789 346.419 54.4673C346.751 54.1558 347.145 54 347.603 54C348.06 54 348.451 54.1558 348.776 54.4673C349.107 54.7789 349.273 55.1534 349.273 55.5909C349.273 56.0284 349.107 56.4029 348.776 56.7145C348.451 57.026 348.06 57.1818 347.603 57.1818ZM353.054 80.7273V59.7273H355.321V62.1534H355.599C355.772 61.8883 356.01 61.5502 356.315 61.1392C356.627 60.7216 357.071 60.3504 357.648 60.0256C358.231 59.6941 359.02 59.5284 360.014 59.5284C361.3 59.5284 362.434 59.8499 363.415 60.4929C364.396 61.1359 365.161 62.0473 365.712 63.2273C366.262 64.4072 366.537 65.7992 366.537 67.4034C366.537 69.0208 366.262 70.4228 365.712 71.6094C365.161 72.7893 364.399 73.7041 363.425 74.3537C362.45 74.9967 361.327 75.3182 360.054 75.3182C359.073 75.3182 358.287 75.1558 357.697 74.831C357.107 74.4995 356.653 74.125 356.335 73.7074C356.017 73.2831 355.772 72.9318 355.599 72.6534H355.401V80.7273H353.054ZM355.361 67.3636C355.361 68.517 355.53 69.5346 355.868 70.4162C356.206 71.2912 356.7 71.9773 357.349 72.4744C357.999 72.965 358.795 73.2102 359.736 73.2102C360.717 73.2102 361.536 72.9517 362.192 72.4347C362.855 71.911 363.352 71.2083 363.683 70.3267C364.021 69.4384 364.19 68.4508 364.19 67.3636C364.19 66.2898 364.025 65.322 363.693 64.4602C363.368 63.5919 362.875 62.9058 362.212 62.402C361.555 61.8916 360.73 61.6364 359.736 61.6364C358.781 61.6364 357.979 61.8783 357.33 62.3622C356.68 62.8395 356.189 63.509 355.858 64.3707C355.527 65.2259 355.361 66.2235 355.361 67.3636ZM376.52 75.3182C375.048 75.3182 373.779 74.9934 372.712 74.3438C371.651 73.6875 370.832 72.7727 370.256 71.5994C369.686 70.4195 369.401 69.0473 369.401 67.483C369.401 65.9186 369.686 64.5398 370.256 63.3466C370.832 62.1468 371.634 61.2121 372.662 60.5426C373.696 59.8665 374.902 59.5284 376.281 59.5284C377.077 59.5284 377.862 59.661 378.638 59.9261C379.413 60.1913 380.119 60.6222 380.756 61.2188C381.392 61.8087 381.899 62.5909 382.277 63.5653C382.655 64.5398 382.844 65.7396 382.844 67.1648V68.1591H371.071V66.1307H380.457C380.457 65.2689 380.285 64.5 379.94 63.8239C379.602 63.1477 379.118 62.6141 378.489 62.223C377.866 61.8319 377.13 61.6364 376.281 61.6364C375.347 61.6364 374.538 61.8684 373.855 62.3324C373.179 62.7898 372.659 63.3864 372.294 64.1222C371.929 64.858 371.747 65.6468 371.747 66.4886V67.8409C371.747 68.9943 371.946 69.9721 372.344 70.7741C372.748 71.5696 373.308 72.1761 374.024 72.5938C374.74 73.0047 375.572 73.2102 376.52 73.2102C377.136 73.2102 377.693 73.1241 378.19 72.9517C378.694 72.7727 379.128 72.5076 379.493 72.1562C379.857 71.7983 380.139 71.3542 380.338 70.8239L382.605 71.4602C382.366 72.2292 381.965 72.9053 381.402 73.4886C380.839 74.0653 380.143 74.5161 379.314 74.8409C378.485 75.1591 377.554 75.3182 376.52 75.3182ZM397.232 63.1477L395.124 63.7443C394.991 63.393 394.795 63.0516 394.537 62.7202C394.285 62.3821 393.94 62.1037 393.503 61.8849C393.065 61.6662 392.505 61.5568 391.822 61.5568C390.888 61.5568 390.109 61.7723 389.486 62.2031C388.869 62.6274 388.561 63.1676 388.561 63.8239C388.561 64.4072 388.773 64.8679 389.197 65.206C389.622 65.544 390.285 65.8258 391.186 66.0511L393.453 66.608C394.819 66.9394 395.836 67.4465 396.506 68.1293C397.175 68.8054 397.51 69.6771 397.51 70.7443C397.51 71.6193 397.258 72.4015 396.754 73.0909C396.257 73.7803 395.561 74.3239 394.666 74.7216C393.771 75.1193 392.731 75.3182 391.544 75.3182C389.986 75.3182 388.697 74.9801 387.676 74.304C386.655 73.6278 386.009 72.6402 385.737 71.3409L387.964 70.7841C388.177 71.6061 388.578 72.2225 389.168 72.6335C389.764 73.0445 390.543 73.25 391.504 73.25C392.598 73.25 393.466 73.018 394.109 72.554C394.759 72.0833 395.084 71.5199 395.084 70.8636C395.084 70.3333 394.898 69.8892 394.527 69.5312C394.156 69.1667 393.586 68.8949 392.817 68.7159L390.271 68.1193C388.873 67.7879 387.845 67.2741 387.189 66.5781C386.539 65.8755 386.214 64.9972 386.214 63.9432C386.214 63.0814 386.456 62.3191 386.94 61.6562C387.431 60.9934 388.097 60.473 388.939 60.0952C389.787 59.7173 390.749 59.5284 391.822 59.5284C393.334 59.5284 394.52 59.8598 395.382 60.5227C396.25 61.1856 396.867 62.0606 397.232 63.1477Z" fill="black"/>
<path d="M452.966 63.1477L450.858 63.7443C450.725 63.393 450.53 63.0516 450.271 62.7202C450.019 62.3821 449.675 62.1037 449.237 61.8849C448.8 61.6662 448.24 61.5568 447.557 61.5568C446.622 61.5568 445.843 61.7723 445.22 62.2031C444.604 62.6274 444.295 63.1676 444.295 63.8239C444.295 64.4072 444.508 64.8679 444.932 65.206C445.356 65.544 446.019 65.8258 446.92 66.0511L449.188 66.608C450.553 66.9394 451.571 67.4465 452.24 68.1293C452.91 68.8054 453.244 69.6771 453.244 70.7443C453.244 71.6193 452.992 72.4015 452.489 73.0909C451.991 73.7803 451.295 74.3239 450.401 74.7216C449.506 75.1193 448.465 75.3182 447.278 75.3182C445.721 75.3182 444.431 74.9801 443.411 74.304C442.39 73.6278 441.743 72.6402 441.472 71.3409L443.699 70.7841C443.911 71.6061 444.312 72.2225 444.902 72.6335C445.499 73.0445 446.277 73.25 447.239 73.25C448.332 73.25 449.201 73.018 449.844 72.554C450.493 72.0833 450.818 71.5199 450.818 70.8636C450.818 70.3333 450.633 69.8892 450.261 69.5312C449.89 69.1667 449.32 68.8949 448.551 68.7159L446.006 68.1193C444.607 67.7879 443.58 67.2741 442.923 66.5781C442.274 65.8755 441.949 64.9972 441.949 63.9432C441.949 63.0814 442.191 62.3191 442.675 61.6562C443.165 60.9934 443.831 60.473 444.673 60.0952C445.522 59.7173 446.483 59.5284 447.557 59.5284C449.068 59.5284 450.255 59.8598 451.116 60.5227C451.985 61.1856 452.601 62.0606 452.966 63.1477ZM459.123 65.8125V75H456.777V54.6364H459.123V62.1136H459.322C459.68 61.3248 460.217 60.6984 460.933 60.2344C461.655 59.7637 462.617 59.5284 463.816 59.5284C464.857 59.5284 465.769 59.7372 466.551 60.1548C467.333 60.5658 467.94 61.1989 468.37 62.054C468.808 62.9025 469.027 63.983 469.027 65.2955V75H466.68V65.4545C466.68 64.2415 466.365 63.3035 465.735 62.6406C465.112 61.9711 464.247 61.6364 463.14 61.6364C462.371 61.6364 461.682 61.7988 461.072 62.1236C460.469 62.4484 459.992 62.9223 459.64 63.5455C459.296 64.1686 459.123 64.9242 459.123 65.8125ZM479.524 75.3182C478.145 75.3182 476.936 74.9901 475.895 74.3338C474.861 73.6776 474.052 72.7595 473.469 71.5795C472.892 70.3996 472.604 69.0208 472.604 67.4432C472.604 65.8523 472.892 64.4635 473.469 63.277C474.052 62.0904 474.861 61.169 475.895 60.5128C476.936 59.8565 478.145 59.5284 479.524 59.5284C480.903 59.5284 482.109 59.8565 483.143 60.5128C484.184 61.169 484.993 62.0904 485.57 63.277C486.153 64.4635 486.445 65.8523 486.445 67.4432C486.445 69.0208 486.153 70.3996 485.57 71.5795C484.993 72.7595 484.184 73.6776 483.143 74.3338C482.109 74.9901 480.903 75.3182 479.524 75.3182ZM479.524 73.2102C480.571 73.2102 481.433 72.9418 482.109 72.4048C482.786 71.8679 483.286 71.1619 483.611 70.2869C483.936 69.4119 484.098 68.464 484.098 67.4432C484.098 66.4223 483.936 65.4711 483.611 64.5895C483.286 63.7079 482.786 62.9953 482.109 62.4517C481.433 61.9081 480.571 61.6364 479.524 61.6364C478.477 61.6364 477.615 61.9081 476.939 62.4517C476.263 62.9953 475.762 63.7079 475.438 64.5895C475.113 65.4711 474.95 66.4223 474.95 67.4432C474.95 68.464 475.113 69.4119 475.438 70.2869C475.762 71.1619 476.263 71.8679 476.939 72.4048C477.615 72.9418 478.477 73.2102 479.524 73.2102ZM490.027 80.7273V59.7273H492.294V62.1534H492.572C492.744 61.8883 492.983 61.5502 493.288 61.1392C493.6 60.7216 494.044 60.3504 494.62 60.0256C495.204 59.6941 495.993 59.5284 496.987 59.5284C498.273 59.5284 499.406 59.8499 500.387 60.4929C501.368 61.1359 502.134 62.0473 502.684 63.2273C503.234 64.4072 503.51 65.7992 503.51 67.4034C503.51 69.0208 503.234 70.4228 502.684 71.6094C502.134 72.7893 501.372 73.7041 500.397 74.3537C499.423 74.9967 498.299 75.3182 497.027 75.3182C496.046 75.3182 495.26 75.1558 494.67 74.831C494.08 74.4995 493.626 74.125 493.308 73.7074C492.99 73.2831 492.744 72.9318 492.572 72.6534H492.373V80.7273H490.027ZM492.333 67.3636C492.333 68.517 492.502 69.5346 492.841 70.4162C493.179 71.2912 493.672 71.9773 494.322 72.4744C494.972 72.965 495.767 73.2102 496.708 73.2102C497.69 73.2102 498.508 72.9517 499.164 72.4347C499.827 71.911 500.324 71.2083 500.656 70.3267C500.994 69.4384 501.163 68.4508 501.163 67.3636C501.163 66.2898 500.997 65.322 500.666 64.4602C500.341 63.5919 499.847 62.9058 499.184 62.402C498.528 61.8916 497.703 61.6364 496.708 61.6364C495.754 61.6364 494.952 61.8783 494.302 62.3622C493.653 62.8395 493.162 63.509 492.831 64.3707C492.499 65.2259 492.333 66.2235 492.333 67.3636ZM507.089 80.7273V59.7273H509.356V62.1534H509.635C509.807 61.8883 510.046 61.5502 510.35 61.1392C510.662 60.7216 511.106 60.3504 511.683 60.0256C512.266 59.6941 513.055 59.5284 514.049 59.5284C515.335 59.5284 516.469 59.8499 517.45 60.4929C518.431 61.1359 519.197 62.0473 519.747 63.2273C520.297 64.4072 520.572 65.7992 520.572 67.4034C520.572 69.0208 520.297 70.4228 519.747 71.6094C519.197 72.7893 518.434 73.7041 517.46 74.3537C516.485 74.9967 515.362 75.3182 514.089 75.3182C513.108 75.3182 512.323 75.1558 511.733 74.831C511.143 74.4995 510.689 74.125 510.37 73.7074C510.052 73.2831 509.807 72.9318 509.635 72.6534H509.436V80.7273H507.089ZM509.396 67.3636C509.396 68.517 509.565 69.5346 509.903 70.4162C510.241 71.2912 510.735 71.9773 511.385 72.4744C512.034 72.965 512.83 73.2102 513.771 73.2102C514.752 73.2102 515.571 72.9517 516.227 72.4347C516.89 71.911 517.387 71.2083 517.718 70.3267C518.056 69.4384 518.225 68.4508 518.225 67.3636C518.225 66.2898 518.06 65.322 517.728 64.4602C517.404 63.5919 516.91 62.9058 516.247 62.402C515.591 61.8916 514.765 61.6364 513.771 61.6364C512.816 61.6364 512.014 61.8783 511.365 62.3622C510.715 62.8395 510.225 63.509 509.893 64.3707C509.562 65.2259 509.396 66.2235 509.396 67.3636ZM524.152 75V59.7273H526.498V75H524.152ZM525.345 57.1818C524.887 57.1818 524.493 57.026 524.162 56.7145C523.837 56.4029 523.674 56.0284 523.674 55.5909C523.674 55.1534 523.837 54.7789 524.162 54.4673C524.493 54.1558 524.887 54 525.345 54C525.802 54 526.193 54.1558 526.518 54.4673C526.85 54.7789 527.015 55.1534 527.015 55.5909C527.015 56.0284 526.85 56.4029 526.518 56.7145C526.193 57.026 525.802 57.1818 525.345 57.1818ZM533.143 65.8125V75H530.796V59.7273H533.063V62.1136H533.262C533.62 61.3381 534.164 60.715 534.893 60.2443C535.622 59.767 536.563 59.5284 537.717 59.5284C538.751 59.5284 539.656 59.7405 540.431 60.1648C541.207 60.5824 541.81 61.2188 542.241 62.0739C542.672 62.9223 542.887 63.9962 542.887 65.2955V75H540.54V65.4545C540.54 64.2547 540.229 63.3201 539.606 62.6506C538.983 61.9744 538.128 61.6364 537.04 61.6364C536.291 61.6364 535.622 61.7988 535.032 62.1236C534.449 62.4484 533.988 62.9223 533.65 63.5455C533.312 64.1686 533.143 64.9242 533.143 65.8125ZM553.34 81.0455C552.206 81.0455 551.232 80.8996 550.417 80.608C549.601 80.3229 548.922 79.9451 548.378 79.4744C547.841 79.0104 547.414 78.5133 547.096 77.983L548.965 76.6705C549.177 76.9489 549.445 77.267 549.77 77.625C550.095 77.9896 550.539 78.3045 551.103 78.5696C551.673 78.8414 552.418 78.9773 553.34 78.9773C554.573 78.9773 555.59 78.679 556.392 78.0824C557.194 77.4858 557.596 76.5511 557.596 75.2784V72.1761H557.397C557.224 72.4545 556.979 72.7992 556.661 73.2102C556.349 73.6146 555.899 73.9759 555.309 74.294C554.725 74.6056 553.936 74.7614 552.942 74.7614C551.709 74.7614 550.602 74.4697 549.621 73.8864C548.647 73.303 547.874 72.4545 547.304 71.3409C546.741 70.2273 546.459 68.875 546.459 67.2841C546.459 65.7197 546.734 64.3575 547.284 63.1974C547.835 62.0308 548.6 61.1293 549.581 60.4929C550.562 59.8499 551.696 59.5284 552.982 59.5284C553.976 59.5284 554.765 59.6941 555.348 60.0256C555.938 60.3504 556.389 60.7216 556.701 61.1392C557.019 61.5502 557.264 61.8883 557.436 62.1534H557.675V59.7273H559.942V75.4375C559.942 76.75 559.644 77.8172 559.047 78.6392C558.457 79.4678 557.662 80.0743 556.661 80.4588C555.667 80.8499 554.56 81.0455 553.34 81.0455ZM553.26 72.6534C554.202 72.6534 554.997 72.438 555.647 72.0071C556.296 71.5762 556.79 70.9564 557.128 70.1477C557.466 69.339 557.635 68.3712 557.635 67.2443C557.635 66.1439 557.47 65.1728 557.138 64.331C556.807 63.4891 556.316 62.8295 555.667 62.3523C555.017 61.875 554.215 61.6364 553.26 61.6364C552.266 61.6364 551.437 61.8883 550.775 62.392C550.118 62.8958 549.624 63.572 549.293 64.4205C548.968 65.2689 548.806 66.2102 548.806 67.2443C548.806 68.3049 548.971 69.2429 549.303 70.0582C549.641 70.867 550.138 71.5033 550.794 71.9673C551.457 72.4247 552.279 72.6534 553.26 72.6534ZM572.113 75V59.7273H574.459V75H572.113ZM573.306 57.1818C572.848 57.1818 572.454 57.026 572.123 56.7145C571.798 56.4029 571.635 56.0284 571.635 55.5909C571.635 55.1534 571.798 54.7789 572.123 54.4673C572.454 54.1558 572.848 54 573.306 54C573.763 54 574.154 54.1558 574.479 54.4673C574.81 54.7789 574.976 55.1534 574.976 55.5909C574.976 56.0284 574.81 56.4029 574.479 56.7145C574.154 57.026 573.763 57.1818 573.306 57.1818ZM585.399 59.7273V61.7159H577.484V59.7273H585.399ZM579.791 56.0682H582.138V70.625C582.138 71.2879 582.234 71.785 582.426 72.1165C582.625 72.4413 582.877 72.66 583.182 72.7727C583.493 72.8788 583.821 72.9318 584.166 72.9318C584.425 72.9318 584.637 72.9186 584.803 72.892C584.968 72.8589 585.101 72.8324 585.2 72.8125L585.678 74.9205C585.518 74.9801 585.296 75.0398 585.011 75.0994C584.726 75.1657 584.365 75.1989 583.928 75.1989C583.265 75.1989 582.615 75.0563 581.979 74.7713C581.349 74.4863 580.825 74.0521 580.408 73.4688C579.997 72.8854 579.791 72.1496 579.791 71.2614V56.0682ZM595.168 75.3182C593.697 75.3182 592.427 74.9934 591.36 74.3438C590.299 73.6875 589.481 72.7727 588.904 71.5994C588.334 70.4195 588.049 69.0473 588.049 67.483C588.049 65.9186 588.334 64.5398 588.904 63.3466C589.481 62.1468 590.283 61.2121 591.31 60.5426C592.344 59.8665 593.551 59.5284 594.93 59.5284C595.725 59.5284 596.511 59.661 597.286 59.9261C598.062 60.1913 598.768 60.6222 599.404 61.2188C600.04 61.8087 600.548 62.5909 600.925 63.5653C601.303 64.5398 601.492 65.7396 601.492 67.1648V68.1591H589.719V66.1307H599.106C599.106 65.2689 598.933 64.5 598.589 63.8239C598.251 63.1477 597.767 62.6141 597.137 62.223C596.514 61.8319 595.778 61.6364 594.93 61.6364C593.995 61.6364 593.186 61.8684 592.504 62.3324C591.827 62.7898 591.307 63.3864 590.942 64.1222C590.578 64.858 590.396 65.6468 590.396 66.4886V67.8409C590.396 68.9943 590.594 69.9721 590.992 70.7741C591.397 71.5696 591.957 72.1761 592.673 72.5938C593.388 73.0047 594.22 73.2102 595.168 73.2102C595.785 73.2102 596.342 73.1241 596.839 72.9517C597.343 72.7727 597.777 72.5076 598.141 72.1562C598.506 71.7983 598.788 71.3542 598.987 70.8239L601.254 71.4602C601.015 72.2292 600.614 72.9053 600.05 73.4886C599.487 74.0653 598.791 74.5161 597.962 74.8409C597.134 75.1591 596.202 75.3182 595.168 75.3182ZM605.062 75V59.7273H607.329V62.1136H607.528C607.846 61.2983 608.36 60.6652 609.069 60.2145C609.778 59.7571 610.63 59.5284 611.624 59.5284C612.632 59.5284 613.47 59.7571 614.14 60.2145C614.816 60.6652 615.343 61.2983 615.721 62.1136H615.88C616.271 61.3248 616.858 60.6984 617.64 60.2344C618.422 59.7637 619.36 59.5284 620.454 59.5284C621.819 59.5284 622.936 59.956 623.805 60.8111C624.673 61.6596 625.107 62.982 625.107 64.7784V75H622.761V64.7784C622.761 63.6515 622.452 62.8461 621.836 62.3622C621.219 61.8783 620.494 61.6364 619.658 61.6364C618.585 61.6364 617.753 61.9612 617.163 62.6108C616.573 63.2538 616.278 64.0691 616.278 65.0568V75H613.891V64.5398C613.891 63.6714 613.61 62.9721 613.046 62.4418C612.483 61.9048 611.757 61.6364 610.869 61.6364C610.259 61.6364 609.689 61.7988 609.158 62.1236C608.635 62.4484 608.21 62.8991 607.886 63.4759C607.567 64.0459 607.408 64.7055 607.408 65.4545V75H605.062ZM640.216 63.1477L638.108 63.7443C637.975 63.393 637.78 63.0516 637.521 62.7202C637.269 62.3821 636.925 62.1037 636.487 61.8849C636.05 61.6662 635.49 61.5568 634.807 61.5568C633.872 61.5568 633.093 61.7723 632.47 62.2031C631.854 62.6274 631.545 63.1676 631.545 63.8239C631.545 64.4072 631.758 64.8679 632.182 65.206C632.606 65.544 633.269 65.8258 634.17 66.0511L636.438 66.608C637.803 66.9394 638.821 67.4465 639.49 68.1293C640.16 68.8054 640.494 69.6771 640.494 70.7443C640.494 71.6193 640.242 72.4015 639.739 73.0909C639.241 73.7803 638.545 74.3239 637.651 74.7216C636.756 75.1193 635.715 75.3182 634.528 75.3182C632.971 75.3182 631.681 74.9801 630.661 74.304C629.64 73.6278 628.993 72.6402 628.722 71.3409L630.949 70.7841C631.161 71.6061 631.562 72.2225 632.152 72.6335C632.749 73.0445 633.527 73.25 634.489 73.25C635.582 73.25 636.451 73.018 637.094 72.554C637.743 72.0833 638.068 71.5199 638.068 70.8636C638.068 70.3333 637.883 69.8892 637.511 69.5312C637.14 69.1667 636.57 68.8949 635.801 68.7159L633.256 68.1193C631.857 67.7879 630.83 67.2741 630.173 66.5781C629.524 65.8755 629.199 64.9972 629.199 63.9432C629.199 63.0814 629.441 62.3191 629.925 61.6562C630.415 60.9934 631.081 60.473 631.923 60.0952C632.772 59.7173 633.733 59.5284 634.807 59.5284C636.318 59.5284 637.505 59.8598 638.366 60.5227C639.235 61.1856 639.851 62.0606 640.216 63.1477Z" fill="black"/>
<path d="M710.852 61H708.386C708.241 60.2907 707.985 59.6676 707.621 59.1307C707.263 58.5938 706.825 58.143 706.308 57.7784C705.798 57.4072 705.231 57.1288 704.608 56.9432C703.985 56.7576 703.335 56.6648 702.659 56.6648C701.426 56.6648 700.309 56.9763 699.308 57.5994C698.314 58.2225 697.522 59.1406 696.932 60.3537C696.348 61.5668 696.057 63.0549 696.057 64.8182C696.057 66.5814 696.348 68.0696 696.932 69.2827C697.522 70.4957 698.314 71.4138 699.308 72.0369C700.309 72.66 701.426 72.9716 702.659 72.9716C703.335 72.9716 703.985 72.8788 704.608 72.6932C705.231 72.5076 705.798 72.2325 706.308 71.8679C706.825 71.4967 707.263 71.0426 707.621 70.5057C707.985 69.9621 708.241 69.339 708.386 68.6364H710.852C710.667 69.6771 710.329 70.6084 709.838 71.4304C709.348 72.2524 708.738 72.9517 708.009 73.5284C707.279 74.0985 706.461 74.5327 705.553 74.831C704.651 75.1293 703.687 75.2784 702.659 75.2784C700.922 75.2784 699.378 74.8542 698.026 74.0057C696.673 73.1572 695.609 71.9508 694.834 70.3864C694.058 68.822 693.67 66.9659 693.67 64.8182C693.67 62.6705 694.058 60.8144 694.834 59.25C695.609 57.6856 696.673 56.4792 698.026 55.6307C699.378 54.7822 700.922 54.358 702.659 54.358C703.687 54.358 704.651 54.5071 705.553 54.8054C706.461 55.1037 707.279 55.5412 708.009 56.1179C708.738 56.688 709.348 57.384 709.838 58.206C710.329 59.0213 710.667 59.9527 710.852 61ZM719.013 75.358C718.045 75.358 717.167 75.1757 716.378 74.8111C715.589 74.4399 714.963 73.9062 714.499 73.2102C714.035 72.5076 713.803 71.6591 713.803 70.6648C713.803 69.7898 713.975 69.0805 714.32 68.5369C714.665 67.9867 715.125 67.5559 715.702 67.2443C716.279 66.9328 716.915 66.7008 717.611 66.5483C718.314 66.3892 719.02 66.2633 719.729 66.1705C720.657 66.0511 721.409 65.9616 721.986 65.902C722.569 65.8357 722.994 65.7263 723.259 65.5739C723.531 65.4214 723.667 65.1562 723.667 64.7784V64.6989C723.667 63.7178 723.398 62.9555 722.861 62.4119C722.331 61.8684 721.525 61.5966 720.445 61.5966C719.325 61.5966 718.446 61.8419 717.81 62.3324C717.174 62.8229 716.726 63.3466 716.468 63.9034L714.24 63.108C714.638 62.1799 715.168 61.4574 715.831 60.9403C716.501 60.4167 717.23 60.0521 718.019 59.8466C718.814 59.6345 719.596 59.5284 720.365 59.5284C720.856 59.5284 721.419 59.5881 722.056 59.7074C722.699 59.8201 723.319 60.0554 723.915 60.4134C724.518 60.7713 725.019 61.3116 725.417 62.0341C725.814 62.7566 726.013 63.7244 726.013 64.9375V75H723.667V72.9318H723.547C723.388 73.2633 723.123 73.6179 722.752 73.9957C722.381 74.3736 721.887 74.6951 721.27 74.9602C720.654 75.2254 719.901 75.358 719.013 75.358ZM719.371 73.25C720.299 73.25 721.081 73.0677 721.718 72.7031C722.361 72.3385 722.845 71.8679 723.169 71.2912C723.501 70.7145 723.667 70.108 723.667 69.4716V67.3239C723.567 67.4432 723.348 67.5526 723.01 67.652C722.679 67.7448 722.294 67.8277 721.857 67.9006C721.426 67.9669 721.005 68.0265 720.594 68.0795C720.19 68.1259 719.862 68.1657 719.61 68.1989C719 68.2784 718.43 68.4077 717.9 68.5866C717.376 68.759 716.952 69.0208 716.627 69.3722C716.309 69.7169 716.15 70.1875 716.15 70.7841C716.15 71.5994 716.451 72.2159 717.054 72.6335C717.664 73.0445 718.436 73.25 719.371 73.25ZM732.643 54.6364V75H730.296V54.6364H732.643ZM743.344 75.3182C741.873 75.3182 740.603 74.9934 739.536 74.3438C738.475 73.6875 737.657 72.7727 737.08 71.5994C736.51 70.4195 736.225 69.0473 736.225 67.483C736.225 65.9186 736.51 64.5398 737.08 63.3466C737.657 62.1468 738.459 61.2121 739.486 60.5426C740.52 59.8665 741.727 59.5284 743.105 59.5284C743.901 59.5284 744.686 59.661 745.462 59.9261C746.238 60.1913 746.944 60.6222 747.58 61.2188C748.216 61.8087 748.723 62.5909 749.101 63.5653C749.479 64.5398 749.668 65.7396 749.668 67.1648V68.1591H737.895V66.1307H747.282C747.282 65.2689 747.109 64.5 746.765 63.8239C746.426 63.1477 745.943 62.6141 745.313 62.223C744.69 61.8319 743.954 61.6364 743.105 61.6364C742.171 61.6364 741.362 61.8684 740.679 62.3324C740.003 62.7898 739.483 63.3864 739.118 64.1222C738.754 64.858 738.571 65.6468 738.571 66.4886V67.8409C738.571 68.9943 738.77 69.9721 739.168 70.7741C739.572 71.5696 740.132 72.1761 740.848 72.5938C741.564 73.0047 742.396 73.2102 743.344 73.2102C743.961 73.2102 744.517 73.1241 745.015 72.9517C745.518 72.7727 745.953 72.5076 746.317 72.1562C746.682 71.7983 746.963 71.3542 747.162 70.8239L749.429 71.4602C749.191 72.2292 748.79 72.9053 748.226 73.4886C747.663 74.0653 746.967 74.5161 746.138 74.8409C745.31 75.1591 744.378 75.3182 743.344 75.3182ZM755.584 65.8125V75H753.238V59.7273H755.505V62.1136H755.703C756.061 61.3381 756.605 60.715 757.334 60.2443C758.063 59.767 759.005 59.5284 760.158 59.5284C761.192 59.5284 762.097 59.7405 762.873 60.1648C763.648 60.5824 764.251 61.2188 764.682 62.0739C765.113 62.9223 765.328 63.9962 765.328 65.2955V75H762.982V65.4545C762.982 64.2547 762.67 63.3201 762.047 62.6506C761.424 61.9744 760.569 61.6364 759.482 61.6364C758.733 61.6364 758.063 61.7988 757.473 62.1236C756.89 62.4484 756.429 62.9223 756.091 63.5455C755.753 64.1686 755.584 64.9242 755.584 65.8125ZM775.384 75.3182C774.111 75.3182 772.987 74.9967 772.013 74.3537C771.038 73.7041 770.276 72.7893 769.726 71.6094C769.176 70.4228 768.901 69.0208 768.901 67.4034C768.901 65.7992 769.176 64.4072 769.726 63.2273C770.276 62.0473 771.042 61.1359 772.023 60.4929C773.004 59.8499 774.137 59.5284 775.423 59.5284C776.418 59.5284 777.203 59.6941 777.78 60.0256C778.363 60.3504 778.807 60.7216 779.112 61.1392C779.424 61.5502 779.666 61.8883 779.838 62.1534H780.037V54.6364H782.384V75H780.116V72.6534H779.838C779.666 72.9318 779.42 73.2831 779.102 73.7074C778.784 74.125 778.33 74.4995 777.74 74.831C777.15 75.1558 776.365 75.3182 775.384 75.3182ZM775.702 73.2102C776.643 73.2102 777.438 72.965 778.088 72.4744C778.738 71.9773 779.232 71.2912 779.57 70.4162C779.908 69.5346 780.077 68.517 780.077 67.3636C780.077 66.2235 779.911 65.2259 779.58 64.3707C779.248 63.509 778.758 62.8395 778.108 62.3622C777.458 61.8783 776.656 61.6364 775.702 61.6364C774.707 61.6364 773.879 61.8916 773.216 62.402C772.56 62.9058 772.066 63.5919 771.734 64.4602C771.41 65.322 771.247 66.2898 771.247 67.3636C771.247 68.4508 771.413 69.4384 771.744 70.3267C772.082 71.2083 772.58 71.911 773.236 72.4347C773.899 72.9517 774.721 73.2102 775.702 73.2102ZM793.411 75.3182C791.939 75.3182 790.67 74.9934 789.602 74.3438C788.542 73.6875 787.723 72.7727 787.146 71.5994C786.576 70.4195 786.291 69.0473 786.291 67.483C786.291 65.9186 786.576 64.5398 787.146 63.3466C787.723 62.1468 788.525 61.2121 789.553 60.5426C790.587 59.8665 791.793 59.5284 793.172 59.5284C793.967 59.5284 794.753 59.661 795.528 59.9261C796.304 60.1913 797.01 60.6222 797.646 61.2188C798.283 61.8087 798.79 62.5909 799.168 63.5653C799.545 64.5398 799.734 65.7396 799.734 67.1648V68.1591H787.962V66.1307H797.348C797.348 65.2689 797.176 64.5 796.831 63.8239C796.493 63.1477 796.009 62.6141 795.379 62.223C794.756 61.8319 794.02 61.6364 793.172 61.6364C792.237 61.6364 791.429 61.8684 790.746 62.3324C790.07 62.7898 789.549 63.3864 789.185 64.1222C788.82 64.858 788.638 65.6468 788.638 66.4886V67.8409C788.638 68.9943 788.837 69.9721 789.234 70.7741C789.639 71.5696 790.199 72.1761 790.915 72.5938C791.631 73.0047 792.463 73.2102 793.411 73.2102C794.027 73.2102 794.584 73.1241 795.081 72.9517C795.585 72.7727 796.019 72.5076 796.384 72.1562C796.748 71.7983 797.03 71.3542 797.229 70.8239L799.496 71.4602C799.257 72.2292 798.856 72.9053 798.293 73.4886C797.729 74.0653 797.033 74.5161 796.205 74.8409C795.376 75.1591 794.445 75.3182 793.411 75.3182ZM803.304 75V59.7273H805.571V62.0341H805.73C806.009 61.2784 806.512 60.6652 807.241 60.1946C807.971 59.724 808.793 59.4886 809.707 59.4886C809.88 59.4886 810.095 59.4919 810.354 59.4986C810.612 59.5052 810.808 59.5152 810.94 59.5284V61.9148C810.861 61.8949 810.679 61.8651 810.393 61.8253C810.115 61.7789 809.82 61.7557 809.509 61.7557C808.766 61.7557 808.103 61.9115 807.52 62.223C806.943 62.5279 806.486 62.9522 806.148 63.4957C805.816 64.0327 805.651 64.6458 805.651 65.3352V75H803.304Z" fill="#FF0000"/>
<path d="M1254.82 69V45.7273H1257.64V66.5H1268.45V69H1254.82ZM1279.55 69.3636C1277.97 69.3636 1276.59 68.9886 1275.4 68.2386C1274.22 67.4886 1273.29 66.4394 1272.62 65.0909C1271.97 63.7424 1271.64 62.1667 1271.64 60.3636C1271.64 58.5455 1271.97 56.9583 1272.62 55.6023C1273.29 54.2462 1274.22 53.1932 1275.4 52.4432C1276.59 51.6932 1277.97 51.3182 1279.55 51.3182C1281.12 51.3182 1282.5 51.6932 1283.68 52.4432C1284.87 53.1932 1285.8 54.2462 1286.45 55.6023C1287.12 56.9583 1287.45 58.5455 1287.45 60.3636C1287.45 62.1667 1287.12 63.7424 1286.45 65.0909C1285.8 66.4394 1284.87 67.4886 1283.68 68.2386C1282.5 68.9886 1281.12 69.3636 1279.55 69.3636ZM1279.55 66.9545C1280.74 66.9545 1281.73 66.6477 1282.5 66.0341C1283.27 65.4205 1283.84 64.6136 1284.22 63.6136C1284.59 62.6136 1284.77 61.5303 1284.77 60.3636C1284.77 59.197 1284.59 58.1098 1284.22 57.1023C1283.84 56.0947 1283.27 55.2803 1282.5 54.6591C1281.73 54.0379 1280.74 53.7273 1279.55 53.7273C1278.35 53.7273 1277.36 54.0379 1276.59 54.6591C1275.82 55.2803 1275.25 56.0947 1274.88 57.1023C1274.5 58.1098 1274.32 59.197 1274.32 60.3636C1274.32 61.5303 1274.5 62.6136 1274.88 63.6136C1275.25 64.6136 1275.82 65.4205 1276.59 66.0341C1277.36 66.6477 1278.35 66.9545 1279.55 66.9545ZM1298.59 75.9091C1297.3 75.9091 1296.18 75.7424 1295.25 75.4091C1294.32 75.0833 1293.54 74.6515 1292.92 74.1136C1292.31 73.5833 1291.82 73.0152 1291.46 72.4091L1293.59 70.9091C1293.84 71.2273 1294.14 71.5909 1294.51 72C1294.89 72.4167 1295.39 72.7765 1296.04 73.0795C1296.69 73.3902 1297.54 73.5455 1298.59 73.5455C1300 73.5455 1301.17 73.2045 1302.08 72.5227C1303 71.8409 1303.46 70.7727 1303.46 69.3182V65.7727H1303.23C1303.03 66.0909 1302.75 66.4848 1302.39 66.9545C1302.03 67.4167 1301.52 67.8295 1300.84 68.1932C1300.18 68.5492 1299.28 68.7273 1298.14 68.7273C1296.73 68.7273 1295.46 68.3939 1294.34 67.7273C1293.23 67.0606 1292.35 66.0909 1291.7 64.8182C1291.05 63.5455 1290.73 62 1290.73 60.1818C1290.73 58.3939 1291.04 56.8371 1291.67 55.5114C1292.3 54.178 1293.18 53.1477 1294.3 52.4205C1295.42 51.6856 1296.71 51.3182 1298.18 51.3182C1299.32 51.3182 1300.22 51.5076 1300.89 51.8864C1301.56 52.2576 1302.08 52.6818 1302.43 53.1591C1302.8 53.6288 1303.08 54.0152 1303.28 54.3182H1303.55V51.5455H1306.14V69.5C1306.14 71 1305.8 72.2197 1305.12 73.1591C1304.44 74.1061 1303.53 74.7992 1302.39 75.2386C1301.25 75.6856 1299.99 75.9091 1298.59 75.9091ZM1298.5 66.3182C1299.58 66.3182 1300.49 66.072 1301.23 65.5795C1301.97 65.0871 1302.54 64.3788 1302.92 63.4545C1303.31 62.5303 1303.5 61.4242 1303.5 60.1364C1303.5 58.8788 1303.31 57.7689 1302.93 56.8068C1302.56 55.8447 1302 55.0909 1301.25 54.5455C1300.51 54 1299.59 53.7273 1298.5 53.7273C1297.37 53.7273 1296.42 54.0152 1295.66 54.5909C1294.91 55.1667 1294.35 55.9394 1293.97 56.9091C1293.6 57.8788 1293.41 58.9545 1293.41 60.1364C1293.41 61.3485 1293.6 62.4205 1293.98 63.3523C1294.37 64.2765 1294.93 65.0038 1295.68 65.5341C1296.44 66.0568 1297.38 66.3182 1298.5 66.3182ZM1318.14 69.3636C1316.56 69.3636 1315.18 68.9886 1313.99 68.2386C1312.81 67.4886 1311.89 66.4394 1311.22 65.0909C1310.56 63.7424 1310.23 62.1667 1310.23 60.3636C1310.23 58.5455 1310.56 56.9583 1311.22 55.6023C1311.89 54.2462 1312.81 53.1932 1313.99 52.4432C1315.18 51.6932 1316.56 51.3182 1318.14 51.3182C1319.71 51.3182 1321.09 51.6932 1322.28 52.4432C1323.46 53.1932 1324.39 54.2462 1325.05 55.6023C1325.71 56.9583 1326.05 58.5455 1326.05 60.3636C1326.05 62.1667 1325.71 63.7424 1325.05 65.0909C1324.39 66.4394 1323.46 67.4886 1322.28 68.2386C1321.09 68.9886 1319.71 69.3636 1318.14 69.3636ZM1318.14 66.9545C1319.34 66.9545 1320.32 66.6477 1321.09 66.0341C1321.87 65.4205 1322.44 64.6136 1322.81 63.6136C1323.18 62.6136 1323.37 61.5303 1323.37 60.3636C1323.37 59.197 1323.18 58.1098 1322.81 57.1023C1322.44 56.0947 1321.87 55.2803 1321.09 54.6591C1320.32 54.0379 1319.34 53.7273 1318.14 53.7273C1316.94 53.7273 1315.96 54.0379 1315.18 54.6591C1314.41 55.2803 1313.84 56.0947 1313.47 57.1023C1313.1 58.1098 1312.91 59.197 1312.91 60.3636C1312.91 61.5303 1313.1 62.6136 1313.47 63.6136C1313.84 64.6136 1314.41 65.4205 1315.18 66.0341C1315.96 66.6477 1316.94 66.9545 1318.14 66.9545ZM1341.14 61.8636V51.5455H1343.82V69H1341.14V66.0455H1340.96C1340.55 66.9318 1339.91 67.6856 1339.05 68.3068C1338.19 68.9205 1337.1 69.2273 1335.78 69.2273C1334.69 69.2273 1333.72 68.9886 1332.87 68.5114C1332.02 68.0265 1331.35 67.2992 1330.87 66.3295C1330.38 65.3523 1330.14 64.1212 1330.14 62.6364V51.5455H1332.82V62.4545C1332.82 63.7273 1333.18 64.7424 1333.89 65.5C1334.61 66.2576 1335.53 66.6364 1336.64 66.6364C1337.31 66.6364 1337.99 66.4659 1338.68 66.125C1339.37 65.7841 1339.96 65.2614 1340.43 64.5568C1340.9 63.8523 1341.14 62.9545 1341.14 61.8636ZM1356.33 51.5455V53.8182H1347.28V51.5455H1356.33ZM1349.92 47.3636H1352.6V64C1352.6 64.7576 1352.71 65.3258 1352.93 65.7045C1353.16 66.0758 1353.44 66.3258 1353.79 66.4545C1354.15 66.5758 1354.52 66.6364 1354.92 66.6364C1355.21 66.6364 1355.46 66.6212 1355.64 66.5909C1355.83 66.553 1355.99 66.5227 1356.1 66.5L1356.64 68.9091C1356.46 68.9773 1356.21 69.0455 1355.88 69.1136C1355.56 69.1894 1355.14 69.2273 1354.64 69.2273C1353.89 69.2273 1353.14 69.0644 1352.42 68.7386C1351.7 68.4129 1351.1 67.9167 1350.62 67.25C1350.15 66.5833 1349.92 65.7424 1349.92 64.7273V47.3636Z" fill="black"/>
<rect y="1037" width="1440" height="260" fill="#D9D9D9"/>
<path d="M636.466 1194V1173.64H648.676V1175.82H638.932V1182.7H647.761V1184.89H638.932V1194H636.466ZM657.665 1194.32C656.286 1194.32 655.076 1193.99 654.036 1193.33C653.001 1192.68 652.193 1191.76 651.609 1190.58C651.033 1189.4 650.744 1188.02 650.744 1186.44C650.744 1184.85 651.033 1183.46 651.609 1182.28C652.193 1181.09 653.001 1180.17 654.036 1179.51C655.076 1178.86 656.286 1178.53 657.665 1178.53C659.044 1178.53 660.25 1178.86 661.284 1179.51C662.325 1180.17 663.134 1181.09 663.71 1182.28C664.294 1183.46 664.585 1184.85 664.585 1186.44C664.585 1188.02 664.294 1189.4 663.71 1190.58C663.134 1191.76 662.325 1192.68 661.284 1193.33C660.25 1193.99 659.044 1194.32 657.665 1194.32ZM657.665 1192.21C658.712 1192.21 659.574 1191.94 660.25 1191.4C660.926 1190.87 661.427 1190.16 661.751 1189.29C662.076 1188.41 662.239 1187.46 662.239 1186.44C662.239 1185.42 662.076 1184.47 661.751 1183.59C661.427 1182.71 660.926 1182 660.25 1181.45C659.574 1180.91 658.712 1180.64 657.665 1180.64C656.617 1180.64 655.756 1180.91 655.08 1181.45C654.403 1182 653.903 1182.71 653.578 1183.59C653.253 1184.47 653.091 1185.42 653.091 1186.44C653.091 1187.46 653.253 1188.41 653.578 1189.29C653.903 1190.16 654.403 1190.87 655.08 1191.4C655.756 1191.94 656.617 1192.21 657.665 1192.21ZM674.372 1194.32C672.993 1194.32 671.783 1193.99 670.743 1193.33C669.708 1192.68 668.9 1191.76 668.316 1190.58C667.74 1189.4 667.451 1188.02 667.451 1186.44C667.451 1184.85 667.74 1183.46 668.316 1182.28C668.9 1181.09 669.708 1180.17 670.743 1179.51C671.783 1178.86 672.993 1178.53 674.372 1178.53C675.751 1178.53 676.957 1178.86 677.991 1179.51C679.032 1180.17 679.841 1181.09 680.417 1182.28C681.001 1183.46 681.292 1184.85 681.292 1186.44C681.292 1188.02 681.001 1189.4 680.417 1190.58C679.841 1191.76 679.032 1192.68 677.991 1193.33C676.957 1193.99 675.751 1194.32 674.372 1194.32ZM674.372 1192.21C675.419 1192.21 676.281 1191.94 676.957 1191.4C677.633 1190.87 678.134 1190.16 678.458 1189.29C678.783 1188.41 678.946 1187.46 678.946 1186.44C678.946 1185.42 678.783 1184.47 678.458 1183.59C678.134 1182.71 677.633 1182 676.957 1181.45C676.281 1180.91 675.419 1180.64 674.372 1180.64C673.324 1180.64 672.463 1180.91 671.787 1181.45C671.11 1182 670.61 1182.71 670.285 1183.59C669.96 1184.47 669.798 1185.42 669.798 1186.44C669.798 1187.46 669.96 1188.41 670.285 1189.29C670.61 1190.16 671.11 1190.87 671.787 1191.4C672.463 1191.94 673.324 1192.21 674.372 1192.21ZM691.516 1178.73V1180.72H683.602V1178.73H691.516ZM685.908 1175.07H688.255V1189.62C688.255 1190.29 688.351 1190.79 688.543 1191.12C688.742 1191.44 688.994 1191.66 689.299 1191.77C689.611 1191.88 689.939 1191.93 690.283 1191.93C690.542 1191.93 690.754 1191.92 690.92 1191.89C691.085 1191.86 691.218 1191.83 691.317 1191.81L691.795 1193.92C691.636 1193.98 691.414 1194.04 691.129 1194.1C690.844 1194.17 690.482 1194.2 690.045 1194.2C689.382 1194.2 688.732 1194.06 688.096 1193.77C687.466 1193.49 686.942 1193.05 686.525 1192.47C686.114 1191.89 685.908 1191.15 685.908 1190.26V1175.07ZM701.286 1194.32C699.814 1194.32 698.545 1193.99 697.477 1193.34C696.417 1192.69 695.598 1191.77 695.021 1190.6C694.451 1189.42 694.166 1188.05 694.166 1186.48C694.166 1184.92 694.451 1183.54 695.021 1182.35C695.598 1181.15 696.4 1180.21 697.428 1179.54C698.462 1178.87 699.668 1178.53 701.047 1178.53C701.842 1178.53 702.628 1178.66 703.403 1178.93C704.179 1179.19 704.885 1179.62 705.521 1180.22C706.158 1180.81 706.665 1181.59 707.043 1182.57C707.42 1183.54 707.609 1184.74 707.609 1186.16V1187.16H695.837V1185.13H705.223C705.223 1184.27 705.051 1183.5 704.706 1182.82C704.368 1182.15 703.884 1181.61 703.254 1181.22C702.631 1180.83 701.895 1180.64 701.047 1180.64C700.112 1180.64 699.304 1180.87 698.621 1181.33C697.945 1181.79 697.424 1182.39 697.06 1183.12C696.695 1183.86 696.513 1184.65 696.513 1185.49V1186.84C696.513 1187.99 696.712 1188.97 697.109 1189.77C697.514 1190.57 698.074 1191.18 698.79 1191.59C699.506 1192 700.338 1192.21 701.286 1192.21C701.902 1192.21 702.459 1192.12 702.956 1191.95C703.46 1191.77 703.894 1191.51 704.259 1191.16C704.623 1190.8 704.905 1190.35 705.104 1189.82L707.371 1190.46C707.132 1191.23 706.731 1191.91 706.168 1192.49C705.604 1193.07 704.908 1193.52 704.08 1193.84C703.251 1194.16 702.32 1194.32 701.286 1194.32ZM711.179 1194V1178.73H713.446V1181.03H713.605C713.884 1180.28 714.387 1179.67 715.116 1179.19C715.846 1178.72 716.668 1178.49 717.582 1178.49C717.755 1178.49 717.97 1178.49 718.229 1178.5C718.487 1178.51 718.683 1178.52 718.815 1178.53V1180.91C718.736 1180.89 718.554 1180.87 718.268 1180.83C717.99 1180.78 717.695 1180.76 717.384 1180.76C716.641 1180.76 715.978 1180.91 715.395 1181.22C714.818 1181.53 714.361 1181.95 714.023 1182.5C713.691 1183.03 713.526 1183.65 713.526 1184.34V1194H711.179Z" fill="black"/>
<rect x="75" y="193" width="1234" height="106" fill="#D9D9D9"/>
<path d="M147.494 246.812V256H145.148V240.727H147.415V243.114H147.614C147.972 242.338 148.515 241.715 149.244 241.244C149.973 240.767 150.915 240.528 152.068 240.528C153.102 240.528 154.007 240.741 154.783 241.165C155.558 241.582 156.161 242.219 156.592 243.074C157.023 243.922 157.239 244.996 157.239 246.295V256H154.892V246.455C154.892 245.255 154.58 244.32 153.957 243.651C153.334 242.974 152.479 242.636 151.392 242.636C150.643 242.636 149.973 242.799 149.384 243.124C148.8 243.448 148.339 243.922 148.001 244.545C147.663 245.169 147.494 245.924 147.494 246.812ZM166.021 256.358C165.053 256.358 164.175 256.176 163.386 255.811C162.597 255.44 161.971 254.906 161.507 254.21C161.043 253.508 160.811 252.659 160.811 251.665C160.811 250.79 160.983 250.08 161.328 249.537C161.672 248.987 162.133 248.556 162.71 248.244C163.287 247.933 163.923 247.701 164.619 247.548C165.322 247.389 166.028 247.263 166.737 247.17C167.665 247.051 168.417 246.962 168.994 246.902C169.577 246.836 170.002 246.726 170.267 246.574C170.538 246.421 170.674 246.156 170.674 245.778V245.699C170.674 244.718 170.406 243.955 169.869 243.412C169.339 242.868 168.533 242.597 167.453 242.597C166.333 242.597 165.454 242.842 164.818 243.332C164.181 243.823 163.734 244.347 163.475 244.903L161.248 244.108C161.646 243.18 162.176 242.457 162.839 241.94C163.509 241.417 164.238 241.052 165.027 240.847C165.822 240.634 166.604 240.528 167.373 240.528C167.864 240.528 168.427 240.588 169.064 240.707C169.707 240.82 170.326 241.055 170.923 241.413C171.526 241.771 172.027 242.312 172.424 243.034C172.822 243.757 173.021 244.724 173.021 245.938V256H170.674V253.932H170.555C170.396 254.263 170.131 254.618 169.76 254.996C169.388 255.374 168.895 255.695 168.278 255.96C167.662 256.225 166.909 256.358 166.021 256.358ZM166.379 254.25C167.307 254.25 168.089 254.068 168.725 253.703C169.368 253.339 169.852 252.868 170.177 252.291C170.509 251.714 170.674 251.108 170.674 250.472V248.324C170.575 248.443 170.356 248.553 170.018 248.652C169.687 248.745 169.302 248.828 168.865 248.901C168.434 248.967 168.013 249.027 167.602 249.08C167.198 249.126 166.869 249.166 166.618 249.199C166.008 249.278 165.438 249.408 164.907 249.587C164.384 249.759 163.959 250.021 163.635 250.372C163.316 250.717 163.157 251.187 163.157 251.784C163.157 252.599 163.459 253.216 164.062 253.634C164.672 254.045 165.444 254.25 166.379 254.25ZM177.304 256V240.727H179.571V243.114H179.77C180.088 242.298 180.602 241.665 181.311 241.214C182.02 240.757 182.872 240.528 183.866 240.528C184.874 240.528 185.713 240.757 186.382 241.214C187.058 241.665 187.585 242.298 187.963 243.114H188.122C188.513 242.325 189.1 241.698 189.882 241.234C190.664 240.764 191.602 240.528 192.696 240.528C194.062 240.528 195.179 240.956 196.047 241.811C196.915 242.66 197.349 243.982 197.349 245.778V256H195.003V245.778C195.003 244.652 194.695 243.846 194.078 243.362C193.462 242.878 192.736 242.636 191.901 242.636C190.827 242.636 189.995 242.961 189.405 243.611C188.815 244.254 188.52 245.069 188.52 246.057V256H186.134V245.54C186.134 244.671 185.852 243.972 185.288 243.442C184.725 242.905 183.999 242.636 183.111 242.636C182.501 242.636 181.931 242.799 181.401 243.124C180.877 243.448 180.453 243.899 180.128 244.476C179.81 245.046 179.651 245.705 179.651 246.455V256H177.304ZM208.043 256.318C206.572 256.318 205.302 255.993 204.235 255.344C203.174 254.688 202.356 253.773 201.779 252.599C201.209 251.42 200.924 250.047 200.924 248.483C200.924 246.919 201.209 245.54 201.779 244.347C202.356 243.147 203.158 242.212 204.185 241.543C205.219 240.866 206.426 240.528 207.805 240.528C208.6 240.528 209.386 240.661 210.161 240.926C210.937 241.191 211.643 241.622 212.279 242.219C212.915 242.809 213.423 243.591 213.8 244.565C214.178 245.54 214.367 246.74 214.367 248.165V249.159H202.594V247.131H211.981C211.981 246.269 211.808 245.5 211.464 244.824C211.126 244.148 210.642 243.614 210.012 243.223C209.389 242.832 208.653 242.636 207.805 242.636C206.87 242.636 206.061 242.868 205.379 243.332C204.702 243.79 204.182 244.386 203.817 245.122C203.453 245.858 203.271 246.647 203.271 247.489V248.841C203.271 249.994 203.469 250.972 203.867 251.774C204.272 252.57 204.832 253.176 205.548 253.594C206.263 254.005 207.095 254.21 208.043 254.21C208.66 254.21 209.217 254.124 209.714 253.952C210.218 253.773 210.652 253.508 211.016 253.156C211.381 252.798 211.663 252.354 211.862 251.824L214.129 252.46C213.89 253.229 213.489 253.905 212.925 254.489C212.362 255.065 211.666 255.516 210.837 255.841C210.009 256.159 209.077 256.318 208.043 256.318Z" fill="black"/>
<path d="M304.75 256H298.466V235.636H305.028C307.004 235.636 308.694 236.044 310.099 236.859C311.505 237.668 312.582 238.831 313.331 240.349C314.08 241.861 314.455 243.67 314.455 245.778C314.455 247.9 314.077 249.726 313.321 251.257C312.565 252.782 311.465 253.955 310.02 254.777C308.575 255.592 306.818 256 304.75 256ZM300.932 253.812H304.591C306.275 253.812 307.67 253.488 308.777 252.838C309.884 252.188 310.709 251.264 311.253 250.064C311.796 248.864 312.068 247.436 312.068 245.778C312.068 244.134 311.8 242.719 311.263 241.533C310.726 240.339 309.924 239.425 308.857 238.788C307.789 238.145 306.46 237.824 304.869 237.824H300.932V253.812ZM322.767 256.358C321.799 256.358 320.921 256.176 320.132 255.811C319.343 255.44 318.717 254.906 318.253 254.21C317.789 253.508 317.557 252.659 317.557 251.665C317.557 250.79 317.729 250.08 318.074 249.537C318.419 248.987 318.879 248.556 319.456 248.244C320.033 247.933 320.669 247.701 321.365 247.548C322.068 247.389 322.774 247.263 323.483 247.17C324.411 247.051 325.163 246.962 325.74 246.902C326.323 246.836 326.748 246.726 327.013 246.574C327.285 246.421 327.42 246.156 327.42 245.778V245.699C327.42 244.718 327.152 243.955 326.615 243.412C326.085 242.868 325.279 242.597 324.199 242.597C323.079 242.597 322.2 242.842 321.564 243.332C320.928 243.823 320.48 244.347 320.222 244.903L317.994 244.108C318.392 243.18 318.922 242.457 319.585 241.94C320.255 241.417 320.984 241.052 321.773 240.847C322.568 240.634 323.35 240.528 324.119 240.528C324.61 240.528 325.173 240.588 325.81 240.707C326.453 240.82 327.072 241.055 327.669 241.413C328.272 241.771 328.773 242.312 329.17 243.034C329.568 243.757 329.767 244.724 329.767 245.938V256H327.42V253.932H327.301C327.142 254.263 326.877 254.618 326.506 254.996C326.134 255.374 325.641 255.695 325.024 255.96C324.408 256.225 323.655 256.358 322.767 256.358ZM323.125 254.25C324.053 254.25 324.835 254.068 325.472 253.703C326.115 253.339 326.598 252.868 326.923 252.291C327.255 251.714 327.42 251.108 327.42 250.472V248.324C327.321 248.443 327.102 248.553 326.764 248.652C326.433 248.745 326.048 248.828 325.611 248.901C325.18 248.967 324.759 249.027 324.348 249.08C323.944 249.126 323.616 249.166 323.364 249.199C322.754 249.278 322.184 249.408 321.653 249.587C321.13 249.759 320.705 250.021 320.381 250.372C320.063 250.717 319.903 251.187 319.903 251.784C319.903 252.599 320.205 253.216 320.808 253.634C321.418 254.045 322.19 254.25 323.125 254.25ZM340.692 240.727V242.716H332.777V240.727H340.692ZM335.084 237.068H337.431V251.625C337.431 252.288 337.527 252.785 337.719 253.116C337.918 253.441 338.17 253.66 338.475 253.773C338.786 253.879 339.114 253.932 339.459 253.932C339.718 253.932 339.93 253.919 340.096 253.892C340.261 253.859 340.394 253.832 340.493 253.812L340.971 255.92C340.811 255.98 340.589 256.04 340.304 256.099C340.019 256.166 339.658 256.199 339.221 256.199C338.558 256.199 337.908 256.056 337.272 255.771C336.642 255.486 336.118 255.052 335.701 254.469C335.29 253.885 335.084 253.15 335.084 252.261V237.068ZM350.461 256.318C348.99 256.318 347.72 255.993 346.653 255.344C345.592 254.688 344.774 253.773 344.197 252.599C343.627 251.42 343.342 250.047 343.342 248.483C343.342 246.919 343.627 245.54 344.197 244.347C344.774 243.147 345.576 242.212 346.603 241.543C347.637 240.866 348.844 240.528 350.223 240.528C351.018 240.528 351.804 240.661 352.579 240.926C353.355 241.191 354.061 241.622 354.697 242.219C355.333 242.809 355.841 243.591 356.218 244.565C356.596 245.54 356.785 246.74 356.785 248.165V249.159H345.012V247.131H354.399C354.399 246.269 354.226 245.5 353.882 244.824C353.544 244.148 353.06 243.614 352.43 243.223C351.807 242.832 351.071 242.636 350.223 242.636C349.288 242.636 348.479 242.868 347.797 243.332C347.12 243.79 346.6 244.386 346.235 245.122C345.871 245.858 345.689 246.647 345.689 247.489V248.841C345.689 249.994 345.887 250.972 346.285 251.774C346.69 252.57 347.25 253.176 347.966 253.594C348.681 254.005 349.513 254.21 350.461 254.21C351.078 254.21 351.635 254.124 352.132 253.952C352.636 253.773 353.07 253.508 353.434 253.156C353.799 252.798 354.081 252.354 354.279 251.824L356.547 252.46C356.308 253.229 355.907 253.905 355.343 254.489C354.78 255.065 354.084 255.516 353.255 255.841C352.427 256.159 351.495 256.318 350.461 256.318Z" fill="black"/>
<path d="M1164.15 256V240.727H1166.41V243.034H1166.57C1166.85 242.278 1167.36 241.665 1168.09 241.195C1168.81 240.724 1169.64 240.489 1170.55 240.489C1170.72 240.489 1170.94 240.492 1171.2 240.499C1171.46 240.505 1171.65 240.515 1171.78 240.528V242.915C1171.7 242.895 1171.52 242.865 1171.24 242.825C1170.96 242.779 1170.66 242.756 1170.35 242.756C1169.61 242.756 1168.95 242.911 1168.36 243.223C1167.79 243.528 1167.33 243.952 1166.99 244.496C1166.66 245.033 1166.49 245.646 1166.49 246.335V256H1164.15ZM1180.5 256.318C1179.03 256.318 1177.76 255.993 1176.7 255.344C1175.64 254.688 1174.82 253.773 1174.24 252.599C1173.67 251.42 1173.38 250.047 1173.38 248.483C1173.38 246.919 1173.67 245.54 1174.24 244.347C1174.82 243.147 1175.62 242.212 1176.65 241.543C1177.68 240.866 1178.89 240.528 1180.27 240.528C1181.06 240.528 1181.85 240.661 1182.62 240.926C1183.4 241.191 1184.1 241.622 1184.74 242.219C1185.38 242.809 1185.88 243.591 1186.26 244.565C1186.64 245.54 1186.83 246.74 1186.83 248.165V249.159H1175.06V247.131H1184.44C1184.44 246.269 1184.27 245.5 1183.92 244.824C1183.59 244.148 1183.1 243.614 1182.47 243.223C1181.85 242.832 1181.11 242.636 1180.27 242.636C1179.33 242.636 1178.52 242.868 1177.84 243.332C1177.16 243.79 1176.64 244.386 1176.28 245.122C1175.91 245.858 1175.73 246.647 1175.73 247.489V248.841C1175.73 249.994 1175.93 250.972 1176.33 251.774C1176.73 252.57 1177.29 253.176 1178.01 253.594C1178.72 254.005 1179.56 254.21 1180.5 254.21C1181.12 254.21 1181.68 254.124 1182.17 253.952C1182.68 253.773 1183.11 253.508 1183.48 253.156C1183.84 252.798 1184.12 252.354 1184.32 251.824L1186.59 252.46C1186.35 253.229 1185.95 253.905 1185.39 254.489C1184.82 255.065 1184.13 255.516 1183.3 255.841C1182.47 256.159 1181.54 256.318 1180.5 256.318ZM1190.4 256V240.727H1192.66V243.114H1192.86C1193.18 242.298 1193.7 241.665 1194.4 241.214C1195.11 240.757 1195.97 240.528 1196.96 240.528C1197.97 240.528 1198.81 240.757 1199.48 241.214C1200.15 241.665 1200.68 242.298 1201.06 243.114H1201.22C1201.61 242.325 1202.19 241.698 1202.98 241.234C1203.76 240.764 1204.7 240.528 1205.79 240.528C1207.16 240.528 1208.27 240.956 1209.14 241.811C1210.01 242.66 1210.44 243.982 1210.44 245.778V256H1208.1V245.778C1208.1 244.652 1207.79 243.846 1207.17 243.362C1206.56 242.878 1205.83 242.636 1204.99 242.636C1203.92 242.636 1203.09 242.961 1202.5 243.611C1201.91 244.254 1201.61 245.069 1201.61 246.057V256H1199.23V245.54C1199.23 244.671 1198.95 243.972 1198.38 243.442C1197.82 242.905 1197.09 242.636 1196.2 242.636C1195.59 242.636 1195.02 242.799 1194.49 243.124C1193.97 243.448 1193.55 243.899 1193.22 244.476C1192.9 245.046 1192.74 245.705 1192.74 246.455V256H1190.4ZM1220.94 256.318C1219.56 256.318 1218.35 255.99 1217.31 255.334C1216.27 254.678 1215.47 253.759 1214.88 252.58C1214.31 251.4 1214.02 250.021 1214.02 248.443C1214.02 246.852 1214.31 245.464 1214.88 244.277C1215.47 243.09 1216.27 242.169 1217.31 241.513C1218.35 240.857 1219.56 240.528 1220.94 240.528C1222.32 240.528 1223.52 240.857 1224.56 241.513C1225.6 242.169 1226.41 243.09 1226.98 244.277C1227.57 245.464 1227.86 246.852 1227.86 248.443C1227.86 250.021 1227.57 251.4 1226.98 252.58C1226.41 253.759 1225.6 254.678 1224.56 255.334C1223.52 255.99 1222.32 256.318 1220.94 256.318ZM1220.94 254.21C1221.99 254.21 1222.85 253.942 1223.52 253.405C1224.2 252.868 1224.7 252.162 1225.02 251.287C1225.35 250.412 1225.51 249.464 1225.51 248.443C1225.51 247.422 1225.35 246.471 1225.02 245.589C1224.7 244.708 1224.2 243.995 1223.52 243.452C1222.85 242.908 1221.99 242.636 1220.94 242.636C1219.89 242.636 1219.03 242.908 1218.35 243.452C1217.68 243.995 1217.18 244.708 1216.85 245.589C1216.53 246.471 1216.36 247.422 1216.36 248.443C1216.36 249.464 1216.53 250.412 1216.85 251.287C1217.18 252.162 1217.68 252.868 1218.35 253.405C1219.03 253.942 1219.89 254.21 1220.94 254.21ZM1243.38 240.727L1237.73 256H1235.35L1229.7 240.727H1232.25L1236.46 252.898H1236.62L1240.84 240.727H1243.38ZM1252.34 256.318C1250.86 256.318 1249.6 255.993 1248.53 255.344C1247.47 254.688 1246.65 253.773 1246.07 252.599C1245.5 251.42 1245.22 250.047 1245.22 248.483C1245.22 246.919 1245.5 245.54 1246.07 244.347C1246.65 243.147 1247.45 242.212 1248.48 241.543C1249.51 240.866 1250.72 240.528 1252.1 240.528C1252.89 240.528 1253.68 240.661 1254.45 240.926C1255.23 241.191 1255.94 241.622 1256.57 242.219C1257.21 242.809 1257.72 243.591 1258.09 244.565C1258.47 245.54 1258.66 246.74 1258.66 248.165V249.159H1246.89V247.131H1256.27C1256.27 246.269 1256.1 245.5 1255.76 244.824C1255.42 244.148 1254.93 243.614 1254.31 243.223C1253.68 242.832 1252.95 242.636 1252.1 242.636C1251.16 242.636 1250.35 242.868 1249.67 243.332C1249 243.79 1248.48 244.386 1248.11 245.122C1247.75 245.858 1247.56 246.647 1247.56 247.489V248.841C1247.56 249.994 1247.76 250.972 1248.16 251.774C1248.56 252.57 1249.12 253.176 1249.84 253.594C1250.56 254.005 1251.39 254.21 1252.34 254.21C1252.95 254.21 1253.51 254.124 1254.01 253.952C1254.51 253.773 1254.94 253.508 1255.31 253.156C1255.67 252.798 1255.96 252.354 1256.15 251.824L1258.42 252.46C1258.18 253.229 1257.78 253.905 1257.22 254.489C1256.65 255.065 1255.96 255.516 1255.13 255.841C1254.3 256.159 1253.37 256.318 1252.34 256.318Z" fill="black"/>
<path d="M1046.75 256H1040.47V235.636H1047.03C1049 235.636 1050.69 236.044 1052.1 236.859C1053.5 237.668 1054.58 238.831 1055.33 240.349C1056.08 241.861 1056.45 243.67 1056.45 245.778C1056.45 247.9 1056.08 249.726 1055.32 251.257C1054.57 252.782 1053.46 253.955 1052.02 254.777C1050.57 255.592 1048.82 256 1046.75 256ZM1042.93 253.812H1046.59C1048.27 253.812 1049.67 253.488 1050.78 252.838C1051.88 252.188 1052.71 251.264 1053.25 250.064C1053.8 248.864 1054.07 247.436 1054.07 245.778C1054.07 244.134 1053.8 242.719 1053.26 241.533C1052.73 240.339 1051.92 239.425 1050.86 238.788C1049.79 238.145 1048.46 237.824 1046.87 237.824H1042.93V253.812ZM1066.48 256.318C1065.1 256.318 1063.89 255.99 1062.85 255.334C1061.81 254.678 1061.01 253.759 1060.42 252.58C1059.85 251.4 1059.56 250.021 1059.56 248.443C1059.56 246.852 1059.85 245.464 1060.42 244.277C1061.01 243.09 1061.81 242.169 1062.85 241.513C1063.89 240.857 1065.1 240.528 1066.48 240.528C1067.86 240.528 1069.06 240.857 1070.1 241.513C1071.14 242.169 1071.95 243.09 1072.52 244.277C1073.11 245.464 1073.4 246.852 1073.4 248.443C1073.4 250.021 1073.11 251.4 1072.52 252.58C1071.95 253.759 1071.14 254.678 1070.1 255.334C1069.06 255.99 1067.86 256.318 1066.48 256.318ZM1066.48 254.21C1067.52 254.21 1068.39 253.942 1069.06 253.405C1069.74 252.868 1070.24 252.162 1070.56 251.287C1070.89 250.412 1071.05 249.464 1071.05 248.443C1071.05 247.422 1070.89 246.471 1070.56 245.589C1070.24 244.708 1069.74 243.995 1069.06 243.452C1068.39 242.908 1067.52 242.636 1066.48 242.636C1065.43 242.636 1064.57 242.908 1063.89 243.452C1063.22 243.995 1062.72 244.708 1062.39 245.589C1062.07 246.471 1061.9 247.422 1061.9 248.443C1061.9 249.464 1062.07 250.412 1062.39 251.287C1062.72 252.162 1063.22 252.868 1063.89 253.405C1064.57 253.942 1065.43 254.21 1066.48 254.21ZM1079.33 246.812V256H1076.98V240.727H1079.25V243.114H1079.45C1079.8 242.338 1080.35 241.715 1081.08 241.244C1081.81 240.767 1082.75 240.528 1083.9 240.528C1084.93 240.528 1085.84 240.741 1086.61 241.165C1087.39 241.582 1087.99 242.219 1088.42 243.074C1088.86 243.922 1089.07 244.996 1089.07 246.295V256H1086.72V246.455C1086.72 245.255 1086.41 244.32 1085.79 243.651C1085.17 242.974 1084.31 242.636 1083.22 242.636C1082.48 242.636 1081.81 242.799 1081.22 243.124C1080.63 243.448 1080.17 243.922 1079.83 244.545C1079.5 245.169 1079.33 245.924 1079.33 246.812ZM1099.76 256.318C1098.29 256.318 1097.02 255.993 1095.95 255.344C1094.89 254.688 1094.07 253.773 1093.5 252.599C1092.93 251.42 1092.64 250.047 1092.64 248.483C1092.64 246.919 1092.93 245.54 1093.5 244.347C1094.07 243.147 1094.88 242.212 1095.9 241.543C1096.94 240.866 1098.14 240.528 1099.52 240.528C1100.32 240.528 1101.1 240.661 1101.88 240.926C1102.66 241.191 1103.36 241.622 1104 242.219C1104.63 242.809 1105.14 243.591 1105.52 244.565C1105.9 245.54 1106.09 246.74 1106.09 248.165V249.159H1094.31V247.131H1103.7C1103.7 246.269 1103.53 245.5 1103.18 244.824C1102.84 244.148 1102.36 243.614 1101.73 243.223C1101.11 242.832 1100.37 242.636 1099.52 242.636C1098.59 242.636 1097.78 242.868 1097.1 243.332C1096.42 243.79 1095.9 244.386 1095.54 245.122C1095.17 245.858 1094.99 246.647 1094.99 247.489V248.841C1094.99 249.994 1095.19 250.972 1095.59 251.774C1095.99 252.57 1096.55 253.176 1097.27 253.594C1097.98 254.005 1098.81 254.21 1099.76 254.21C1100.38 254.21 1100.94 254.124 1101.43 253.952C1101.94 253.773 1102.37 253.508 1102.74 253.156C1103.1 252.798 1103.38 252.354 1103.58 251.824L1105.85 252.46C1105.61 253.229 1105.21 253.905 1104.64 254.489C1104.08 255.065 1103.38 255.516 1102.56 255.841C1101.73 256.159 1100.8 256.318 1099.76 256.318Z" fill="black"/>
<rect x="75" y="299" width="1234" height="660" fill="#F0F0F0"/>
</g>
<defs>
<clipPath id="clip0_2_70">
<rect width="1440" height="1293" fill="white"/>
</clipPath>
</defs>
</svg>
