<svg width="1440" height="1024" viewBox="0 0 1440 1024" fill="none" xmlns="http://www.w3.org/2000/svg">
<rect width="1440" height="1024" fill="white"/>
<rect x="666" y="228" width="564" height="580" fill="#D9D9D9"/>
<path d="M917.466 522V501.636H929.676V503.824H919.932V510.705H928.761V512.892H919.932V522H917.466ZM938.665 522.318C937.286 522.318 936.076 521.99 935.036 521.334C934.001 520.678 933.193 519.759 932.609 518.58C932.033 517.4 931.744 516.021 931.744 514.443C931.744 512.852 932.033 511.464 932.609 510.277C933.193 509.09 934.001 508.169 935.036 507.513C936.076 506.857 937.286 506.528 938.665 506.528C940.044 506.528 941.25 506.857 942.284 507.513C943.325 508.169 944.134 509.09 944.71 510.277C945.294 511.464 945.585 512.852 945.585 514.443C945.585 516.021 945.294 517.4 944.71 518.58C944.134 519.759 943.325 520.678 942.284 521.334C941.25 521.99 940.044 522.318 938.665 522.318ZM938.665 520.21C939.712 520.21 940.574 519.942 941.25 519.405C941.926 518.868 942.427 518.162 942.751 517.287C943.076 516.412 943.239 515.464 943.239 514.443C943.239 513.422 943.076 512.471 942.751 511.589C942.427 510.708 941.926 509.995 941.25 509.452C940.574 508.908 939.712 508.636 938.665 508.636C937.617 508.636 936.756 508.908 936.08 509.452C935.403 509.995 934.903 510.708 934.578 511.589C934.253 512.471 934.091 513.422 934.091 514.443C934.091 515.464 934.253 516.412 934.578 517.287C934.903 518.162 935.403 518.868 936.08 519.405C936.756 519.942 937.617 520.21 938.665 520.21ZM949.167 522V506.727H951.434V509.034H951.593C951.872 508.278 952.376 507.665 953.105 507.195C953.834 506.724 954.656 506.489 955.571 506.489C955.743 506.489 955.958 506.492 956.217 506.499C956.475 506.505 956.671 506.515 956.804 506.528V508.915C956.724 508.895 956.542 508.865 956.257 508.825C955.978 508.779 955.683 508.756 955.372 508.756C954.629 508.756 953.967 508.911 953.383 509.223C952.806 509.528 952.349 509.952 952.011 510.496C951.68 511.033 951.514 511.646 951.514 512.335V522H949.167ZM959.585 522V506.727H961.852V509.114H962.051C962.369 508.298 962.883 507.665 963.592 507.214C964.302 506.757 965.153 506.528 966.148 506.528C967.155 506.528 967.994 506.757 968.663 507.214C969.339 507.665 969.866 508.298 970.244 509.114H970.403C970.795 508.325 971.381 507.698 972.163 507.234C972.946 506.764 973.884 506.528 974.977 506.528C976.343 506.528 977.46 506.956 978.328 507.811C979.196 508.66 979.631 509.982 979.631 511.778V522H977.284V511.778C977.284 510.652 976.976 509.846 976.359 509.362C975.743 508.878 975.017 508.636 974.182 508.636C973.108 508.636 972.276 508.961 971.686 509.611C971.096 510.254 970.801 511.069 970.801 512.057V522H968.415V511.54C968.415 510.671 968.133 509.972 967.57 509.442C967.006 508.905 966.28 508.636 965.392 508.636C964.782 508.636 964.212 508.799 963.682 509.124C963.158 509.448 962.734 509.899 962.409 510.476C962.091 511.046 961.932 511.705 961.932 512.455V522H959.585Z" fill="black"/>
<rect x="152" y="228" width="444" height="580" fill="#D9D9D9"/>
<path d="M338.932 507.636V528H336.466V507.636H338.932ZM343.558 528V512.727H345.825V515.114H346.024C346.342 514.298 346.856 513.665 347.565 513.214C348.274 512.757 349.126 512.528 350.12 512.528C351.128 512.528 351.967 512.757 352.636 513.214C353.312 513.665 353.839 514.298 354.217 515.114H354.376C354.767 514.325 355.354 513.698 356.136 513.234C356.918 512.764 357.856 512.528 358.95 512.528C360.315 512.528 361.432 512.956 362.301 513.811C363.169 514.66 363.603 515.982 363.603 517.778V528H361.257V517.778C361.257 516.652 360.949 515.846 360.332 515.362C359.716 514.878 358.99 514.636 358.154 514.636C357.081 514.636 356.249 514.961 355.659 515.611C355.069 516.254 354.774 517.069 354.774 518.057V528H352.387V517.54C352.387 516.671 352.106 515.972 351.542 515.442C350.979 514.905 350.253 514.636 349.365 514.636C348.755 514.636 348.185 514.799 347.654 515.124C347.131 515.448 346.707 515.899 346.382 516.476C346.064 517.046 345.904 517.705 345.904 518.455V528H343.558ZM372.388 528.358C371.42 528.358 370.542 528.176 369.753 527.811C368.964 527.44 368.338 526.906 367.874 526.21C367.41 525.508 367.178 524.659 367.178 523.665C367.178 522.79 367.35 522.08 367.695 521.537C368.04 520.987 368.5 520.556 369.077 520.244C369.654 519.933 370.29 519.701 370.986 519.548C371.689 519.389 372.395 519.263 373.104 519.17C374.032 519.051 374.784 518.962 375.361 518.902C375.944 518.836 376.369 518.726 376.634 518.574C376.906 518.421 377.042 518.156 377.042 517.778V517.699C377.042 516.718 376.773 515.955 376.236 515.412C375.706 514.868 374.9 514.597 373.82 514.597C372.7 514.597 371.821 514.842 371.185 515.332C370.549 515.823 370.101 516.347 369.843 516.903L367.615 516.108C368.013 515.18 368.543 514.457 369.206 513.94C369.876 513.417 370.605 513.052 371.394 512.847C372.189 512.634 372.971 512.528 373.74 512.528C374.231 512.528 374.794 512.588 375.431 512.707C376.074 512.82 376.694 513.055 377.29 513.413C377.893 513.771 378.394 514.312 378.792 515.034C379.189 515.757 379.388 516.724 379.388 517.938V528H377.042V525.932H376.922C376.763 526.263 376.498 526.618 376.127 526.996C375.756 527.374 375.262 527.695 374.645 527.96C374.029 528.225 373.276 528.358 372.388 528.358ZM372.746 526.25C373.674 526.25 374.456 526.068 375.093 525.703C375.736 525.339 376.22 524.868 376.544 524.291C376.876 523.714 377.042 523.108 377.042 522.472V520.324C376.942 520.443 376.723 520.553 376.385 520.652C376.054 520.745 375.669 520.828 375.232 520.901C374.801 520.967 374.38 521.027 373.969 521.08C373.565 521.126 373.237 521.166 372.985 521.199C372.375 521.278 371.805 521.408 371.275 521.587C370.751 521.759 370.327 522.021 370.002 522.372C369.684 522.717 369.525 523.187 369.525 523.784C369.525 524.599 369.826 525.216 370.429 525.634C371.039 526.045 371.811 526.25 372.746 526.25ZM389.836 534.045C388.702 534.045 387.728 533.9 386.913 533.608C386.097 533.323 385.418 532.945 384.874 532.474C384.337 532.01 383.91 531.513 383.592 530.983L385.461 529.67C385.673 529.949 385.942 530.267 386.266 530.625C386.591 530.99 387.035 531.304 387.599 531.57C388.169 531.841 388.915 531.977 389.836 531.977C391.069 531.977 392.086 531.679 392.888 531.082C393.691 530.486 394.092 529.551 394.092 528.278V525.176H393.893C393.72 525.455 393.475 525.799 393.157 526.21C392.845 526.615 392.395 526.976 391.805 527.294C391.221 527.606 390.433 527.761 389.438 527.761C388.205 527.761 387.098 527.47 386.117 526.886C385.143 526.303 384.371 525.455 383.8 524.341C383.237 523.227 382.955 521.875 382.955 520.284C382.955 518.72 383.23 517.357 383.781 516.197C384.331 515.031 385.096 514.129 386.077 513.493C387.058 512.85 388.192 512.528 389.478 512.528C390.472 512.528 391.261 512.694 391.844 513.026C392.434 513.35 392.885 513.722 393.197 514.139C393.515 514.55 393.76 514.888 393.933 515.153H394.171V512.727H396.438V528.438C396.438 529.75 396.14 530.817 395.543 531.639C394.953 532.468 394.158 533.074 393.157 533.459C392.163 533.85 391.056 534.045 389.836 534.045ZM389.756 525.653C390.698 525.653 391.493 525.438 392.143 525.007C392.792 524.576 393.286 523.956 393.624 523.148C393.962 522.339 394.131 521.371 394.131 520.244C394.131 519.144 393.966 518.173 393.634 517.331C393.303 516.489 392.812 515.83 392.163 515.352C391.513 514.875 390.711 514.636 389.756 514.636C388.762 514.636 387.933 514.888 387.271 515.392C386.614 515.896 386.121 516.572 385.789 517.42C385.464 518.269 385.302 519.21 385.302 520.244C385.302 521.305 385.468 522.243 385.799 523.058C386.137 523.867 386.634 524.503 387.29 524.967C387.953 525.425 388.775 525.653 389.756 525.653ZM407.137 528.318C405.665 528.318 404.396 527.993 403.329 527.344C402.268 526.688 401.45 525.773 400.873 524.599C400.303 523.42 400.018 522.047 400.018 520.483C400.018 518.919 400.303 517.54 400.873 516.347C401.45 515.147 402.252 514.212 403.279 513.543C404.313 512.866 405.52 512.528 406.898 512.528C407.694 512.528 408.479 512.661 409.255 512.926C410.031 513.191 410.737 513.622 411.373 514.219C412.009 514.809 412.516 515.591 412.894 516.565C413.272 517.54 413.461 518.74 413.461 520.165V521.159H401.688V519.131H411.075C411.075 518.269 410.902 517.5 410.558 516.824C410.219 516.148 409.736 515.614 409.106 515.223C408.483 514.832 407.747 514.636 406.898 514.636C405.964 514.636 405.155 514.868 404.472 515.332C403.796 515.79 403.276 516.386 402.911 517.122C402.547 517.858 402.364 518.647 402.364 519.489V520.841C402.364 521.994 402.563 522.972 402.961 523.774C403.365 524.57 403.925 525.176 404.641 525.594C405.357 526.005 406.189 526.21 407.137 526.21C407.754 526.21 408.31 526.124 408.808 525.952C409.311 525.773 409.746 525.508 410.11 525.156C410.475 524.798 410.756 524.354 410.955 523.824L413.222 524.46C412.984 525.229 412.583 525.905 412.019 526.489C411.456 527.065 410.76 527.516 409.931 527.841C409.103 528.159 408.171 528.318 407.137 528.318Z" fill="black"/>
</svg>
