<svg width="1363" height="163" viewBox="0 0 1363 163" fill="none" xmlns="http://www.w3.org/2000/svg">
<path d="M0 15C0 6.71573 6.71573 0 15 0H37V163H15C6.71573 163 0 156.284 0 148V15Z" fill="#5B5B5B"/>
<rect width="1097" height="163" transform="translate(37)" fill="#F0F0F0"/>
<path d="M101.906 53.9219L94.3945 51.2383V48.0859L104.602 52.375V54.6367L101.906 53.9219ZM94.3945 56.1719L101.918 53.4297L104.602 52.7852V55.0352L94.3945 59.3242V56.1719ZM118.137 61H114.422L114.445 58.2578H118.137C119.059 58.2578 119.836 58.0508 120.469 57.6367C121.102 57.2148 121.578 56.6016 121.898 55.7969C122.227 54.9922 122.391 54.0195 122.391 52.8789V52.0469C122.391 51.1719 122.297 50.4023 122.109 49.7383C121.93 49.0742 121.66 48.5156 121.301 48.0625C120.941 47.6094 120.5 47.2695 119.977 47.043C119.453 46.8086 118.852 46.6914 118.172 46.6914H114.352V43.9375H118.172C119.312 43.9375 120.355 44.1328 121.301 44.5234C122.254 44.9062 123.078 45.457 123.773 46.1758C124.469 46.8945 125.004 47.7539 125.379 48.7539C125.762 49.7461 125.953 50.8516 125.953 52.0703V52.8789C125.953 54.0898 125.762 55.1953 125.379 56.1953C125.004 57.1953 124.469 58.0547 123.773 58.7734C123.086 59.4844 122.262 60.0352 121.301 60.4258C120.348 60.8086 119.293 61 118.137 61ZM116.414 43.9375V61H112.898V43.9375H116.414ZM131.859 48.3203V61H128.473V48.3203H131.859ZM128.262 45.0156C128.262 44.5234 128.434 44.1172 128.777 43.7969C129.121 43.4766 129.582 43.3164 130.16 43.3164C130.73 43.3164 131.188 43.4766 131.531 43.7969C131.883 44.1172 132.059 44.5234 132.059 45.0156C132.059 45.5078 131.883 45.9141 131.531 46.2344C131.188 46.5547 130.73 46.7148 130.16 46.7148C129.582 46.7148 129.121 46.5547 128.777 46.2344C128.434 45.9141 128.262 45.5078 128.262 45.0156ZM141.504 57.4961C141.504 57.2539 141.434 57.0352 141.293 56.8398C141.152 56.6445 140.891 56.4648 140.508 56.3008C140.133 56.1289 139.59 55.9727 138.879 55.832C138.238 55.6914 137.641 55.5156 137.086 55.3047C136.539 55.0859 136.062 54.8242 135.656 54.5195C135.258 54.2148 134.945 53.8555 134.719 53.4414C134.492 53.0195 134.379 52.5391 134.379 52C134.379 51.4688 134.492 50.9688 134.719 50.5C134.953 50.0312 135.285 49.6172 135.715 49.2578C136.152 48.8906 136.684 48.6055 137.309 48.4023C137.941 48.1914 138.652 48.0859 139.441 48.0859C140.543 48.0859 141.488 48.2617 142.277 48.6133C143.074 48.9648 143.684 49.4492 144.105 50.0664C144.535 50.6758 144.75 51.3711 144.75 52.1523H141.375C141.375 51.8242 141.305 51.5312 141.164 51.2734C141.031 51.0078 140.82 50.8008 140.531 50.6523C140.25 50.4961 139.883 50.418 139.43 50.418C139.055 50.418 138.73 50.4844 138.457 50.6172C138.184 50.7422 137.973 50.9141 137.824 51.1328C137.684 51.3438 137.613 51.5781 137.613 51.8359C137.613 52.0312 137.652 52.207 137.73 52.3633C137.816 52.5117 137.953 52.6484 138.141 52.7734C138.328 52.8984 138.57 53.0156 138.867 53.125C139.172 53.2266 139.547 53.3203 139.992 53.4062C140.906 53.5938 141.723 53.8398 142.441 54.1445C143.16 54.4414 143.73 54.8477 144.152 55.3633C144.574 55.8711 144.785 56.5391 144.785 57.3672C144.785 57.9297 144.66 58.4453 144.41 58.9141C144.16 59.3828 143.801 59.793 143.332 60.1445C142.863 60.4883 142.301 60.7578 141.645 60.9531C140.996 61.1406 140.266 61.2344 139.453 61.2344C138.273 61.2344 137.273 61.0234 136.453 60.6016C135.641 60.1797 135.023 59.6445 134.602 58.9961C134.188 58.3398 133.98 57.668 133.98 56.9805H137.18C137.195 57.4414 137.312 57.8125 137.531 58.0938C137.758 58.375 138.043 58.5781 138.387 58.7031C138.738 58.8281 139.117 58.8906 139.523 58.8906C139.961 58.8906 140.324 58.832 140.613 58.7148C140.902 58.5898 141.121 58.4258 141.27 58.2227C141.426 58.0117 141.504 57.7695 141.504 57.4961ZM150.27 43V61H146.895V43H150.27ZM149.789 54.2148H148.863C148.871 53.332 148.988 52.5195 149.215 51.7773C149.441 51.0273 149.766 50.3789 150.188 49.832C150.609 49.2773 151.113 48.8477 151.699 48.543C152.293 48.2383 152.949 48.0859 153.668 48.0859C154.293 48.0859 154.859 48.1758 155.367 48.3555C155.883 48.5273 156.324 48.8086 156.691 49.1992C157.066 49.582 157.355 50.0859 157.559 50.7109C157.762 51.3359 157.863 52.0938 157.863 52.9844V61H154.465V52.9609C154.465 52.3984 154.383 51.957 154.219 51.6367C154.062 51.3086 153.832 51.0781 153.527 50.9453C153.23 50.8047 152.863 50.7344 152.426 50.7344C151.941 50.7344 151.527 50.8242 151.184 51.0039C150.848 51.1836 150.578 51.4336 150.375 51.7539C150.172 52.0664 150.023 52.4336 149.93 52.8555C149.836 53.2773 149.789 53.7305 149.789 54.2148ZM165.879 61H162.164L162.188 58.2578H165.879C166.801 58.2578 167.578 58.0508 168.211 57.6367C168.844 57.2148 169.32 56.6016 169.641 55.7969C169.969 54.9922 170.133 54.0195 170.133 52.8789V52.0469C170.133 51.1719 170.039 50.4023 169.852 49.7383C169.672 49.0742 169.402 48.5156 169.043 48.0625C168.684 47.6094 168.242 47.2695 167.719 47.043C167.195 46.8086 166.594 46.6914 165.914 46.6914H162.094V43.9375H165.914C167.055 43.9375 168.098 44.1328 169.043 44.5234C169.996 44.9062 170.82 45.457 171.516 46.1758C172.211 46.8945 172.746 47.7539 173.121 48.7539C173.504 49.7461 173.695 50.8516 173.695 52.0703V52.8789C173.695 54.0898 173.504 55.1953 173.121 56.1953C172.746 57.1953 172.211 58.0547 171.516 58.7734C170.828 59.4844 170.004 60.0352 169.043 60.4258C168.09 60.8086 167.035 61 165.879 61ZM164.156 43.9375V61H160.641V43.9375H164.156ZM179.602 48.3203V61H176.215V48.3203H179.602ZM176.004 45.0156C176.004 44.5234 176.176 44.1172 176.52 43.7969C176.863 43.4766 177.324 43.3164 177.902 43.3164C178.473 43.3164 178.93 43.4766 179.273 43.7969C179.625 44.1172 179.801 44.5234 179.801 45.0156C179.801 45.5078 179.625 45.9141 179.273 46.2344C178.93 46.5547 178.473 46.7148 177.902 46.7148C177.324 46.7148 176.863 46.5547 176.52 46.2344C176.176 45.9141 176.004 45.5078 176.004 45.0156ZM189.246 57.4961C189.246 57.2539 189.176 57.0352 189.035 56.8398C188.895 56.6445 188.633 56.4648 188.25 56.3008C187.875 56.1289 187.332 55.9727 186.621 55.832C185.98 55.6914 185.383 55.5156 184.828 55.3047C184.281 55.0859 183.805 54.8242 183.398 54.5195C183 54.2148 182.688 53.8555 182.461 53.4414C182.234 53.0195 182.121 52.5391 182.121 52C182.121 51.4688 182.234 50.9688 182.461 50.5C182.695 50.0312 183.027 49.6172 183.457 49.2578C183.895 48.8906 184.426 48.6055 185.051 48.4023C185.684 48.1914 186.395 48.0859 187.184 48.0859C188.285 48.0859 189.23 48.2617 190.02 48.6133C190.816 48.9648 191.426 49.4492 191.848 50.0664C192.277 50.6758 192.492 51.3711 192.492 52.1523H189.117C189.117 51.8242 189.047 51.5312 188.906 51.2734C188.773 51.0078 188.562 50.8008 188.273 50.6523C187.992 50.4961 187.625 50.418 187.172 50.418C186.797 50.418 186.473 50.4844 186.199 50.6172C185.926 50.7422 185.715 50.9141 185.566 51.1328C185.426 51.3438 185.355 51.5781 185.355 51.8359C185.355 52.0312 185.395 52.207 185.473 52.3633C185.559 52.5117 185.695 52.6484 185.883 52.7734C186.07 52.8984 186.312 53.0156 186.609 53.125C186.914 53.2266 187.289 53.3203 187.734 53.4062C188.648 53.5938 189.465 53.8398 190.184 54.1445C190.902 54.4414 191.473 54.8477 191.895 55.3633C192.316 55.8711 192.527 56.5391 192.527 57.3672C192.527 57.9297 192.402 58.4453 192.152 58.9141C191.902 59.3828 191.543 59.793 191.074 60.1445C190.605 60.4883 190.043 60.7578 189.387 60.9531C188.738 61.1406 188.008 61.2344 187.195 61.2344C186.016 61.2344 185.016 61.0234 184.195 60.6016C183.383 60.1797 182.766 59.6445 182.344 58.9961C181.93 58.3398 181.723 57.668 181.723 56.9805H184.922C184.938 57.4414 185.055 57.8125 185.273 58.0938C185.5 58.375 185.785 58.5781 186.129 58.7031C186.48 58.8281 186.859 58.8906 187.266 58.8906C187.703 58.8906 188.066 58.832 188.355 58.7148C188.645 58.5898 188.863 58.4258 189.012 58.2227C189.168 58.0117 189.246 57.7695 189.246 57.4961ZM199.957 58.5977C200.371 58.5977 200.738 58.5195 201.059 58.3633C201.379 58.1992 201.629 57.9727 201.809 57.6836C201.996 57.3867 202.094 57.0391 202.102 56.6406H205.277C205.27 57.5312 205.031 58.3242 204.562 59.0195C204.094 59.707 203.465 60.25 202.676 60.6484C201.887 61.0391 201.004 61.2344 200.027 61.2344C199.043 61.2344 198.184 61.0703 197.449 60.7422C196.723 60.4141 196.117 59.9609 195.633 59.3828C195.148 58.7969 194.785 58.1172 194.543 57.3438C194.301 56.5625 194.18 55.7266 194.18 54.8359V54.4961C194.18 53.5977 194.301 52.7617 194.543 51.9883C194.785 51.207 195.148 50.5273 195.633 49.9492C196.117 49.3633 196.723 48.9062 197.449 48.5781C198.176 48.25 199.027 48.0859 200.004 48.0859C201.043 48.0859 201.953 48.2852 202.734 48.6836C203.523 49.082 204.141 49.6523 204.586 50.3945C205.039 51.1289 205.27 52 205.277 53.0078H202.102C202.094 52.5859 202.004 52.2031 201.832 51.8594C201.668 51.5156 201.426 51.2422 201.105 51.0391C200.793 50.8281 200.406 50.7227 199.945 50.7227C199.453 50.7227 199.051 50.8281 198.738 51.0391C198.426 51.2422 198.184 51.5234 198.012 51.8828C197.84 52.2344 197.719 52.6367 197.648 53.0898C197.586 53.5352 197.555 54.0039 197.555 54.4961V54.8359C197.555 55.3281 197.586 55.8008 197.648 56.2539C197.711 56.707 197.828 57.1094 198 57.4609C198.18 57.8125 198.426 58.0898 198.738 58.293C199.051 58.4961 199.457 58.5977 199.957 58.5977ZM206.695 54.7891V54.543C206.695 53.6133 206.828 52.7578 207.094 51.9766C207.359 51.1875 207.746 50.5039 208.254 49.9258C208.762 49.3477 209.387 48.8984 210.129 48.5781C210.871 48.25 211.723 48.0859 212.684 48.0859C213.645 48.0859 214.5 48.25 215.25 48.5781C216 48.8984 216.629 49.3477 217.137 49.9258C217.652 50.5039 218.043 51.1875 218.309 51.9766C218.574 52.7578 218.707 53.6133 218.707 54.543V54.7891C218.707 55.7109 218.574 56.5664 218.309 57.3555C218.043 58.1367 217.652 58.8203 217.137 59.4062C216.629 59.9844 216.004 60.4336 215.262 60.7539C214.52 61.0742 213.668 61.2344 212.707 61.2344C211.746 61.2344 210.891 61.0742 210.141 60.7539C209.398 60.4336 208.77 59.9844 208.254 59.4062C207.746 58.8203 207.359 58.1367 207.094 57.3555C206.828 56.5664 206.695 55.7109 206.695 54.7891ZM210.07 54.543V54.7891C210.07 55.3203 210.117 55.8164 210.211 56.2773C210.305 56.7383 210.453 57.1445 210.656 57.4961C210.867 57.8398 211.141 58.1094 211.477 58.3047C211.812 58.5 212.223 58.5977 212.707 58.5977C213.176 58.5977 213.578 58.5 213.914 58.3047C214.25 58.1094 214.52 57.8398 214.723 57.4961C214.926 57.1445 215.074 56.7383 215.168 56.2773C215.27 55.8164 215.32 55.3203 215.32 54.7891V54.543C215.32 54.0273 215.27 53.543 215.168 53.0898C215.074 52.6289 214.922 52.2227 214.711 51.8711C214.508 51.5117 214.238 51.2305 213.902 51.0273C213.566 50.8242 213.16 50.7227 212.684 50.7227C212.207 50.7227 211.801 50.8242 211.465 51.0273C211.137 51.2305 210.867 51.5117 210.656 51.8711C210.453 52.2227 210.305 52.6289 210.211 53.0898C210.117 53.543 210.07 54.0273 210.07 54.543ZM224.906 58.5391L227.719 48.3203H231.246L226.969 61H224.836L224.906 58.5391ZM222.973 48.3203L225.797 58.5508L225.855 61H223.711L219.434 48.3203H222.973ZM238.43 61.2344C237.445 61.2344 236.562 61.0781 235.781 60.7656C235 60.4453 234.336 60.0039 233.789 59.4414C233.25 58.8789 232.836 58.2266 232.547 57.4844C232.258 56.7344 232.113 55.9375 232.113 55.0938V54.625C232.113 53.6641 232.25 52.7852 232.523 51.9883C232.797 51.1914 233.188 50.5 233.695 49.9141C234.211 49.3281 234.836 48.8789 235.57 48.5664C236.305 48.2461 237.133 48.0859 238.055 48.0859C238.953 48.0859 239.75 48.2344 240.445 48.5312C241.141 48.8281 241.723 49.25 242.191 49.7969C242.668 50.3438 243.027 51 243.27 51.7656C243.512 52.5234 243.633 53.3672 243.633 54.2969V55.7031H233.555V53.4531H240.316V53.1953C240.316 52.7266 240.23 52.3086 240.059 51.9414C239.895 51.5664 239.645 51.2695 239.309 51.0508C238.973 50.832 238.543 50.7227 238.02 50.7227C237.574 50.7227 237.191 50.8203 236.871 51.0156C236.551 51.2109 236.289 51.4844 236.086 51.8359C235.891 52.1875 235.742 52.6016 235.641 53.0781C235.547 53.5469 235.5 54.0625 235.5 54.625V55.0938C235.5 55.6016 235.57 56.0703 235.711 56.5C235.859 56.9297 236.066 57.3008 236.332 57.6133C236.605 57.9258 236.934 58.168 237.316 58.3398C237.707 58.5117 238.148 58.5977 238.641 58.5977C239.25 58.5977 239.816 58.4805 240.34 58.2461C240.871 58.0039 241.328 57.6406 241.711 57.1562L243.352 58.9375C243.086 59.3203 242.723 59.6875 242.262 60.0391C241.809 60.3906 241.262 60.6797 240.621 60.9062C239.98 61.125 239.25 61.2344 238.43 61.2344ZM248.93 51.0859V61H245.555V48.3203H248.73L248.93 51.0859ZM252.75 48.2383L252.691 51.3672C252.527 51.3438 252.328 51.3242 252.094 51.3086C251.867 51.2852 251.66 51.2734 251.473 51.2734C250.996 51.2734 250.582 51.3359 250.23 51.4609C249.887 51.5781 249.598 51.7539 249.363 51.9883C249.137 52.2227 248.965 52.5078 248.848 52.8438C248.738 53.1797 248.676 53.5625 248.66 53.9922L247.98 53.7812C247.98 52.9609 248.062 52.207 248.227 51.5195C248.391 50.8242 248.629 50.2188 248.941 49.7031C249.262 49.1875 249.652 48.7891 250.113 48.5078C250.574 48.2266 251.102 48.0859 251.695 48.0859C251.883 48.0859 252.074 48.1016 252.27 48.1328C252.465 48.1562 252.625 48.1914 252.75 48.2383ZM258.316 59.5703L261.68 48.3203H265.301L260.203 62.9102C260.094 63.2305 259.945 63.5742 259.758 63.9414C259.578 64.3086 259.332 64.6562 259.02 64.9844C258.715 65.3203 258.328 65.5938 257.859 65.8047C257.398 66.0156 256.832 66.1211 256.16 66.1211C255.84 66.1211 255.578 66.1016 255.375 66.0625C255.172 66.0234 254.93 65.9688 254.648 65.8984V63.4258C254.734 63.4258 254.824 63.4258 254.918 63.4258C255.012 63.4336 255.102 63.4375 255.188 63.4375C255.633 63.4375 255.996 63.3867 256.277 63.2852C256.559 63.1836 256.785 63.0273 256.957 62.8164C257.129 62.6133 257.266 62.3477 257.367 62.0195L258.316 59.5703ZM256.91 48.3203L259.664 57.5078L260.145 61.082L257.848 61.3281L253.289 48.3203H256.91Z" fill="#888888"/>
<path d="M109.219 107.422H100.734V101.07H109.219C110.375 101.07 111.312 100.875 112.031 100.484C112.75 100.094 113.273 99.5547 113.602 98.8672C113.945 98.1641 114.117 97.375 114.117 96.5C114.117 95.5625 113.945 94.6953 113.602 93.8984C113.273 93.1016 112.75 92.4609 112.031 91.9766C111.312 91.4766 110.375 91.2266 109.219 91.2266H103.828V119H95.6016V84.875H109.219C111.953 84.875 114.305 85.375 116.273 86.375C118.258 87.375 119.781 88.75 120.844 90.5C121.906 92.2344 122.438 94.2188 122.438 96.4531C122.438 98.6562 121.906 100.578 120.844 102.219C119.781 103.859 118.258 105.141 116.273 106.062C114.305 106.969 111.953 107.422 109.219 107.422ZM134.461 99.9219V119H126.562V93.6406H133.945L134.461 99.9219ZM141.961 93.4531L141.82 100.789C141.508 100.758 141.086 100.719 140.555 100.672C140.023 100.625 139.578 100.602 139.219 100.602C138.297 100.602 137.5 100.711 136.828 100.93C136.172 101.133 135.625 101.445 135.188 101.867C134.766 102.273 134.453 102.789 134.25 103.414C134.062 104.039 133.977 104.766 133.992 105.594L132.562 104.656C132.562 102.953 132.727 101.406 133.055 100.016C133.398 98.6094 133.883 97.3984 134.508 96.3828C135.133 95.3516 135.891 94.5625 136.781 94.0156C137.672 93.4531 138.672 93.1719 139.781 93.1719C140.172 93.1719 140.555 93.1953 140.93 93.2422C141.32 93.2891 141.664 93.3594 141.961 93.4531ZM142.852 106.578V106.086C142.852 104.227 143.117 102.516 143.648 100.953C144.18 99.375 144.961 98.0078 145.992 96.8516C147.023 95.6953 148.297 94.7969 149.812 94.1562C151.328 93.5 153.078 93.1719 155.062 93.1719C157.062 93.1719 158.82 93.5 160.336 94.1562C161.867 94.7969 163.148 95.6953 164.18 96.8516C165.211 98.0078 165.992 99.375 166.523 100.953C167.055 102.516 167.32 104.227 167.32 106.086V106.578C167.32 108.422 167.055 110.133 166.523 111.711C165.992 113.273 165.211 114.641 164.18 115.812C163.148 116.969 161.875 117.867 160.359 118.508C158.844 119.148 157.094 119.469 155.109 119.469C153.125 119.469 151.367 119.148 149.836 118.508C148.305 117.867 147.023 116.969 145.992 115.812C144.961 114.641 144.18 113.273 143.648 111.711C143.117 110.133 142.852 108.422 142.852 106.578ZM150.75 106.086V106.578C150.75 107.531 150.82 108.422 150.961 109.25C151.102 110.078 151.336 110.805 151.664 111.43C151.992 112.039 152.438 112.516 153 112.859C153.562 113.203 154.266 113.375 155.109 113.375C155.938 113.375 156.625 113.203 157.172 112.859C157.734 112.516 158.18 112.039 158.508 111.43C158.836 110.805 159.07 110.078 159.211 109.25C159.352 108.422 159.422 107.531 159.422 106.578V106.086C159.422 105.164 159.352 104.297 159.211 103.484C159.07 102.656 158.836 101.93 158.508 101.305C158.18 100.664 157.734 100.164 157.172 99.8047C156.609 99.4453 155.906 99.2656 155.062 99.2656C154.234 99.2656 153.539 99.4453 152.977 99.8047C152.43 100.164 151.992 100.664 151.664 101.305C151.336 101.93 151.102 102.656 150.961 103.484C150.82 104.297 150.75 105.164 150.75 106.086ZM184.195 93.6406V99.125H168.914V93.6406H184.195ZM172.125 87.3359H180.023V110.727C180.023 111.398 180.102 111.922 180.258 112.297C180.414 112.656 180.68 112.914 181.055 113.07C181.445 113.211 181.961 113.281 182.602 113.281C183.055 113.281 183.43 113.273 183.727 113.258C184.023 113.227 184.305 113.188 184.57 113.141V118.789C183.898 119.008 183.195 119.172 182.461 119.281C181.727 119.406 180.945 119.469 180.117 119.469C178.43 119.469 176.984 119.203 175.781 118.672C174.594 118.141 173.688 117.305 173.062 116.164C172.438 115.023 172.125 113.539 172.125 111.711V87.3359ZM185.648 106.578V106.086C185.648 104.227 185.914 102.516 186.445 100.953C186.977 99.375 187.758 98.0078 188.789 96.8516C189.82 95.6953 191.094 94.7969 192.609 94.1562C194.125 93.5 195.875 93.1719 197.859 93.1719C199.859 93.1719 201.617 93.5 203.133 94.1562C204.664 94.7969 205.945 95.6953 206.977 96.8516C208.008 98.0078 208.789 99.375 209.32 100.953C209.852 102.516 210.117 104.227 210.117 106.086V106.578C210.117 108.422 209.852 110.133 209.32 111.711C208.789 113.273 208.008 114.641 206.977 115.812C205.945 116.969 204.672 117.867 203.156 118.508C201.641 119.148 199.891 119.469 197.906 119.469C195.922 119.469 194.164 119.148 192.633 118.508C191.102 117.867 189.82 116.969 188.789 115.812C187.758 114.641 186.977 113.273 186.445 111.711C185.914 110.133 185.648 108.422 185.648 106.578ZM193.547 106.086V106.578C193.547 107.531 193.617 108.422 193.758 109.25C193.898 110.078 194.133 110.805 194.461 111.43C194.789 112.039 195.234 112.516 195.797 112.859C196.359 113.203 197.062 113.375 197.906 113.375C198.734 113.375 199.422 113.203 199.969 112.859C200.531 112.516 200.977 112.039 201.305 111.43C201.633 110.805 201.867 110.078 202.008 109.25C202.148 108.422 202.219 107.531 202.219 106.578V106.086C202.219 105.164 202.148 104.297 202.008 103.484C201.867 102.656 201.633 101.93 201.305 101.305C200.977 100.664 200.531 100.164 199.969 99.8047C199.406 99.4453 198.703 99.2656 197.859 99.2656C197.031 99.2656 196.336 99.4453 195.773 99.8047C195.227 100.164 194.789 100.664 194.461 101.305C194.133 101.93 193.898 102.656 193.758 103.484C193.617 104.297 193.547 105.164 193.547 106.086ZM226.992 93.6406V99.125H211.711V93.6406H226.992ZM214.922 87.3359H222.82V110.727C222.82 111.398 222.898 111.922 223.055 112.297C223.211 112.656 223.477 112.914 223.852 113.07C224.242 113.211 224.758 113.281 225.398 113.281C225.852 113.281 226.227 113.273 226.523 113.258C226.82 113.227 227.102 113.188 227.367 113.141V118.789C226.695 119.008 225.992 119.172 225.258 119.281C224.523 119.406 223.742 119.469 222.914 119.469C221.227 119.469 219.781 119.203 218.578 118.672C217.391 118.141 216.484 117.305 215.859 116.164C215.234 115.023 214.922 113.539 214.922 111.711V87.3359ZM237.914 116.023L244.477 93.6406H252.961L242.766 122.773C242.547 123.414 242.258 124.102 241.898 124.836C241.539 125.586 241.047 126.297 240.422 126.969C239.797 127.641 238.992 128.188 238.008 128.609C237.039 129.031 235.836 129.242 234.398 129.242C233.633 129.242 233.07 129.203 232.711 129.125C232.367 129.062 231.836 128.945 231.117 128.773V123.125C231.32 123.125 231.492 123.125 231.633 123.125C231.789 123.125 231.961 123.125 232.148 123.125C232.992 123.125 233.664 123.039 234.164 122.867C234.68 122.695 235.07 122.445 235.336 122.117C235.617 121.789 235.836 121.391 235.992 120.922L237.914 116.023ZM236.25 93.6406L241.242 111.383L242.109 119.75H236.812L227.789 93.6406H236.25ZM262.992 98.5156V128.75H255.094V93.6406H262.453L262.992 98.5156ZM278.555 106.016V106.508C278.555 108.352 278.344 110.062 277.922 111.641C277.5 113.219 276.875 114.594 276.047 115.766C275.219 116.938 274.188 117.852 272.953 118.508C271.734 119.148 270.32 119.469 268.711 119.469C267.195 119.469 265.891 119.133 264.797 118.461C263.703 117.789 262.789 116.859 262.055 115.672C261.32 114.484 260.727 113.125 260.273 111.594C259.82 110.062 259.461 108.445 259.195 106.742V106.109C259.461 104.281 259.82 102.586 260.273 101.023C260.727 99.4453 261.32 98.0703 262.055 96.8984C262.789 95.7266 263.695 94.8125 264.773 94.1562C265.867 93.5 267.172 93.1719 268.688 93.1719C270.297 93.1719 271.711 93.4766 272.93 94.0859C274.164 94.6953 275.195 95.5703 276.023 96.7109C276.867 97.8359 277.5 99.1875 277.922 100.766C278.344 102.344 278.555 104.094 278.555 106.016ZM270.656 106.508V106.016C270.656 105.031 270.586 104.133 270.445 103.32C270.305 102.492 270.078 101.773 269.766 101.164C269.469 100.555 269.07 100.086 268.57 99.7578C268.07 99.4297 267.453 99.2656 266.719 99.2656C265.875 99.2656 265.164 99.3984 264.586 99.6641C264.023 99.9141 263.57 100.305 263.227 100.836C262.898 101.352 262.664 102 262.523 102.781C262.398 103.547 262.344 104.445 262.359 105.477V107.398C262.328 108.586 262.445 109.633 262.711 110.539C262.977 111.43 263.438 112.125 264.094 112.625C264.75 113.125 265.641 113.375 266.766 113.375C267.516 113.375 268.141 113.203 268.641 112.859C269.141 112.5 269.539 112.008 269.836 111.383C270.133 110.742 270.344 110.008 270.469 109.18C270.594 108.352 270.656 107.461 270.656 106.508ZM290.414 93.6406V119H282.492V93.6406H290.414ZM282.023 87.1016C282.023 85.9766 282.43 85.0547 283.242 84.3359C284.055 83.6172 285.109 83.2578 286.406 83.2578C287.703 83.2578 288.758 83.6172 289.57 84.3359C290.383 85.0547 290.789 85.9766 290.789 87.1016C290.789 88.2266 290.383 89.1484 289.57 89.8672C288.758 90.5859 287.703 90.9453 286.406 90.9453C285.109 90.9453 284.055 90.5859 283.242 89.8672C282.43 89.1484 282.023 88.2266 282.023 87.1016ZM303.047 99.0547V119H295.148V93.6406H302.555L303.047 99.0547ZM302.109 105.453L300.258 105.5C300.258 103.562 300.492 101.836 300.961 100.32C301.43 98.7891 302.094 97.4922 302.953 96.4297C303.812 95.3672 304.836 94.5625 306.023 94.0156C307.227 93.4531 308.562 93.1719 310.031 93.1719C311.203 93.1719 312.273 93.3438 313.242 93.6875C314.227 94.0312 315.07 94.5859 315.773 95.3516C316.492 96.1172 317.039 97.1328 317.414 98.3984C317.805 99.6484 318 101.195 318 103.039V119H310.055V103.016C310.055 102 309.914 101.227 309.633 100.695C309.352 100.148 308.945 99.7734 308.414 99.5703C307.883 99.3672 307.234 99.2656 306.469 99.2656C305.656 99.2656 304.969 99.4219 304.406 99.7344C303.844 100.047 303.391 100.484 303.047 101.047C302.719 101.594 302.477 102.242 302.32 102.992C302.18 103.742 302.109 104.562 302.109 105.453ZM338.32 93.6406H345.492V118.016C345.492 120.359 344.953 122.344 343.875 123.969C342.797 125.609 341.289 126.852 339.352 127.695C337.43 128.555 335.18 128.984 332.602 128.984C331.461 128.984 330.297 128.836 329.109 128.539C327.922 128.258 326.812 127.836 325.781 127.273C324.75 126.711 323.883 126.016 323.18 125.188L326.484 120.547C327.125 121.266 327.93 121.875 328.898 122.375C329.867 122.891 331.008 123.148 332.32 123.148C333.461 123.148 334.414 122.945 335.18 122.539C335.961 122.133 336.555 121.539 336.961 120.758C337.367 119.992 337.57 119.062 337.57 117.969V99.6406L338.32 93.6406ZM321.469 106.625V106.133C321.469 104.211 321.703 102.461 322.172 100.883C322.656 99.2891 323.344 97.9219 324.234 96.7812C325.141 95.625 326.234 94.7344 327.516 94.1094C328.797 93.4844 330.242 93.1719 331.852 93.1719C333.586 93.1719 335.008 93.5078 336.117 94.1797C337.242 94.8359 338.141 95.7578 338.812 96.9453C339.5 98.1328 340.031 99.5234 340.406 101.117C340.797 102.695 341.125 104.398 341.391 106.227V106.812C341.125 108.531 340.758 110.156 340.289 111.688C339.836 113.203 339.242 114.547 338.508 115.719C337.773 116.891 336.852 117.812 335.742 118.484C334.648 119.141 333.336 119.469 331.805 119.469C330.211 119.469 328.773 119.148 327.492 118.508C326.227 117.867 325.141 116.969 324.234 115.812C323.344 114.656 322.656 113.297 322.172 111.734C321.703 110.172 321.469 108.469 321.469 106.625ZM329.367 106.133V106.625C329.367 107.578 329.453 108.461 329.625 109.273C329.812 110.086 330.094 110.805 330.469 111.43C330.844 112.039 331.305 112.516 331.852 112.859C332.414 113.203 333.07 113.375 333.82 113.375C334.961 113.375 335.883 113.133 336.586 112.648C337.289 112.164 337.797 111.477 338.109 110.586C338.422 109.695 338.555 108.648 338.508 107.445V105.594C338.539 104.562 338.469 103.656 338.297 102.875C338.125 102.078 337.852 101.414 337.477 100.883C337.117 100.352 336.633 99.9531 336.023 99.6875C335.43 99.4062 334.711 99.2656 333.867 99.2656C333.133 99.2656 332.484 99.4375 331.922 99.7812C331.359 100.125 330.891 100.609 330.516 101.234C330.141 101.844 329.852 102.57 329.648 103.414C329.461 104.242 329.367 105.148 329.367 106.133Z" fill="#1D2126"/>
<path d="M1134 0H1348C1356.28 0 1363 6.71573 1363 15V148C1363 156.284 1356.28 163 1348 163H1134V0Z" fill="#FF7070"/>
<path fill-rule="evenodd" clip-rule="evenodd" d="M1202.75 46.5018C1202.75 45.3973 1203.65 44.5018 1204.75 44.5018H1292.25C1293.35 44.5018 1294.25 45.3973 1294.25 46.5018V116.498C1294.25 117.603 1293.35 118.498 1292.25 118.498H1204.75C1203.65 118.498 1202.75 117.603 1202.75 116.498V46.5018ZM1206.75 48.5018V52.9963H1290.25V48.5018H1206.75ZM1290.25 56.9963H1235.19V114.498H1290.25V56.9963ZM1231.19 114.498V56.9963H1206.75V114.498H1231.19Z" fill="white"/>
<path fill-rule="evenodd" clip-rule="evenodd" d="M1209.72 62.3022C1209.72 61.1976 1210.62 60.3022 1211.72 60.3022H1225.72C1226.83 60.3022 1227.72 61.1976 1227.72 62.3022V81.6974C1227.72 82.802 1226.83 83.6974 1225.72 83.6974H1211.72C1210.62 83.6974 1209.72 82.802 1209.72 81.6974V62.3022ZM1213.72 64.3022V79.6974H1223.72V64.3022H1213.72ZM1239.33 63.1982C1239.33 62.0936 1240.22 61.1982 1241.33 61.1982H1284.25C1285.36 61.1982 1286.25 62.0936 1286.25 63.1982V109.407C1286.25 110.511 1285.36 111.407 1284.25 111.407H1241.33C1240.22 111.407 1239.33 110.511 1239.33 109.407V63.1982ZM1243.33 65.1982V107.407H1282.25V65.1982H1243.33ZM1209.56 93.4381C1209.56 92.3336 1210.46 91.4381 1211.56 91.4381H1220.48C1221.59 91.4381 1222.48 92.3336 1222.48 93.4381C1222.48 94.5427 1221.59 95.4381 1220.48 95.4381H1211.56C1210.46 95.4381 1209.56 94.5427 1209.56 93.4381ZM1209.56 100.438C1209.56 99.3335 1210.46 98.4381 1211.56 98.4381H1226.1C1227.21 98.4381 1228.1 99.3335 1228.1 100.438C1228.1 101.543 1227.21 102.438 1226.1 102.438H1211.56C1210.46 102.438 1209.56 101.543 1209.56 100.438ZM1209.56 107.438C1209.56 106.334 1210.46 105.438 1211.56 105.438H1220.48C1221.59 105.438 1222.48 106.334 1222.48 107.438C1222.48 108.543 1221.59 109.438 1220.48 109.438H1211.56C1210.46 109.438 1209.56 108.543 1209.56 107.438Z" fill="white"/>
</svg>
