<svg width="1363" height="163" viewBox="0 0 1363 163" fill="none" xmlns="http://www.w3.org/2000/svg">
<path d="M0 15C0 6.71573 6.71573 0 15 0H37V163H15C6.71573 163 0 156.284 0 148V15Z" fill="#5B5B5B"/>
<rect width="1097" height="163" transform="translate(37)" fill="#F0F0F0"/>
<path d="M101.906 53.9219L94.3945 51.2383V48.0859L104.602 52.375V54.6367L101.906 53.9219ZM94.3945 56.1719L101.918 53.4297L104.602 52.7852V55.0352L94.3945 59.3242V56.1719ZM118.137 61H114.422L114.445 58.2578H118.137C119.059 58.2578 119.836 58.0508 120.469 57.6367C121.102 57.2148 121.578 56.6016 121.898 55.7969C122.227 54.9922 122.391 54.0195 122.391 52.8789V52.0469C122.391 51.1719 122.297 50.4023 122.109 49.7383C121.93 49.0742 121.66 48.5156 121.301 48.0625C120.941 47.6094 120.5 47.2695 119.977 47.043C119.453 46.8086 118.852 46.6914 118.172 46.6914H114.352V43.9375H118.172C119.312 43.9375 120.355 44.1328 121.301 44.5234C122.254 44.9062 123.078 45.457 123.773 46.1758C124.469 46.8945 125.004 47.7539 125.379 48.7539C125.762 49.7461 125.953 50.8516 125.953 52.0703V52.8789C125.953 54.0898 125.762 55.1953 125.379 56.1953C125.004 57.1953 124.469 58.0547 123.773 58.7734C123.086 59.4844 122.262 60.0352 121.301 60.4258C120.348 60.8086 119.293 61 118.137 61ZM116.414 43.9375V61H112.898V43.9375H116.414ZM131.859 48.3203V61H128.473V48.3203H131.859ZM128.262 45.0156C128.262 44.5234 128.434 44.1172 128.777 43.7969C129.121 43.4766 129.582 43.3164 130.16 43.3164C130.73 43.3164 131.188 43.4766 131.531 43.7969C131.883 44.1172 132.059 44.5234 132.059 45.0156C132.059 45.5078 131.883 45.9141 131.531 46.2344C131.188 46.5547 130.73 46.7148 130.16 46.7148C129.582 46.7148 129.121 46.5547 128.777 46.2344C128.434 45.9141 128.262 45.5078 128.262 45.0156ZM141.504 57.4961C141.504 57.2539 141.434 57.0352 141.293 56.8398C141.152 56.6445 140.891 56.4648 140.508 56.3008C140.133 56.1289 139.59 55.9727 138.879 55.832C138.238 55.6914 137.641 55.5156 137.086 55.3047C136.539 55.0859 136.062 54.8242 135.656 54.5195C135.258 54.2148 134.945 53.8555 134.719 53.4414C134.492 53.0195 134.379 52.5391 134.379 52C134.379 51.4688 134.492 50.9688 134.719 50.5C134.953 50.0312 135.285 49.6172 135.715 49.2578C136.152 48.8906 136.684 48.6055 137.309 48.4023C137.941 48.1914 138.652 48.0859 139.441 48.0859C140.543 48.0859 141.488 48.2617 142.277 48.6133C143.074 48.9648 143.684 49.4492 144.105 50.0664C144.535 50.6758 144.75 51.3711 144.75 52.1523H141.375C141.375 51.8242 141.305 51.5312 141.164 51.2734C141.031 51.0078 140.82 50.8008 140.531 50.6523C140.25 50.4961 139.883 50.418 139.43 50.418C139.055 50.418 138.73 50.4844 138.457 50.6172C138.184 50.7422 137.973 50.9141 137.824 51.1328C137.684 51.3438 137.613 51.5781 137.613 51.8359C137.613 52.0312 137.652 52.207 137.73 52.3633C137.816 52.5117 137.953 52.6484 138.141 52.7734C138.328 52.8984 138.57 53.0156 138.867 53.125C139.172 53.2266 139.547 53.3203 139.992 53.4062C140.906 53.5938 141.723 53.8398 142.441 54.1445C143.16 54.4414 143.73 54.8477 144.152 55.3633C144.574 55.8711 144.785 56.5391 144.785 57.3672C144.785 57.9297 144.66 58.4453 144.41 58.9141C144.16 59.3828 143.801 59.793 143.332 60.1445C142.863 60.4883 142.301 60.7578 141.645 60.9531C140.996 61.1406 140.266 61.2344 139.453 61.2344C138.273 61.2344 137.273 61.0234 136.453 60.6016C135.641 60.1797 135.023 59.6445 134.602 58.9961C134.188 58.3398 133.98 57.668 133.98 56.9805H137.18C137.195 57.4414 137.312 57.8125 137.531 58.0938C137.758 58.375 138.043 58.5781 138.387 58.7031C138.738 58.8281 139.117 58.8906 139.523 58.8906C139.961 58.8906 140.324 58.832 140.613 58.7148C140.902 58.5898 141.121 58.4258 141.27 58.2227C141.426 58.0117 141.504 57.7695 141.504 57.4961ZM150.27 43V61H146.895V43H150.27ZM149.789 54.2148H148.863C148.871 53.332 148.988 52.5195 149.215 51.7773C149.441 51.0273 149.766 50.3789 150.188 49.832C150.609 49.2773 151.113 48.8477 151.699 48.543C152.293 48.2383 152.949 48.0859 153.668 48.0859C154.293 48.0859 154.859 48.1758 155.367 48.3555C155.883 48.5273 156.324 48.8086 156.691 49.1992C157.066 49.582 157.355 50.0859 157.559 50.7109C157.762 51.3359 157.863 52.0938 157.863 52.9844V61H154.465V52.9609C154.465 52.3984 154.383 51.957 154.219 51.6367C154.062 51.3086 153.832 51.0781 153.527 50.9453C153.23 50.8047 152.863 50.7344 152.426 50.7344C151.941 50.7344 151.527 50.8242 151.184 51.0039C150.848 51.1836 150.578 51.4336 150.375 51.7539C150.172 52.0664 150.023 52.4336 149.93 52.8555C149.836 53.2773 149.789 53.7305 149.789 54.2148ZM165.879 61H162.164L162.188 58.2578H165.879C166.801 58.2578 167.578 58.0508 168.211 57.6367C168.844 57.2148 169.32 56.6016 169.641 55.7969C169.969 54.9922 170.133 54.0195 170.133 52.8789V52.0469C170.133 51.1719 170.039 50.4023 169.852 49.7383C169.672 49.0742 169.402 48.5156 169.043 48.0625C168.684 47.6094 168.242 47.2695 167.719 47.043C167.195 46.8086 166.594 46.6914 165.914 46.6914H162.094V43.9375H165.914C167.055 43.9375 168.098 44.1328 169.043 44.5234C169.996 44.9062 170.82 45.457 171.516 46.1758C172.211 46.8945 172.746 47.7539 173.121 48.7539C173.504 49.7461 173.695 50.8516 173.695 52.0703V52.8789C173.695 54.0898 173.504 55.1953 173.121 56.1953C172.746 57.1953 172.211 58.0547 171.516 58.7734C170.828 59.4844 170.004 60.0352 169.043 60.4258C168.09 60.8086 167.035 61 165.879 61ZM164.156 43.9375V61H160.641V43.9375H164.156ZM179.602 48.3203V61H176.215V48.3203H179.602ZM176.004 45.0156C176.004 44.5234 176.176 44.1172 176.52 43.7969C176.863 43.4766 177.324 43.3164 177.902 43.3164C178.473 43.3164 178.93 43.4766 179.273 43.7969C179.625 44.1172 179.801 44.5234 179.801 45.0156C179.801 45.5078 179.625 45.9141 179.273 46.2344C178.93 46.5547 178.473 46.7148 177.902 46.7148C177.324 46.7148 176.863 46.5547 176.52 46.2344C176.176 45.9141 176.004 45.5078 176.004 45.0156ZM189.246 57.4961C189.246 57.2539 189.176 57.0352 189.035 56.8398C188.895 56.6445 188.633 56.4648 188.25 56.3008C187.875 56.1289 187.332 55.9727 186.621 55.832C185.98 55.6914 185.383 55.5156 184.828 55.3047C184.281 55.0859 183.805 54.8242 183.398 54.5195C183 54.2148 182.688 53.8555 182.461 53.4414C182.234 53.0195 182.121 52.5391 182.121 52C182.121 51.4688 182.234 50.9688 182.461 50.5C182.695 50.0312 183.027 49.6172 183.457 49.2578C183.895 48.8906 184.426 48.6055 185.051 48.4023C185.684 48.1914 186.395 48.0859 187.184 48.0859C188.285 48.0859 189.23 48.2617 190.02 48.6133C190.816 48.9648 191.426 49.4492 191.848 50.0664C192.277 50.6758 192.492 51.3711 192.492 52.1523H189.117C189.117 51.8242 189.047 51.5312 188.906 51.2734C188.773 51.0078 188.562 50.8008 188.273 50.6523C187.992 50.4961 187.625 50.418 187.172 50.418C186.797 50.418 186.473 50.4844 186.199 50.6172C185.926 50.7422 185.715 50.9141 185.566 51.1328C185.426 51.3438 185.355 51.5781 185.355 51.8359C185.355 52.0312 185.395 52.207 185.473 52.3633C185.559 52.5117 185.695 52.6484 185.883 52.7734C186.07 52.8984 186.312 53.0156 186.609 53.125C186.914 53.2266 187.289 53.3203 187.734 53.4062C188.648 53.5938 189.465 53.8398 190.184 54.1445C190.902 54.4414 191.473 54.8477 191.895 55.3633C192.316 55.8711 192.527 56.5391 192.527 57.3672C192.527 57.9297 192.402 58.4453 192.152 58.9141C191.902 59.3828 191.543 59.793 191.074 60.1445C190.605 60.4883 190.043 60.7578 189.387 60.9531C188.738 61.1406 188.008 61.2344 187.195 61.2344C186.016 61.2344 185.016 61.0234 184.195 60.6016C183.383 60.1797 182.766 59.6445 182.344 58.9961C181.93 58.3398 181.723 57.668 181.723 56.9805H184.922C184.938 57.4414 185.055 57.8125 185.273 58.0938C185.5 58.375 185.785 58.5781 186.129 58.7031C186.48 58.8281 186.859 58.8906 187.266 58.8906C187.703 58.8906 188.066 58.832 188.355 58.7148C188.645 58.5898 188.863 58.4258 189.012 58.2227C189.168 58.0117 189.246 57.7695 189.246 57.4961ZM199.957 58.5977C200.371 58.5977 200.738 58.5195 201.059 58.3633C201.379 58.1992 201.629 57.9727 201.809 57.6836C201.996 57.3867 202.094 57.0391 202.102 56.6406H205.277C205.27 57.5312 205.031 58.3242 204.562 59.0195C204.094 59.707 203.465 60.25 202.676 60.6484C201.887 61.0391 201.004 61.2344 200.027 61.2344C199.043 61.2344 198.184 61.0703 197.449 60.7422C196.723 60.4141 196.117 59.9609 195.633 59.3828C195.148 58.7969 194.785 58.1172 194.543 57.3438C194.301 56.5625 194.18 55.7266 194.18 54.8359V54.4961C194.18 53.5977 194.301 52.7617 194.543 51.9883C194.785 51.207 195.148 50.5273 195.633 49.9492C196.117 49.3633 196.723 48.9062 197.449 48.5781C198.176 48.25 199.027 48.0859 200.004 48.0859C201.043 48.0859 201.953 48.2852 202.734 48.6836C203.523 49.082 204.141 49.6523 204.586 50.3945C205.039 51.1289 205.27 52 205.277 53.0078H202.102C202.094 52.5859 202.004 52.2031 201.832 51.8594C201.668 51.5156 201.426 51.2422 201.105 51.0391C200.793 50.8281 200.406 50.7227 199.945 50.7227C199.453 50.7227 199.051 50.8281 198.738 51.0391C198.426 51.2422 198.184 51.5234 198.012 51.8828C197.84 52.2344 197.719 52.6367 197.648 53.0898C197.586 53.5352 197.555 54.0039 197.555 54.4961V54.8359C197.555 55.3281 197.586 55.8008 197.648 56.2539C197.711 56.707 197.828 57.1094 198 57.4609C198.18 57.8125 198.426 58.0898 198.738 58.293C199.051 58.4961 199.457 58.5977 199.957 58.5977ZM206.695 54.7891V54.543C206.695 53.6133 206.828 52.7578 207.094 51.9766C207.359 51.1875 207.746 50.5039 208.254 49.9258C208.762 49.3477 209.387 48.8984 210.129 48.5781C210.871 48.25 211.723 48.0859 212.684 48.0859C213.645 48.0859 214.5 48.25 215.25 48.5781C216 48.8984 216.629 49.3477 217.137 49.9258C217.652 50.5039 218.043 51.1875 218.309 51.9766C218.574 52.7578 218.707 53.6133 218.707 54.543V54.7891C218.707 55.7109 218.574 56.5664 218.309 57.3555C218.043 58.1367 217.652 58.8203 217.137 59.4062C216.629 59.9844 216.004 60.4336 215.262 60.7539C214.52 61.0742 213.668 61.2344 212.707 61.2344C211.746 61.2344 210.891 61.0742 210.141 60.7539C209.398 60.4336 208.77 59.9844 208.254 59.4062C207.746 58.8203 207.359 58.1367 207.094 57.3555C206.828 56.5664 206.695 55.7109 206.695 54.7891ZM210.07 54.543V54.7891C210.07 55.3203 210.117 55.8164 210.211 56.2773C210.305 56.7383 210.453 57.1445 210.656 57.4961C210.867 57.8398 211.141 58.1094 211.477 58.3047C211.812 58.5 212.223 58.5977 212.707 58.5977C213.176 58.5977 213.578 58.5 213.914 58.3047C214.25 58.1094 214.52 57.8398 214.723 57.4961C214.926 57.1445 215.074 56.7383 215.168 56.2773C215.27 55.8164 215.32 55.3203 215.32 54.7891V54.543C215.32 54.0273 215.27 53.543 215.168 53.0898C215.074 52.6289 214.922 52.2227 214.711 51.8711C214.508 51.5117 214.238 51.2305 213.902 51.0273C213.566 50.8242 213.16 50.7227 212.684 50.7227C212.207 50.7227 211.801 50.8242 211.465 51.0273C211.137 51.2305 210.867 51.5117 210.656 51.8711C210.453 52.2227 210.305 52.6289 210.211 53.0898C210.117 53.543 210.07 54.0273 210.07 54.543ZM224.906 58.5391L227.719 48.3203H231.246L226.969 61H224.836L224.906 58.5391ZM222.973 48.3203L225.797 58.5508L225.855 61H223.711L219.434 48.3203H222.973ZM238.43 61.2344C237.445 61.2344 236.562 61.0781 235.781 60.7656C235 60.4453 234.336 60.0039 233.789 59.4414C233.25 58.8789 232.836 58.2266 232.547 57.4844C232.258 56.7344 232.113 55.9375 232.113 55.0938V54.625C232.113 53.6641 232.25 52.7852 232.523 51.9883C232.797 51.1914 233.188 50.5 233.695 49.9141C234.211 49.3281 234.836 48.8789 235.57 48.5664C236.305 48.2461 237.133 48.0859 238.055 48.0859C238.953 48.0859 239.75 48.2344 240.445 48.5312C241.141 48.8281 241.723 49.25 242.191 49.7969C242.668 50.3438 243.027 51 243.27 51.7656C243.512 52.5234 243.633 53.3672 243.633 54.2969V55.7031H233.555V53.4531H240.316V53.1953C240.316 52.7266 240.23 52.3086 240.059 51.9414C239.895 51.5664 239.645 51.2695 239.309 51.0508C238.973 50.832 238.543 50.7227 238.02 50.7227C237.574 50.7227 237.191 50.8203 236.871 51.0156C236.551 51.2109 236.289 51.4844 236.086 51.8359C235.891 52.1875 235.742 52.6016 235.641 53.0781C235.547 53.5469 235.5 54.0625 235.5 54.625V55.0938C235.5 55.6016 235.57 56.0703 235.711 56.5C235.859 56.9297 236.066 57.3008 236.332 57.6133C236.605 57.9258 236.934 58.168 237.316 58.3398C237.707 58.5117 238.148 58.5977 238.641 58.5977C239.25 58.5977 239.816 58.4805 240.34 58.2461C240.871 58.0039 241.328 57.6406 241.711 57.1562L243.352 58.9375C243.086 59.3203 242.723 59.6875 242.262 60.0391C241.809 60.3906 241.262 60.6797 240.621 60.9062C239.98 61.125 239.25 61.2344 238.43 61.2344ZM248.93 51.0859V61H245.555V48.3203H248.73L248.93 51.0859ZM252.75 48.2383L252.691 51.3672C252.527 51.3438 252.328 51.3242 252.094 51.3086C251.867 51.2852 251.66 51.2734 251.473 51.2734C250.996 51.2734 250.582 51.3359 250.23 51.4609C249.887 51.5781 249.598 51.7539 249.363 51.9883C249.137 52.2227 248.965 52.5078 248.848 52.8438C248.738 53.1797 248.676 53.5625 248.66 53.9922L247.98 53.7812C247.98 52.9609 248.062 52.207 248.227 51.5195C248.391 50.8242 248.629 50.2188 248.941 49.7031C249.262 49.1875 249.652 48.7891 250.113 48.5078C250.574 48.2266 251.102 48.0859 251.695 48.0859C251.883 48.0859 252.074 48.1016 252.27 48.1328C252.465 48.1562 252.625 48.1914 252.75 48.2383ZM258.316 59.5703L261.68 48.3203H265.301L260.203 62.9102C260.094 63.2305 259.945 63.5742 259.758 63.9414C259.578 64.3086 259.332 64.6562 259.02 64.9844C258.715 65.3203 258.328 65.5938 257.859 65.8047C257.398 66.0156 256.832 66.1211 256.16 66.1211C255.84 66.1211 255.578 66.1016 255.375 66.0625C255.172 66.0234 254.93 65.9688 254.648 65.8984V63.4258C254.734 63.4258 254.824 63.4258 254.918 63.4258C255.012 63.4336 255.102 63.4375 255.188 63.4375C255.633 63.4375 255.996 63.3867 256.277 63.2852C256.559 63.1836 256.785 63.0273 256.957 62.8164C257.129 62.6133 257.266 62.3477 257.367 62.0195L258.316 59.5703ZM256.91 48.3203L259.664 57.5078L260.145 61.082L257.848 61.3281L253.289 48.3203H256.91Z" fill="#888888"/>
<path d="M109.219 107.422H100.734V101.07H109.219C110.375 101.07 111.312 100.875 112.031 100.484C112.75 100.094 113.273 99.5547 113.602 98.8672C113.945 98.1641 114.117 97.375 114.117 96.5C114.117 95.5625 113.945 94.6953 113.602 93.8984C113.273 93.1016 112.75 92.4609 112.031 91.9766C111.312 91.4766 110.375 91.2266 109.219 91.2266H103.828V119H95.6016V84.875H109.219C111.953 84.875 114.305 85.375 116.273 86.375C118.258 87.375 119.781 88.75 120.844 90.5C121.906 92.2344 122.438 94.2188 122.438 96.4531C122.438 98.6562 121.906 100.578 120.844 102.219C119.781 103.859 118.258 105.141 116.273 106.062C114.305 106.969 111.953 107.422 109.219 107.422ZM134.461 99.9219V119H126.562V93.6406H133.945L134.461 99.9219ZM141.961 93.4531L141.82 100.789C141.508 100.758 141.086 100.719 140.555 100.672C140.023 100.625 139.578 100.602 139.219 100.602C138.297 100.602 137.5 100.711 136.828 100.93C136.172 101.133 135.625 101.445 135.188 101.867C134.766 102.273 134.453 102.789 134.25 103.414C134.062 104.039 133.977 104.766 133.992 105.594L132.562 104.656C132.562 102.953 132.727 101.406 133.055 100.016C133.398 98.6094 133.883 97.3984 134.508 96.3828C135.133 95.3516 135.891 94.5625 136.781 94.0156C137.672 93.4531 138.672 93.1719 139.781 93.1719C140.172 93.1719 140.555 93.1953 140.93 93.2422C141.32 93.2891 141.664 93.3594 141.961 93.4531ZM142.852 106.578V106.086C142.852 104.227 143.117 102.516 143.648 100.953C144.18 99.375 144.961 98.0078 145.992 96.8516C147.023 95.6953 148.297 94.7969 149.812 94.1562C151.328 93.5 153.078 93.1719 155.062 93.1719C157.062 93.1719 158.82 93.5 160.336 94.1562C161.867 94.7969 163.148 95.6953 164.18 96.8516C165.211 98.0078 165.992 99.375 166.523 100.953C167.055 102.516 167.32 104.227 167.32 106.086V106.578C167.32 108.422 167.055 110.133 166.523 111.711C165.992 113.273 165.211 114.641 164.18 115.812C163.148 116.969 161.875 117.867 160.359 118.508C158.844 119.148 157.094 119.469 155.109 119.469C153.125 119.469 151.367 119.148 149.836 118.508C148.305 117.867 147.023 116.969 145.992 115.812C144.961 114.641 144.18 113.273 143.648 111.711C143.117 110.133 142.852 108.422 142.852 106.578ZM150.75 106.086V106.578C150.75 107.531 150.82 108.422 150.961 109.25C151.102 110.078 151.336 110.805 151.664 111.43C151.992 112.039 152.438 112.516 153 112.859C153.562 113.203 154.266 113.375 155.109 113.375C155.938 113.375 156.625 113.203 157.172 112.859C157.734 112.516 158.18 112.039 158.508 111.43C158.836 110.805 159.07 110.078 159.211 109.25C159.352 108.422 159.422 107.531 159.422 106.578V106.086C159.422 105.164 159.352 104.297 159.211 103.484C159.07 102.656 158.836 101.93 158.508 101.305C158.18 100.664 157.734 100.164 157.172 99.8047C156.609 99.4453 155.906 99.2656 155.062 99.2656C154.234 99.2656 153.539 99.4453 152.977 99.8047C152.43 100.164 151.992 100.664 151.664 101.305C151.336 101.93 151.102 102.656 150.961 103.484C150.82 104.297 150.75 105.164 150.75 106.086ZM171.422 93.6406H179.344V119.82C179.344 121.852 178.953 123.562 178.172 124.953C177.391 126.359 176.273 127.422 174.82 128.141C173.367 128.875 171.633 129.242 169.617 129.242C168.945 129.242 168.328 129.211 167.766 129.148C167.188 129.102 166.555 129 165.867 128.844V122.867C166.273 122.93 166.648 122.977 166.992 123.008C167.336 123.055 167.711 123.078 168.117 123.078C168.836 123.078 169.438 122.961 169.922 122.727C170.406 122.492 170.773 122.133 171.023 121.648C171.289 121.164 171.422 120.555 171.422 119.82V93.6406ZM170.836 87.1016C170.836 85.9766 171.242 85.0547 172.055 84.3359C172.867 83.6172 173.922 83.2578 175.219 83.2578C176.516 83.2578 177.57 83.6172 178.383 84.3359C179.195 85.0547 179.602 85.9766 179.602 87.1016C179.602 88.2266 179.195 89.1484 178.383 89.8672C177.57 90.5859 176.516 90.9453 175.219 90.9453C173.922 90.9453 172.867 90.5859 172.055 89.8672C171.242 89.1484 170.836 88.2266 170.836 87.1016ZM196.102 119.469C194.039 119.469 192.195 119.148 190.57 118.508C188.945 117.852 187.57 116.953 186.445 115.812C185.336 114.672 184.484 113.359 183.891 111.875C183.312 110.391 183.023 108.82 183.023 107.164V106.273C183.023 104.414 183.281 102.695 183.797 101.117C184.312 99.5234 185.078 98.1328 186.094 96.9453C187.109 95.7578 188.383 94.8359 189.914 94.1797C191.445 93.5078 193.227 93.1719 195.258 93.1719C197.055 93.1719 198.664 93.4609 200.086 94.0391C201.508 94.6172 202.711 95.4453 203.695 96.5234C204.695 97.6016 205.453 98.9062 205.969 100.438C206.5 101.969 206.766 103.688 206.766 105.594V108.805H186.047V103.859H199.055V103.25C199.07 102.406 198.922 101.688 198.609 101.094C198.312 100.5 197.875 100.047 197.297 99.7344C196.719 99.4219 196.016 99.2656 195.188 99.2656C194.328 99.2656 193.617 99.4531 193.055 99.8281C192.508 100.203 192.078 100.719 191.766 101.375C191.469 102.016 191.258 102.758 191.133 103.602C191.008 104.445 190.945 105.336 190.945 106.273V107.164C190.945 108.102 191.07 108.953 191.32 109.719C191.586 110.484 191.961 111.141 192.445 111.688C192.945 112.219 193.539 112.633 194.227 112.93C194.93 113.227 195.727 113.375 196.617 113.375C197.695 113.375 198.758 113.172 199.805 112.766C200.852 112.359 201.75 111.688 202.5 110.75L206.086 115.016C205.57 115.75 204.836 116.461 203.883 117.148C202.945 117.836 201.82 118.398 200.508 118.836C199.195 119.258 197.727 119.469 196.102 119.469ZM220.688 113.375C221.422 113.375 222.047 113.242 222.562 112.977C223.094 112.695 223.492 112.305 223.758 111.805C224.039 111.289 224.172 110.672 224.156 109.953H231.586C231.602 111.859 231.133 113.531 230.18 114.969C229.242 116.391 227.961 117.5 226.336 118.297C224.727 119.078 222.906 119.469 220.875 119.469C218.891 119.469 217.156 119.148 215.672 118.508C214.188 117.852 212.945 116.945 211.945 115.789C210.961 114.617 210.219 113.25 209.719 111.688C209.234 110.125 208.992 108.43 208.992 106.602V106.062C208.992 104.234 209.234 102.539 209.719 100.977C210.219 99.3984 210.961 98.0312 211.945 96.875C212.945 95.7031 214.18 94.7969 215.648 94.1562C217.133 93.5 218.859 93.1719 220.828 93.1719C222.938 93.1719 224.797 93.5703 226.406 94.3672C228.031 95.1641 229.305 96.3203 230.227 97.8359C231.148 99.3516 231.602 101.188 231.586 103.344H224.156C224.172 102.578 224.055 101.891 223.805 101.281C223.555 100.672 223.164 100.188 222.633 99.8281C222.117 99.4531 221.453 99.2656 220.641 99.2656C219.828 99.2656 219.172 99.4453 218.672 99.8047C218.172 100.164 217.789 100.664 217.523 101.305C217.273 101.93 217.102 102.648 217.008 103.461C216.93 104.273 216.891 105.141 216.891 106.062V106.602C216.891 107.539 216.93 108.422 217.008 109.25C217.102 110.062 217.281 110.781 217.547 111.406C217.812 112.016 218.195 112.5 218.695 112.859C219.195 113.203 219.859 113.375 220.688 113.375ZM248.32 93.6406V99.125H233.039V93.6406H248.32ZM236.25 87.3359H244.148V110.727C244.148 111.398 244.227 111.922 244.383 112.297C244.539 112.656 244.805 112.914 245.18 113.07C245.57 113.211 246.086 113.281 246.727 113.281C247.18 113.281 247.555 113.273 247.852 113.258C248.148 113.227 248.43 113.188 248.695 113.141V118.789C248.023 119.008 247.32 119.172 246.586 119.281C245.852 119.406 245.07 119.469 244.242 119.469C242.555 119.469 241.109 119.203 239.906 118.672C238.719 118.141 237.812 117.305 237.188 116.164C236.562 115.023 236.25 113.539 236.25 111.711V87.3359ZM277.406 107.422H268.922V101.07H277.406C278.562 101.07 279.5 100.875 280.219 100.484C280.938 100.094 281.461 99.5547 281.789 98.8672C282.133 98.1641 282.305 97.375 282.305 96.5C282.305 95.5625 282.133 94.6953 281.789 93.8984C281.461 93.1016 280.938 92.4609 280.219 91.9766C279.5 91.4766 278.562 91.2266 277.406 91.2266H272.016V119H263.789V84.875H277.406C280.141 84.875 282.492 85.375 284.461 86.375C286.445 87.375 287.969 88.75 289.031 90.5C290.094 92.2344 290.625 94.2188 290.625 96.4531C290.625 98.6562 290.094 100.578 289.031 102.219C287.969 103.859 286.445 105.141 284.461 106.062C282.492 106.969 280.141 107.422 277.406 107.422ZM302.414 83V119H294.516V83H302.414ZM301.477 105.453L299.625 105.5C299.625 103.719 299.844 102.078 300.281 100.578C300.719 99.0781 301.344 97.7734 302.156 96.6641C302.969 95.5547 303.945 94.6953 305.086 94.0859C306.227 93.4766 307.492 93.1719 308.883 93.1719C310.133 93.1719 311.273 93.3516 312.305 93.7109C313.352 94.0703 314.25 94.6484 315 95.4453C315.766 96.2422 316.352 97.2812 316.758 98.5625C317.18 99.8438 317.391 101.406 317.391 103.25V119H309.445V103.203C309.445 102.172 309.297 101.375 309 100.812C308.719 100.234 308.312 99.8359 307.781 99.6172C307.25 99.3828 306.602 99.2656 305.836 99.2656C304.914 99.2656 304.164 99.4219 303.586 99.7344C303.008 100.047 302.562 100.484 302.25 101.047C301.953 101.594 301.75 102.242 301.641 102.992C301.531 103.742 301.477 104.562 301.477 105.453ZM330.117 93.6406V119H322.195V93.6406H330.117ZM321.727 87.1016C321.727 85.9766 322.133 85.0547 322.945 84.3359C323.758 83.6172 324.812 83.2578 326.109 83.2578C327.406 83.2578 328.461 83.6172 329.273 84.3359C330.086 85.0547 330.492 85.9766 330.492 87.1016C330.492 88.2266 330.086 89.1484 329.273 89.8672C328.461 90.5859 327.406 90.9453 326.109 90.9453C324.812 90.9453 323.758 90.5859 322.945 89.8672C322.133 89.1484 321.727 88.2266 321.727 87.1016ZM343.336 83V119H335.414V83H343.336ZM347.227 106.578V106.086C347.227 104.227 347.492 102.516 348.023 100.953C348.555 99.375 349.336 98.0078 350.367 96.8516C351.398 95.6953 352.672 94.7969 354.188 94.1562C355.703 93.5 357.453 93.1719 359.438 93.1719C361.438 93.1719 363.195 93.5 364.711 94.1562C366.242 94.7969 367.523 95.6953 368.555 96.8516C369.586 98.0078 370.367 99.375 370.898 100.953C371.43 102.516 371.695 104.227 371.695 106.086V106.578C371.695 108.422 371.43 110.133 370.898 111.711C370.367 113.273 369.586 114.641 368.555 115.812C367.523 116.969 366.25 117.867 364.734 118.508C363.219 119.148 361.469 119.469 359.484 119.469C357.5 119.469 355.742 119.148 354.211 118.508C352.68 117.867 351.398 116.969 350.367 115.812C349.336 114.641 348.555 113.273 348.023 111.711C347.492 110.133 347.227 108.422 347.227 106.578ZM355.125 106.086V106.578C355.125 107.531 355.195 108.422 355.336 109.25C355.477 110.078 355.711 110.805 356.039 111.43C356.367 112.039 356.812 112.516 357.375 112.859C357.938 113.203 358.641 113.375 359.484 113.375C360.312 113.375 361 113.203 361.547 112.859C362.109 112.516 362.555 112.039 362.883 111.43C363.211 110.805 363.445 110.078 363.586 109.25C363.727 108.422 363.797 107.531 363.797 106.578V106.086C363.797 105.164 363.727 104.297 363.586 103.484C363.445 102.656 363.211 101.93 362.883 101.305C362.555 100.664 362.109 100.164 361.547 99.8047C360.984 99.4453 360.281 99.2656 359.438 99.2656C358.609 99.2656 357.914 99.4453 357.352 99.8047C356.805 100.164 356.367 100.664 356.039 101.305C355.711 101.93 355.477 102.656 355.336 103.484C355.195 104.297 355.125 105.164 355.125 106.086ZM388.5 111.875C388.5 111.438 388.352 111.062 388.055 110.75C387.773 110.422 387.273 110.125 386.555 109.859C385.836 109.578 384.828 109.297 383.531 109.016C382.297 108.75 381.133 108.398 380.039 107.961C378.961 107.523 378.016 106.992 377.203 106.367C376.391 105.742 375.75 105 375.281 104.141C374.828 103.281 374.602 102.297 374.602 101.188C374.602 100.109 374.828 99.0938 375.281 98.1406C375.75 97.1719 376.43 96.3203 377.32 95.5859C378.227 94.8359 379.328 94.25 380.625 93.8281C381.922 93.3906 383.398 93.1719 385.055 93.1719C387.336 93.1719 389.305 93.5234 390.961 94.2266C392.617 94.9141 393.891 95.8828 394.781 97.1328C395.688 98.3672 396.141 99.7969 396.141 101.422H388.242C388.242 100.781 388.133 100.234 387.914 99.7812C387.711 99.3281 387.375 98.9844 386.906 98.75C386.438 98.5 385.812 98.375 385.031 98.375C384.484 98.375 383.984 98.4766 383.531 98.6797C383.094 98.8828 382.742 99.1641 382.477 99.5234C382.211 99.8828 382.078 100.305 382.078 100.789C382.078 101.133 382.156 101.445 382.312 101.727C382.484 101.992 382.742 102.242 383.086 102.477C383.43 102.695 383.867 102.898 384.398 103.086C384.93 103.258 385.57 103.414 386.32 103.555C388.023 103.867 389.617 104.312 391.102 104.891C392.586 105.469 393.789 106.289 394.711 107.352C395.648 108.414 396.117 109.844 396.117 111.641C396.117 112.766 395.859 113.805 395.344 114.758C394.828 115.695 394.086 116.523 393.117 117.242C392.148 117.945 390.984 118.492 389.625 118.883C388.266 119.273 386.734 119.469 385.031 119.469C382.609 119.469 380.562 119.039 378.891 118.18C377.219 117.305 375.953 116.211 375.094 114.898C374.25 113.57 373.828 112.227 373.828 110.867H381.188C381.219 111.648 381.406 112.289 381.75 112.789C382.109 113.289 382.586 113.656 383.18 113.891C383.773 114.125 384.461 114.242 385.242 114.242C385.961 114.242 386.555 114.141 387.023 113.938C387.508 113.734 387.875 113.461 388.125 113.117C388.375 112.758 388.5 112.344 388.5 111.875ZM398.836 106.578V106.086C398.836 104.227 399.102 102.516 399.633 100.953C400.164 99.375 400.945 98.0078 401.977 96.8516C403.008 95.6953 404.281 94.7969 405.797 94.1562C407.312 93.5 409.062 93.1719 411.047 93.1719C413.047 93.1719 414.805 93.5 416.32 94.1562C417.852 94.7969 419.133 95.6953 420.164 96.8516C421.195 98.0078 421.977 99.375 422.508 100.953C423.039 102.516 423.305 104.227 423.305 106.086V106.578C423.305 108.422 423.039 110.133 422.508 111.711C421.977 113.273 421.195 114.641 420.164 115.812C419.133 116.969 417.859 117.867 416.344 118.508C414.828 119.148 413.078 119.469 411.094 119.469C409.109 119.469 407.352 119.148 405.82 118.508C404.289 117.867 403.008 116.969 401.977 115.812C400.945 114.641 400.164 113.273 399.633 111.711C399.102 110.133 398.836 108.422 398.836 106.578ZM406.734 106.086V106.578C406.734 107.531 406.805 108.422 406.945 109.25C407.086 110.078 407.32 110.805 407.648 111.43C407.977 112.039 408.422 112.516 408.984 112.859C409.547 113.203 410.25 113.375 411.094 113.375C411.922 113.375 412.609 113.203 413.156 112.859C413.719 112.516 414.164 112.039 414.492 111.43C414.82 110.805 415.055 110.078 415.195 109.25C415.336 108.422 415.406 107.531 415.406 106.578V106.086C415.406 105.164 415.336 104.297 415.195 103.484C415.055 102.656 414.82 101.93 414.492 101.305C414.164 100.664 413.719 100.164 413.156 99.8047C412.594 99.4453 411.891 99.2656 411.047 99.2656C410.219 99.2656 409.523 99.4453 408.961 99.8047C408.414 100.164 407.977 100.664 407.648 101.305C407.32 101.93 407.086 102.656 406.945 103.484C406.805 104.297 406.734 105.164 406.734 106.086ZM434.789 98.5156V128.75H426.891V93.6406H434.25L434.789 98.5156ZM450.352 106.016V106.508C450.352 108.352 450.141 110.062 449.719 111.641C449.297 113.219 448.672 114.594 447.844 115.766C447.016 116.938 445.984 117.852 444.75 118.508C443.531 119.148 442.117 119.469 440.508 119.469C438.992 119.469 437.688 119.133 436.594 118.461C435.5 117.789 434.586 116.859 433.852 115.672C433.117 114.484 432.523 113.125 432.07 111.594C431.617 110.062 431.258 108.445 430.992 106.742V106.109C431.258 104.281 431.617 102.586 432.07 101.023C432.523 99.4453 433.117 98.0703 433.852 96.8984C434.586 95.7266 435.492 94.8125 436.57 94.1562C437.664 93.5 438.969 93.1719 440.484 93.1719C442.094 93.1719 443.508 93.4766 444.727 94.0859C445.961 94.6953 446.992 95.5703 447.82 96.7109C448.664 97.8359 449.297 99.1875 449.719 100.766C450.141 102.344 450.352 104.094 450.352 106.016ZM442.453 106.508V106.016C442.453 105.031 442.383 104.133 442.242 103.32C442.102 102.492 441.875 101.773 441.562 101.164C441.266 100.555 440.867 100.086 440.367 99.7578C439.867 99.4297 439.25 99.2656 438.516 99.2656C437.672 99.2656 436.961 99.3984 436.383 99.6641C435.82 99.9141 435.367 100.305 435.023 100.836C434.695 101.352 434.461 102 434.32 102.781C434.195 103.547 434.141 104.445 434.156 105.477V107.398C434.125 108.586 434.242 109.633 434.508 110.539C434.773 111.43 435.234 112.125 435.891 112.625C436.547 113.125 437.438 113.375 438.562 113.375C439.312 113.375 439.938 113.203 440.438 112.859C440.938 112.5 441.336 112.008 441.633 111.383C441.93 110.742 442.141 110.008 442.266 109.18C442.391 108.352 442.453 107.461 442.453 106.508ZM461.602 83V119H453.703V83H461.602ZM460.664 105.453L458.812 105.5C458.812 103.719 459.031 102.078 459.469 100.578C459.906 99.0781 460.531 97.7734 461.344 96.6641C462.156 95.5547 463.133 94.6953 464.273 94.0859C465.414 93.4766 466.68 93.1719 468.07 93.1719C469.32 93.1719 470.461 93.3516 471.492 93.7109C472.539 94.0703 473.438 94.6484 474.188 95.4453C474.953 96.2422 475.539 97.2812 475.945 98.5625C476.367 99.8438 476.578 101.406 476.578 103.25V119H468.633V103.203C468.633 102.172 468.484 101.375 468.188 100.812C467.906 100.234 467.5 99.8359 466.969 99.6172C466.438 99.3828 465.789 99.2656 465.023 99.2656C464.102 99.2656 463.352 99.4219 462.773 99.7344C462.195 100.047 461.75 100.484 461.438 101.047C461.141 101.594 460.938 102.242 460.828 102.992C460.719 103.742 460.664 104.562 460.664 105.453ZM488.742 116.023L495.305 93.6406H503.789L493.594 122.773C493.375 123.414 493.086 124.102 492.727 124.836C492.367 125.586 491.875 126.297 491.25 126.969C490.625 127.641 489.82 128.188 488.836 128.609C487.867 129.031 486.664 129.242 485.227 129.242C484.461 129.242 483.898 129.203 483.539 129.125C483.195 129.062 482.664 128.945 481.945 128.773V123.125C482.148 123.125 482.32 123.125 482.461 123.125C482.617 123.125 482.789 123.125 482.977 123.125C483.82 123.125 484.492 123.039 484.992 122.867C485.508 122.695 485.898 122.445 486.164 122.117C486.445 121.789 486.664 121.391 486.82 120.922L488.742 116.023ZM487.078 93.6406L492.07 111.383L492.938 119.75H487.641L478.617 93.6406H487.078Z" fill="#1D2126"/>
<path d="M1134 0H1348C1356.28 0 1363 6.71573 1363 15V148C1363 156.284 1356.28 163 1348 163H1134V0Z" fill="#FF7070"/>
<path d="M1234.26 103.786H1262.74V109.357H1234.26V103.786ZM1239.96 114.929H1257.04V120.5H1239.96V114.929ZM1248.5 42.5C1240.95 42.5 1233.71 45.4349 1228.37 50.6592C1223.03 55.8834 1220.03 62.969 1220.03 70.3571C1219.84 74.4057 1220.63 78.4412 1222.34 82.1315C1224.05 85.8219 1226.64 89.0616 1229.88 91.5843C1232.73 94.175 1234.26 95.6514 1234.26 98.2143H1239.96C1239.96 93.0886 1236.8 90.2193 1233.72 87.4614C1231.06 85.4676 1228.94 82.8658 1227.55 79.8838C1226.15 76.9019 1225.53 73.6308 1225.72 70.3571C1225.72 64.4466 1228.12 58.7781 1232.39 54.5988C1236.67 50.4194 1242.46 48.0714 1248.5 48.0714C1254.54 48.0714 1260.33 50.4194 1264.61 54.5988C1268.88 58.7781 1271.28 64.4466 1271.28 70.3571C1271.47 73.6333 1270.84 76.9059 1269.44 79.888C1268.04 82.8701 1265.92 85.4706 1263.25 87.4614C1260.2 90.2471 1257.04 93.0329 1257.04 98.2143H1262.74C1262.74 95.6514 1264.25 94.175 1267.12 91.5564C1270.36 89.0381 1272.94 85.8031 1274.66 82.1176C1276.37 78.4321 1277.16 74.4014 1276.97 70.3571C1276.97 66.6989 1276.24 63.0765 1274.81 59.6967C1273.37 56.3169 1271.28 53.2459 1268.63 50.6592C1265.99 48.0724 1262.85 46.0205 1259.4 44.6205C1255.94 43.2205 1252.24 42.5 1248.5 42.5Z" fill="white"/>
</svg>
