<svg width="1363" height="163" viewBox="0 0 1363 163" fill="none" xmlns="http://www.w3.org/2000/svg">
<path d="M0 15C0 6.71573 6.71573 0 15 0H37V163H15C6.71573 163 0 156.284 0 148V15Z" fill="#5B5B5B"/>
<rect width="1097" height="163" transform="translate(37)" fill="#F0F0F0"/>
<path d="M101.906 53.9219L94.3945 51.2383V48.0859L104.602 52.375V54.6367L101.906 53.9219ZM94.3945 56.1719L101.918 53.4297L104.602 52.7852V55.0352L94.3945 59.3242V56.1719ZM118.137 61H114.422L114.445 58.2578H118.137C119.059 58.2578 119.836 58.0508 120.469 57.6367C121.102 57.2148 121.578 56.6016 121.898 55.7969C122.227 54.9922 122.391 54.0195 122.391 52.8789V52.0469C122.391 51.1719 122.297 50.4023 122.109 49.7383C121.93 49.0742 121.66 48.5156 121.301 48.0625C120.941 47.6094 120.5 47.2695 119.977 47.043C119.453 46.8086 118.852 46.6914 118.172 46.6914H114.352V43.9375H118.172C119.312 43.9375 120.355 44.1328 121.301 44.5234C122.254 44.9062 123.078 45.457 123.773 46.1758C124.469 46.8945 125.004 47.7539 125.379 48.7539C125.762 49.7461 125.953 50.8516 125.953 52.0703V52.8789C125.953 54.0898 125.762 55.1953 125.379 56.1953C125.004 57.1953 124.469 58.0547 123.773 58.7734C123.086 59.4844 122.262 60.0352 121.301 60.4258C120.348 60.8086 119.293 61 118.137 61ZM116.414 43.9375V61H112.898V43.9375H116.414ZM131.859 48.3203V61H128.473V48.3203H131.859ZM128.262 45.0156C128.262 44.5234 128.434 44.1172 128.777 43.7969C129.121 43.4766 129.582 43.3164 130.16 43.3164C130.73 43.3164 131.188 43.4766 131.531 43.7969C131.883 44.1172 132.059 44.5234 132.059 45.0156C132.059 45.5078 131.883 45.9141 131.531 46.2344C131.188 46.5547 130.73 46.7148 130.16 46.7148C129.582 46.7148 129.121 46.5547 128.777 46.2344C128.434 45.9141 128.262 45.5078 128.262 45.0156ZM141.504 57.4961C141.504 57.2539 141.434 57.0352 141.293 56.8398C141.152 56.6445 140.891 56.4648 140.508 56.3008C140.133 56.1289 139.59 55.9727 138.879 55.832C138.238 55.6914 137.641 55.5156 137.086 55.3047C136.539 55.0859 136.062 54.8242 135.656 54.5195C135.258 54.2148 134.945 53.8555 134.719 53.4414C134.492 53.0195 134.379 52.5391 134.379 52C134.379 51.4688 134.492 50.9688 134.719 50.5C134.953 50.0312 135.285 49.6172 135.715 49.2578C136.152 48.8906 136.684 48.6055 137.309 48.4023C137.941 48.1914 138.652 48.0859 139.441 48.0859C140.543 48.0859 141.488 48.2617 142.277 48.6133C143.074 48.9648 143.684 49.4492 144.105 50.0664C144.535 50.6758 144.75 51.3711 144.75 52.1523H141.375C141.375 51.8242 141.305 51.5312 141.164 51.2734C141.031 51.0078 140.82 50.8008 140.531 50.6523C140.25 50.4961 139.883 50.418 139.43 50.418C139.055 50.418 138.73 50.4844 138.457 50.6172C138.184 50.7422 137.973 50.9141 137.824 51.1328C137.684 51.3438 137.613 51.5781 137.613 51.8359C137.613 52.0312 137.652 52.207 137.73 52.3633C137.816 52.5117 137.953 52.6484 138.141 52.7734C138.328 52.8984 138.57 53.0156 138.867 53.125C139.172 53.2266 139.547 53.3203 139.992 53.4062C140.906 53.5938 141.723 53.8398 142.441 54.1445C143.16 54.4414 143.73 54.8477 144.152 55.3633C144.574 55.8711 144.785 56.5391 144.785 57.3672C144.785 57.9297 144.66 58.4453 144.41 58.9141C144.16 59.3828 143.801 59.793 143.332 60.1445C142.863 60.4883 142.301 60.7578 141.645 60.9531C140.996 61.1406 140.266 61.2344 139.453 61.2344C138.273 61.2344 137.273 61.0234 136.453 60.6016C135.641 60.1797 135.023 59.6445 134.602 58.9961C134.188 58.3398 133.98 57.668 133.98 56.9805H137.18C137.195 57.4414 137.312 57.8125 137.531 58.0938C137.758 58.375 138.043 58.5781 138.387 58.7031C138.738 58.8281 139.117 58.8906 139.523 58.8906C139.961 58.8906 140.324 58.832 140.613 58.7148C140.902 58.5898 141.121 58.4258 141.27 58.2227C141.426 58.0117 141.504 57.7695 141.504 57.4961ZM150.27 43V61H146.895V43H150.27ZM149.789 54.2148H148.863C148.871 53.332 148.988 52.5195 149.215 51.7773C149.441 51.0273 149.766 50.3789 150.188 49.832C150.609 49.2773 151.113 48.8477 151.699 48.543C152.293 48.2383 152.949 48.0859 153.668 48.0859C154.293 48.0859 154.859 48.1758 155.367 48.3555C155.883 48.5273 156.324 48.8086 156.691 49.1992C157.066 49.582 157.355 50.0859 157.559 50.7109C157.762 51.3359 157.863 52.0938 157.863 52.9844V61H154.465V52.9609C154.465 52.3984 154.383 51.957 154.219 51.6367C154.062 51.3086 153.832 51.0781 153.527 50.9453C153.23 50.8047 152.863 50.7344 152.426 50.7344C151.941 50.7344 151.527 50.8242 151.184 51.0039C150.848 51.1836 150.578 51.4336 150.375 51.7539C150.172 52.0664 150.023 52.4336 149.93 52.8555C149.836 53.2773 149.789 53.7305 149.789 54.2148ZM165.879 61H162.164L162.188 58.2578H165.879C166.801 58.2578 167.578 58.0508 168.211 57.6367C168.844 57.2148 169.32 56.6016 169.641 55.7969C169.969 54.9922 170.133 54.0195 170.133 52.8789V52.0469C170.133 51.1719 170.039 50.4023 169.852 49.7383C169.672 49.0742 169.402 48.5156 169.043 48.0625C168.684 47.6094 168.242 47.2695 167.719 47.043C167.195 46.8086 166.594 46.6914 165.914 46.6914H162.094V43.9375H165.914C167.055 43.9375 168.098 44.1328 169.043 44.5234C169.996 44.9062 170.82 45.457 171.516 46.1758C172.211 46.8945 172.746 47.7539 173.121 48.7539C173.504 49.7461 173.695 50.8516 173.695 52.0703V52.8789C173.695 54.0898 173.504 55.1953 173.121 56.1953C172.746 57.1953 172.211 58.0547 171.516 58.7734C170.828 59.4844 170.004 60.0352 169.043 60.4258C168.09 60.8086 167.035 61 165.879 61ZM164.156 43.9375V61H160.641V43.9375H164.156ZM179.602 48.3203V61H176.215V48.3203H179.602ZM176.004 45.0156C176.004 44.5234 176.176 44.1172 176.52 43.7969C176.863 43.4766 177.324 43.3164 177.902 43.3164C178.473 43.3164 178.93 43.4766 179.273 43.7969C179.625 44.1172 179.801 44.5234 179.801 45.0156C179.801 45.5078 179.625 45.9141 179.273 46.2344C178.93 46.5547 178.473 46.7148 177.902 46.7148C177.324 46.7148 176.863 46.5547 176.52 46.2344C176.176 45.9141 176.004 45.5078 176.004 45.0156ZM189.246 57.4961C189.246 57.2539 189.176 57.0352 189.035 56.8398C188.895 56.6445 188.633 56.4648 188.25 56.3008C187.875 56.1289 187.332 55.9727 186.621 55.832C185.98 55.6914 185.383 55.5156 184.828 55.3047C184.281 55.0859 183.805 54.8242 183.398 54.5195C183 54.2148 182.688 53.8555 182.461 53.4414C182.234 53.0195 182.121 52.5391 182.121 52C182.121 51.4688 182.234 50.9688 182.461 50.5C182.695 50.0312 183.027 49.6172 183.457 49.2578C183.895 48.8906 184.426 48.6055 185.051 48.4023C185.684 48.1914 186.395 48.0859 187.184 48.0859C188.285 48.0859 189.23 48.2617 190.02 48.6133C190.816 48.9648 191.426 49.4492 191.848 50.0664C192.277 50.6758 192.492 51.3711 192.492 52.1523H189.117C189.117 51.8242 189.047 51.5312 188.906 51.2734C188.773 51.0078 188.562 50.8008 188.273 50.6523C187.992 50.4961 187.625 50.418 187.172 50.418C186.797 50.418 186.473 50.4844 186.199 50.6172C185.926 50.7422 185.715 50.9141 185.566 51.1328C185.426 51.3438 185.355 51.5781 185.355 51.8359C185.355 52.0312 185.395 52.207 185.473 52.3633C185.559 52.5117 185.695 52.6484 185.883 52.7734C186.07 52.8984 186.312 53.0156 186.609 53.125C186.914 53.2266 187.289 53.3203 187.734 53.4062C188.648 53.5938 189.465 53.8398 190.184 54.1445C190.902 54.4414 191.473 54.8477 191.895 55.3633C192.316 55.8711 192.527 56.5391 192.527 57.3672C192.527 57.9297 192.402 58.4453 192.152 58.9141C191.902 59.3828 191.543 59.793 191.074 60.1445C190.605 60.4883 190.043 60.7578 189.387 60.9531C188.738 61.1406 188.008 61.2344 187.195 61.2344C186.016 61.2344 185.016 61.0234 184.195 60.6016C183.383 60.1797 182.766 59.6445 182.344 58.9961C181.93 58.3398 181.723 57.668 181.723 56.9805H184.922C184.938 57.4414 185.055 57.8125 185.273 58.0938C185.5 58.375 185.785 58.5781 186.129 58.7031C186.48 58.8281 186.859 58.8906 187.266 58.8906C187.703 58.8906 188.066 58.832 188.355 58.7148C188.645 58.5898 188.863 58.4258 189.012 58.2227C189.168 58.0117 189.246 57.7695 189.246 57.4961ZM199.957 58.5977C200.371 58.5977 200.738 58.5195 201.059 58.3633C201.379 58.1992 201.629 57.9727 201.809 57.6836C201.996 57.3867 202.094 57.0391 202.102 56.6406H205.277C205.27 57.5312 205.031 58.3242 204.562 59.0195C204.094 59.707 203.465 60.25 202.676 60.6484C201.887 61.0391 201.004 61.2344 200.027 61.2344C199.043 61.2344 198.184 61.0703 197.449 60.7422C196.723 60.4141 196.117 59.9609 195.633 59.3828C195.148 58.7969 194.785 58.1172 194.543 57.3438C194.301 56.5625 194.18 55.7266 194.18 54.8359V54.4961C194.18 53.5977 194.301 52.7617 194.543 51.9883C194.785 51.207 195.148 50.5273 195.633 49.9492C196.117 49.3633 196.723 48.9062 197.449 48.5781C198.176 48.25 199.027 48.0859 200.004 48.0859C201.043 48.0859 201.953 48.2852 202.734 48.6836C203.523 49.082 204.141 49.6523 204.586 50.3945C205.039 51.1289 205.27 52 205.277 53.0078H202.102C202.094 52.5859 202.004 52.2031 201.832 51.8594C201.668 51.5156 201.426 51.2422 201.105 51.0391C200.793 50.8281 200.406 50.7227 199.945 50.7227C199.453 50.7227 199.051 50.8281 198.738 51.0391C198.426 51.2422 198.184 51.5234 198.012 51.8828C197.84 52.2344 197.719 52.6367 197.648 53.0898C197.586 53.5352 197.555 54.0039 197.555 54.4961V54.8359C197.555 55.3281 197.586 55.8008 197.648 56.2539C197.711 56.707 197.828 57.1094 198 57.4609C198.18 57.8125 198.426 58.0898 198.738 58.293C199.051 58.4961 199.457 58.5977 199.957 58.5977ZM206.695 54.7891V54.543C206.695 53.6133 206.828 52.7578 207.094 51.9766C207.359 51.1875 207.746 50.5039 208.254 49.9258C208.762 49.3477 209.387 48.8984 210.129 48.5781C210.871 48.25 211.723 48.0859 212.684 48.0859C213.645 48.0859 214.5 48.25 215.25 48.5781C216 48.8984 216.629 49.3477 217.137 49.9258C217.652 50.5039 218.043 51.1875 218.309 51.9766C218.574 52.7578 218.707 53.6133 218.707 54.543V54.7891C218.707 55.7109 218.574 56.5664 218.309 57.3555C218.043 58.1367 217.652 58.8203 217.137 59.4062C216.629 59.9844 216.004 60.4336 215.262 60.7539C214.52 61.0742 213.668 61.2344 212.707 61.2344C211.746 61.2344 210.891 61.0742 210.141 60.7539C209.398 60.4336 208.77 59.9844 208.254 59.4062C207.746 58.8203 207.359 58.1367 207.094 57.3555C206.828 56.5664 206.695 55.7109 206.695 54.7891ZM210.07 54.543V54.7891C210.07 55.3203 210.117 55.8164 210.211 56.2773C210.305 56.7383 210.453 57.1445 210.656 57.4961C210.867 57.8398 211.141 58.1094 211.477 58.3047C211.812 58.5 212.223 58.5977 212.707 58.5977C213.176 58.5977 213.578 58.5 213.914 58.3047C214.25 58.1094 214.52 57.8398 214.723 57.4961C214.926 57.1445 215.074 56.7383 215.168 56.2773C215.27 55.8164 215.32 55.3203 215.32 54.7891V54.543C215.32 54.0273 215.27 53.543 215.168 53.0898C215.074 52.6289 214.922 52.2227 214.711 51.8711C214.508 51.5117 214.238 51.2305 213.902 51.0273C213.566 50.8242 213.16 50.7227 212.684 50.7227C212.207 50.7227 211.801 50.8242 211.465 51.0273C211.137 51.2305 210.867 51.5117 210.656 51.8711C210.453 52.2227 210.305 52.6289 210.211 53.0898C210.117 53.543 210.07 54.0273 210.07 54.543ZM224.906 58.5391L227.719 48.3203H231.246L226.969 61H224.836L224.906 58.5391ZM222.973 48.3203L225.797 58.5508L225.855 61H223.711L219.434 48.3203H222.973ZM238.43 61.2344C237.445 61.2344 236.562 61.0781 235.781 60.7656C235 60.4453 234.336 60.0039 233.789 59.4414C233.25 58.8789 232.836 58.2266 232.547 57.4844C232.258 56.7344 232.113 55.9375 232.113 55.0938V54.625C232.113 53.6641 232.25 52.7852 232.523 51.9883C232.797 51.1914 233.188 50.5 233.695 49.9141C234.211 49.3281 234.836 48.8789 235.57 48.5664C236.305 48.2461 237.133 48.0859 238.055 48.0859C238.953 48.0859 239.75 48.2344 240.445 48.5312C241.141 48.8281 241.723 49.25 242.191 49.7969C242.668 50.3438 243.027 51 243.27 51.7656C243.512 52.5234 243.633 53.3672 243.633 54.2969V55.7031H233.555V53.4531H240.316V53.1953C240.316 52.7266 240.23 52.3086 240.059 51.9414C239.895 51.5664 239.645 51.2695 239.309 51.0508C238.973 50.832 238.543 50.7227 238.02 50.7227C237.574 50.7227 237.191 50.8203 236.871 51.0156C236.551 51.2109 236.289 51.4844 236.086 51.8359C235.891 52.1875 235.742 52.6016 235.641 53.0781C235.547 53.5469 235.5 54.0625 235.5 54.625V55.0938C235.5 55.6016 235.57 56.0703 235.711 56.5C235.859 56.9297 236.066 57.3008 236.332 57.6133C236.605 57.9258 236.934 58.168 237.316 58.3398C237.707 58.5117 238.148 58.5977 238.641 58.5977C239.25 58.5977 239.816 58.4805 240.34 58.2461C240.871 58.0039 241.328 57.6406 241.711 57.1562L243.352 58.9375C243.086 59.3203 242.723 59.6875 242.262 60.0391C241.809 60.3906 241.262 60.6797 240.621 60.9062C239.98 61.125 239.25 61.2344 238.43 61.2344ZM248.93 51.0859V61H245.555V48.3203H248.73L248.93 51.0859ZM252.75 48.2383L252.691 51.3672C252.527 51.3438 252.328 51.3242 252.094 51.3086C251.867 51.2852 251.66 51.2734 251.473 51.2734C250.996 51.2734 250.582 51.3359 250.23 51.4609C249.887 51.5781 249.598 51.7539 249.363 51.9883C249.137 52.2227 248.965 52.5078 248.848 52.8438C248.738 53.1797 248.676 53.5625 248.66 53.9922L247.98 53.7812C247.98 52.9609 248.062 52.207 248.227 51.5195C248.391 50.8242 248.629 50.2188 248.941 49.7031C249.262 49.1875 249.652 48.7891 250.113 48.5078C250.574 48.2266 251.102 48.0859 251.695 48.0859C251.883 48.0859 252.074 48.1016 252.27 48.1328C252.465 48.1562 252.625 48.1914 252.75 48.2383ZM258.316 59.5703L261.68 48.3203H265.301L260.203 62.9102C260.094 63.2305 259.945 63.5742 259.758 63.9414C259.578 64.3086 259.332 64.6562 259.02 64.9844C258.715 65.3203 258.328 65.5938 257.859 65.8047C257.398 66.0156 256.832 66.1211 256.16 66.1211C255.84 66.1211 255.578 66.1016 255.375 66.0625C255.172 66.0234 254.93 65.9688 254.648 65.8984V63.4258C254.734 63.4258 254.824 63.4258 254.918 63.4258C255.012 63.4336 255.102 63.4375 255.188 63.4375C255.633 63.4375 255.996 63.3867 256.277 63.2852C256.559 63.1836 256.785 63.0273 256.957 62.8164C257.129 62.6133 257.266 62.3477 257.367 62.0195L258.316 59.5703ZM256.91 48.3203L259.664 57.5078L260.145 61.082L257.848 61.3281L253.289 48.3203H256.91Z" fill="#888888"/>
<path d="M118.594 98.4219V104.75H101.086V98.4219H118.594ZM103.828 84.875V119H95.6016V84.875H103.828ZM124.125 84.875V119H115.922V84.875H124.125ZM127.992 106.578V106.086C127.992 104.227 128.258 102.516 128.789 100.953C129.32 99.375 130.102 98.0078 131.133 96.8516C132.164 95.6953 133.438 94.7969 134.953 94.1562C136.469 93.5 138.219 93.1719 140.203 93.1719C142.203 93.1719 143.961 93.5 145.477 94.1562C147.008 94.7969 148.289 95.6953 149.32 96.8516C150.352 98.0078 151.133 99.375 151.664 100.953C152.195 102.516 152.461 104.227 152.461 106.086V106.578C152.461 108.422 152.195 110.133 151.664 111.711C151.133 113.273 150.352 114.641 149.32 115.812C148.289 116.969 147.016 117.867 145.5 118.508C143.984 119.148 142.234 119.469 140.25 119.469C138.266 119.469 136.508 119.148 134.977 118.508C133.445 117.867 132.164 116.969 131.133 115.812C130.102 114.641 129.32 113.273 128.789 111.711C128.258 110.133 127.992 108.422 127.992 106.578ZM135.891 106.086V106.578C135.891 107.531 135.961 108.422 136.102 109.25C136.242 110.078 136.477 110.805 136.805 111.43C137.133 112.039 137.578 112.516 138.141 112.859C138.703 113.203 139.406 113.375 140.25 113.375C141.078 113.375 141.766 113.203 142.312 112.859C142.875 112.516 143.32 112.039 143.648 111.43C143.977 110.805 144.211 110.078 144.352 109.25C144.492 108.422 144.562 107.531 144.562 106.578V106.086C144.562 105.164 144.492 104.297 144.352 103.484C144.211 102.656 143.977 101.93 143.648 101.305C143.32 100.664 142.875 100.164 142.312 99.8047C141.75 99.4453 141.047 99.2656 140.203 99.2656C139.375 99.2656 138.68 99.4453 138.117 99.8047C137.57 100.164 137.133 100.664 136.805 101.305C136.477 101.93 136.242 102.656 136.102 103.484C135.961 104.297 135.891 105.164 135.891 106.086ZM163.688 111.453L168.375 93.6406H173.32L171.562 102.57L166.922 119H162.961L163.688 111.453ZM161.836 93.6406L164.742 111.312L165.07 119H160.266L154.266 93.6406H161.836ZM177.492 110.938L180.422 93.6406H187.992L182.039 119H177.234L177.492 110.938ZM173.883 93.6406L178.617 111.406L179.344 119H175.336L170.789 102.617L169.102 93.6406H173.883ZM218.297 84.875V119H210.07V84.875H218.297ZM228.562 84.875V91.2266H200.039V84.875H228.562ZM225.773 106.578V106.086C225.773 104.227 226.039 102.516 226.57 100.953C227.102 99.375 227.883 98.0078 228.914 96.8516C229.945 95.6953 231.219 94.7969 232.734 94.1562C234.25 93.5 236 93.1719 237.984 93.1719C239.984 93.1719 241.742 93.5 243.258 94.1562C244.789 94.7969 246.07 95.6953 247.102 96.8516C248.133 98.0078 248.914 99.375 249.445 100.953C249.977 102.516 250.242 104.227 250.242 106.086V106.578C250.242 108.422 249.977 110.133 249.445 111.711C248.914 113.273 248.133 114.641 247.102 115.812C246.07 116.969 244.797 117.867 243.281 118.508C241.766 119.148 240.016 119.469 238.031 119.469C236.047 119.469 234.289 119.148 232.758 118.508C231.227 117.867 229.945 116.969 228.914 115.812C227.883 114.641 227.102 113.273 226.57 111.711C226.039 110.133 225.773 108.422 225.773 106.578ZM233.672 106.086V106.578C233.672 107.531 233.742 108.422 233.883 109.25C234.023 110.078 234.258 110.805 234.586 111.43C234.914 112.039 235.359 112.516 235.922 112.859C236.484 113.203 237.188 113.375 238.031 113.375C238.859 113.375 239.547 113.203 240.094 112.859C240.656 112.516 241.102 112.039 241.43 111.43C241.758 110.805 241.992 110.078 242.133 109.25C242.273 108.422 242.344 107.531 242.344 106.578V106.086C242.344 105.164 242.273 104.297 242.133 103.484C241.992 102.656 241.758 101.93 241.43 101.305C241.102 100.664 240.656 100.164 240.094 99.8047C239.531 99.4453 238.828 99.2656 237.984 99.2656C237.156 99.2656 236.461 99.4453 235.898 99.8047C235.352 100.164 234.914 100.664 234.586 101.305C234.258 101.93 234.023 102.656 233.883 103.484C233.742 104.297 233.672 105.164 233.672 106.086ZM266.086 84.875H279.516C282.141 84.875 284.422 85.2656 286.359 86.0469C288.297 86.8281 289.789 87.9844 290.836 89.5156C291.898 91.0469 292.43 92.9375 292.43 95.1875C292.43 97.1406 292.125 98.7734 291.516 100.086C290.906 101.398 290.055 102.484 288.961 103.344C287.883 104.188 286.625 104.883 285.188 105.43L282.492 106.953H271.219L271.172 100.602H279.516C280.562 100.602 281.43 100.414 282.117 100.039C282.805 99.6641 283.32 99.1328 283.664 98.4453C284.023 97.7422 284.203 96.9062 284.203 95.9375C284.203 94.9531 284.023 94.1094 283.664 93.4062C283.305 92.7031 282.773 92.1641 282.07 91.7891C281.383 91.4141 280.531 91.2266 279.516 91.2266H274.312V119H266.086V84.875ZM284.766 119L277.219 103.906L285.938 103.859L293.578 118.648V119H284.766ZM311.836 112.836V93.6406H319.758V119H312.352L311.836 112.836ZM312.586 107.68L314.648 107.633C314.648 109.336 314.445 110.914 314.039 112.367C313.633 113.805 313.031 115.055 312.234 116.117C311.453 117.18 310.484 118.008 309.328 118.602C308.188 119.18 306.867 119.469 305.367 119.469C304.117 119.469 302.969 119.297 301.922 118.953C300.891 118.594 300 118.039 299.25 117.289C298.5 116.523 297.914 115.547 297.492 114.359C297.086 113.156 296.883 111.719 296.883 110.047V93.6406H304.781V110.094C304.781 110.656 304.852 111.141 304.992 111.547C305.133 111.953 305.336 112.297 305.602 112.578C305.867 112.844 306.195 113.047 306.586 113.188C306.992 113.312 307.453 113.375 307.969 113.375C309.156 113.375 310.086 113.125 310.758 112.625C311.43 112.125 311.898 111.445 312.164 110.586C312.445 109.727 312.586 108.758 312.586 107.68ZM331.875 99.0547V119H323.977V93.6406H331.383L331.875 99.0547ZM330.938 105.453L329.086 105.5C329.086 103.562 329.32 101.836 329.789 100.32C330.258 98.7891 330.922 97.4922 331.781 96.4297C332.641 95.3672 333.664 94.5625 334.852 94.0156C336.055 93.4531 337.391 93.1719 338.859 93.1719C340.031 93.1719 341.102 93.3438 342.07 93.6875C343.055 94.0312 343.898 94.5859 344.602 95.3516C345.32 96.1172 345.867 97.1328 346.242 98.3984C346.633 99.6484 346.828 101.195 346.828 103.039V119H338.883V103.016C338.883 102 338.742 101.227 338.461 100.695C338.18 100.148 337.773 99.7734 337.242 99.5703C336.711 99.3672 336.062 99.2656 335.297 99.2656C334.484 99.2656 333.797 99.4219 333.234 99.7344C332.672 100.047 332.219 100.484 331.875 101.047C331.547 101.594 331.305 102.242 331.148 102.992C331.008 103.742 330.938 104.562 330.938 105.453ZM363.773 108.195H357.047C357.047 106.82 357.141 105.609 357.328 104.562C357.531 103.5 357.875 102.547 358.359 101.703C358.844 100.859 359.5 100.078 360.328 99.3594C361.062 98.75 361.695 98.1641 362.227 97.6016C362.758 97.0391 363.164 96.4688 363.445 95.8906C363.727 95.3125 363.867 94.6953 363.867 94.0391C363.867 93.2266 363.75 92.5625 363.516 92.0469C363.297 91.5312 362.961 91.1484 362.508 90.8984C362.07 90.6328 361.516 90.5 360.844 90.5C360.297 90.5 359.781 90.6328 359.297 90.8984C358.828 91.1641 358.445 91.5781 358.148 92.1406C357.852 92.6875 357.688 93.4141 357.656 94.3203H349.711C349.758 91.9922 350.273 90.1016 351.258 88.6484C352.258 87.1797 353.586 86.1094 355.242 85.4375C356.914 84.75 358.781 84.4062 360.844 84.4062C363.125 84.4062 365.086 84.7578 366.727 85.4609C368.367 86.1641 369.625 87.2109 370.5 88.6016C371.375 89.9766 371.812 91.6719 371.812 93.6875C371.812 95.0312 371.555 96.2031 371.039 97.2031C370.539 98.1875 369.859 99.1094 369 99.9688C368.156 100.812 367.211 101.719 366.164 102.688C365.258 103.484 364.641 104.297 364.312 105.125C363.984 105.938 363.805 106.961 363.773 108.195ZM356.086 115.32C356.086 114.195 356.492 113.258 357.305 112.508C358.117 111.742 359.172 111.359 360.469 111.359C361.766 111.359 362.82 111.742 363.633 112.508C364.445 113.258 364.852 114.195 364.852 115.32C364.852 116.445 364.445 117.391 363.633 118.156C362.82 118.906 361.766 119.281 360.469 119.281C359.172 119.281 358.117 118.906 357.305 118.156C356.492 117.391 356.086 116.445 356.086 115.32Z" fill="#1D2126"/>
<path d="M1134 0H1348C1356.28 0 1363 6.71573 1363 15V148C1363 156.284 1356.28 163 1348 163H1134V0Z" fill="#FF7070"/>
<path d="M1260.62 78.8078C1263.81 78.8078 1266.93 79.7552 1269.59 81.5302C1272.25 83.3052 1274.32 85.8281 1275.54 88.7798C1276.76 91.7315 1277.08 94.9795 1276.46 98.1131C1275.84 101.247 1274.3 104.125 1272.04 106.384C1269.78 108.643 1266.9 110.182 1263.77 110.805C1260.63 111.428 1257.39 111.108 1254.43 109.886C1251.48 108.663 1248.96 106.593 1247.18 103.936C1245.41 101.28 1244.46 98.1565 1244.46 94.9616C1244.46 90.6774 1246.16 86.5686 1249.19 83.5392C1252.22 80.5097 1256.33 78.8078 1260.62 78.8078ZM1260.62 73.4232C1256.36 73.4232 1252.19 74.6864 1248.65 77.0531C1245.11 79.4198 1242.35 82.7836 1240.72 86.7192C1239.09 90.6549 1238.66 94.9855 1239.49 99.1636C1240.32 103.342 1242.37 107.179 1245.39 110.192C1248.4 113.204 1252.24 115.255 1256.41 116.086C1260.59 116.917 1264.92 116.491 1268.86 114.861C1272.79 113.23 1276.16 110.47 1278.52 106.928C1280.89 103.386 1282.15 99.2215 1282.15 94.9616C1282.15 89.2493 1279.88 83.7709 1275.85 79.7317C1271.81 75.6924 1266.33 73.4232 1260.62 73.4232Z" fill="white"/>
<path d="M1274.08 46.4999H1220.23C1218.8 46.4999 1217.43 47.0672 1216.42 48.0771C1215.41 49.0869 1214.85 50.4565 1214.85 51.8845V105.731C1214.85 107.159 1215.41 108.528 1216.42 109.538C1217.43 110.548 1218.8 111.115 1220.23 111.115H1231V105.731H1220.23V68.0383H1279.46V51.8845C1279.46 50.4565 1278.89 49.0869 1277.88 48.0771C1276.87 47.0672 1275.5 46.4999 1274.08 46.4999ZM1220.23 62.6537V51.8845H1274.08V62.6537H1220.23Z" fill="white"/>
<path d="M1255.23 86.8848V103.039L1268.69 94.9617L1255.23 86.8848Z" fill="white"/>
</svg>
