<svg width="1363" height="163" viewBox="0 0 1363 163" fill="none" xmlns="http://www.w3.org/2000/svg">
<path d="M0 15C0 6.71573 6.71573 0 15 0H37V163H15C6.71573 163 0 156.284 0 148V15Z" fill="#5B5B5B"/>
<rect width="1097" height="163" transform="translate(37)" fill="#F0F0F0"/>
<path d="M101.906 53.9219L94.3945 51.2383V48.0859L104.602 52.375V54.6367L101.906 53.9219ZM94.3945 56.1719L101.918 53.4297L104.602 52.7852V55.0352L94.3945 59.3242V56.1719ZM118.137 61H114.422L114.445 58.2578H118.137C119.059 58.2578 119.836 58.0508 120.469 57.6367C121.102 57.2148 121.578 56.6016 121.898 55.7969C122.227 54.9922 122.391 54.0195 122.391 52.8789V52.0469C122.391 51.1719 122.297 50.4023 122.109 49.7383C121.93 49.0742 121.66 48.5156 121.301 48.0625C120.941 47.6094 120.5 47.2695 119.977 47.043C119.453 46.8086 118.852 46.6914 118.172 46.6914H114.352V43.9375H118.172C119.312 43.9375 120.355 44.1328 121.301 44.5234C122.254 44.9062 123.078 45.457 123.773 46.1758C124.469 46.8945 125.004 47.7539 125.379 48.7539C125.762 49.7461 125.953 50.8516 125.953 52.0703V52.8789C125.953 54.0898 125.762 55.1953 125.379 56.1953C125.004 57.1953 124.469 58.0547 123.773 58.7734C123.086 59.4844 122.262 60.0352 121.301 60.4258C120.348 60.8086 119.293 61 118.137 61ZM116.414 43.9375V61H112.898V43.9375H116.414ZM131.859 48.3203V61H128.473V48.3203H131.859ZM128.262 45.0156C128.262 44.5234 128.434 44.1172 128.777 43.7969C129.121 43.4766 129.582 43.3164 130.16 43.3164C130.73 43.3164 131.188 43.4766 131.531 43.7969C131.883 44.1172 132.059 44.5234 132.059 45.0156C132.059 45.5078 131.883 45.9141 131.531 46.2344C131.188 46.5547 130.73 46.7148 130.16 46.7148C129.582 46.7148 129.121 46.5547 128.777 46.2344C128.434 45.9141 128.262 45.5078 128.262 45.0156ZM141.504 57.4961C141.504 57.2539 141.434 57.0352 141.293 56.8398C141.152 56.6445 140.891 56.4648 140.508 56.3008C140.133 56.1289 139.59 55.9727 138.879 55.832C138.238 55.6914 137.641 55.5156 137.086 55.3047C136.539 55.0859 136.062 54.8242 135.656 54.5195C135.258 54.2148 134.945 53.8555 134.719 53.4414C134.492 53.0195 134.379 52.5391 134.379 52C134.379 51.4688 134.492 50.9688 134.719 50.5C134.953 50.0312 135.285 49.6172 135.715 49.2578C136.152 48.8906 136.684 48.6055 137.309 48.4023C137.941 48.1914 138.652 48.0859 139.441 48.0859C140.543 48.0859 141.488 48.2617 142.277 48.6133C143.074 48.9648 143.684 49.4492 144.105 50.0664C144.535 50.6758 144.75 51.3711 144.75 52.1523H141.375C141.375 51.8242 141.305 51.5312 141.164 51.2734C141.031 51.0078 140.82 50.8008 140.531 50.6523C140.25 50.4961 139.883 50.418 139.43 50.418C139.055 50.418 138.73 50.4844 138.457 50.6172C138.184 50.7422 137.973 50.9141 137.824 51.1328C137.684 51.3438 137.613 51.5781 137.613 51.8359C137.613 52.0312 137.652 52.207 137.73 52.3633C137.816 52.5117 137.953 52.6484 138.141 52.7734C138.328 52.8984 138.57 53.0156 138.867 53.125C139.172 53.2266 139.547 53.3203 139.992 53.4062C140.906 53.5938 141.723 53.8398 142.441 54.1445C143.16 54.4414 143.73 54.8477 144.152 55.3633C144.574 55.8711 144.785 56.5391 144.785 57.3672C144.785 57.9297 144.66 58.4453 144.41 58.9141C144.16 59.3828 143.801 59.793 143.332 60.1445C142.863 60.4883 142.301 60.7578 141.645 60.9531C140.996 61.1406 140.266 61.2344 139.453 61.2344C138.273 61.2344 137.273 61.0234 136.453 60.6016C135.641 60.1797 135.023 59.6445 134.602 58.9961C134.188 58.3398 133.98 57.668 133.98 56.9805H137.18C137.195 57.4414 137.312 57.8125 137.531 58.0938C137.758 58.375 138.043 58.5781 138.387 58.7031C138.738 58.8281 139.117 58.8906 139.523 58.8906C139.961 58.8906 140.324 58.832 140.613 58.7148C140.902 58.5898 141.121 58.4258 141.27 58.2227C141.426 58.0117 141.504 57.7695 141.504 57.4961ZM150.27 43V61H146.895V43H150.27ZM149.789 54.2148H148.863C148.871 53.332 148.988 52.5195 149.215 51.7773C149.441 51.0273 149.766 50.3789 150.188 49.832C150.609 49.2773 151.113 48.8477 151.699 48.543C152.293 48.2383 152.949 48.0859 153.668 48.0859C154.293 48.0859 154.859 48.1758 155.367 48.3555C155.883 48.5273 156.324 48.8086 156.691 49.1992C157.066 49.582 157.355 50.0859 157.559 50.7109C157.762 51.3359 157.863 52.0938 157.863 52.9844V61H154.465V52.9609C154.465 52.3984 154.383 51.957 154.219 51.6367C154.062 51.3086 153.832 51.0781 153.527 50.9453C153.23 50.8047 152.863 50.7344 152.426 50.7344C151.941 50.7344 151.527 50.8242 151.184 51.0039C150.848 51.1836 150.578 51.4336 150.375 51.7539C150.172 52.0664 150.023 52.4336 149.93 52.8555C149.836 53.2773 149.789 53.7305 149.789 54.2148ZM165.879 61H162.164L162.188 58.2578H165.879C166.801 58.2578 167.578 58.0508 168.211 57.6367C168.844 57.2148 169.32 56.6016 169.641 55.7969C169.969 54.9922 170.133 54.0195 170.133 52.8789V52.0469C170.133 51.1719 170.039 50.4023 169.852 49.7383C169.672 49.0742 169.402 48.5156 169.043 48.0625C168.684 47.6094 168.242 47.2695 167.719 47.043C167.195 46.8086 166.594 46.6914 165.914 46.6914H162.094V43.9375H165.914C167.055 43.9375 168.098 44.1328 169.043 44.5234C169.996 44.9062 170.82 45.457 171.516 46.1758C172.211 46.8945 172.746 47.7539 173.121 48.7539C173.504 49.7461 173.695 50.8516 173.695 52.0703V52.8789C173.695 54.0898 173.504 55.1953 173.121 56.1953C172.746 57.1953 172.211 58.0547 171.516 58.7734C170.828 59.4844 170.004 60.0352 169.043 60.4258C168.09 60.8086 167.035 61 165.879 61ZM164.156 43.9375V61H160.641V43.9375H164.156ZM179.602 48.3203V61H176.215V48.3203H179.602ZM176.004 45.0156C176.004 44.5234 176.176 44.1172 176.52 43.7969C176.863 43.4766 177.324 43.3164 177.902 43.3164C178.473 43.3164 178.93 43.4766 179.273 43.7969C179.625 44.1172 179.801 44.5234 179.801 45.0156C179.801 45.5078 179.625 45.9141 179.273 46.2344C178.93 46.5547 178.473 46.7148 177.902 46.7148C177.324 46.7148 176.863 46.5547 176.52 46.2344C176.176 45.9141 176.004 45.5078 176.004 45.0156ZM189.246 57.4961C189.246 57.2539 189.176 57.0352 189.035 56.8398C188.895 56.6445 188.633 56.4648 188.25 56.3008C187.875 56.1289 187.332 55.9727 186.621 55.832C185.98 55.6914 185.383 55.5156 184.828 55.3047C184.281 55.0859 183.805 54.8242 183.398 54.5195C183 54.2148 182.688 53.8555 182.461 53.4414C182.234 53.0195 182.121 52.5391 182.121 52C182.121 51.4688 182.234 50.9688 182.461 50.5C182.695 50.0312 183.027 49.6172 183.457 49.2578C183.895 48.8906 184.426 48.6055 185.051 48.4023C185.684 48.1914 186.395 48.0859 187.184 48.0859C188.285 48.0859 189.23 48.2617 190.02 48.6133C190.816 48.9648 191.426 49.4492 191.848 50.0664C192.277 50.6758 192.492 51.3711 192.492 52.1523H189.117C189.117 51.8242 189.047 51.5312 188.906 51.2734C188.773 51.0078 188.562 50.8008 188.273 50.6523C187.992 50.4961 187.625 50.418 187.172 50.418C186.797 50.418 186.473 50.4844 186.199 50.6172C185.926 50.7422 185.715 50.9141 185.566 51.1328C185.426 51.3438 185.355 51.5781 185.355 51.8359C185.355 52.0312 185.395 52.207 185.473 52.3633C185.559 52.5117 185.695 52.6484 185.883 52.7734C186.07 52.8984 186.312 53.0156 186.609 53.125C186.914 53.2266 187.289 53.3203 187.734 53.4062C188.648 53.5938 189.465 53.8398 190.184 54.1445C190.902 54.4414 191.473 54.8477 191.895 55.3633C192.316 55.8711 192.527 56.5391 192.527 57.3672C192.527 57.9297 192.402 58.4453 192.152 58.9141C191.902 59.3828 191.543 59.793 191.074 60.1445C190.605 60.4883 190.043 60.7578 189.387 60.9531C188.738 61.1406 188.008 61.2344 187.195 61.2344C186.016 61.2344 185.016 61.0234 184.195 60.6016C183.383 60.1797 182.766 59.6445 182.344 58.9961C181.93 58.3398 181.723 57.668 181.723 56.9805H184.922C184.938 57.4414 185.055 57.8125 185.273 58.0938C185.5 58.375 185.785 58.5781 186.129 58.7031C186.48 58.8281 186.859 58.8906 187.266 58.8906C187.703 58.8906 188.066 58.832 188.355 58.7148C188.645 58.5898 188.863 58.4258 189.012 58.2227C189.168 58.0117 189.246 57.7695 189.246 57.4961ZM199.957 58.5977C200.371 58.5977 200.738 58.5195 201.059 58.3633C201.379 58.1992 201.629 57.9727 201.809 57.6836C201.996 57.3867 202.094 57.0391 202.102 56.6406H205.277C205.27 57.5312 205.031 58.3242 204.562 59.0195C204.094 59.707 203.465 60.25 202.676 60.6484C201.887 61.0391 201.004 61.2344 200.027 61.2344C199.043 61.2344 198.184 61.0703 197.449 60.7422C196.723 60.4141 196.117 59.9609 195.633 59.3828C195.148 58.7969 194.785 58.1172 194.543 57.3438C194.301 56.5625 194.18 55.7266 194.18 54.8359V54.4961C194.18 53.5977 194.301 52.7617 194.543 51.9883C194.785 51.207 195.148 50.5273 195.633 49.9492C196.117 49.3633 196.723 48.9062 197.449 48.5781C198.176 48.25 199.027 48.0859 200.004 48.0859C201.043 48.0859 201.953 48.2852 202.734 48.6836C203.523 49.082 204.141 49.6523 204.586 50.3945C205.039 51.1289 205.27 52 205.277 53.0078H202.102C202.094 52.5859 202.004 52.2031 201.832 51.8594C201.668 51.5156 201.426 51.2422 201.105 51.0391C200.793 50.8281 200.406 50.7227 199.945 50.7227C199.453 50.7227 199.051 50.8281 198.738 51.0391C198.426 51.2422 198.184 51.5234 198.012 51.8828C197.84 52.2344 197.719 52.6367 197.648 53.0898C197.586 53.5352 197.555 54.0039 197.555 54.4961V54.8359C197.555 55.3281 197.586 55.8008 197.648 56.2539C197.711 56.707 197.828 57.1094 198 57.4609C198.18 57.8125 198.426 58.0898 198.738 58.293C199.051 58.4961 199.457 58.5977 199.957 58.5977ZM206.695 54.7891V54.543C206.695 53.6133 206.828 52.7578 207.094 51.9766C207.359 51.1875 207.746 50.5039 208.254 49.9258C208.762 49.3477 209.387 48.8984 210.129 48.5781C210.871 48.25 211.723 48.0859 212.684 48.0859C213.645 48.0859 214.5 48.25 215.25 48.5781C216 48.8984 216.629 49.3477 217.137 49.9258C217.652 50.5039 218.043 51.1875 218.309 51.9766C218.574 52.7578 218.707 53.6133 218.707 54.543V54.7891C218.707 55.7109 218.574 56.5664 218.309 57.3555C218.043 58.1367 217.652 58.8203 217.137 59.4062C216.629 59.9844 216.004 60.4336 215.262 60.7539C214.52 61.0742 213.668 61.2344 212.707 61.2344C211.746 61.2344 210.891 61.0742 210.141 60.7539C209.398 60.4336 208.77 59.9844 208.254 59.4062C207.746 58.8203 207.359 58.1367 207.094 57.3555C206.828 56.5664 206.695 55.7109 206.695 54.7891ZM210.07 54.543V54.7891C210.07 55.3203 210.117 55.8164 210.211 56.2773C210.305 56.7383 210.453 57.1445 210.656 57.4961C210.867 57.8398 211.141 58.1094 211.477 58.3047C211.812 58.5 212.223 58.5977 212.707 58.5977C213.176 58.5977 213.578 58.5 213.914 58.3047C214.25 58.1094 214.52 57.8398 214.723 57.4961C214.926 57.1445 215.074 56.7383 215.168 56.2773C215.27 55.8164 215.32 55.3203 215.32 54.7891V54.543C215.32 54.0273 215.27 53.543 215.168 53.0898C215.074 52.6289 214.922 52.2227 214.711 51.8711C214.508 51.5117 214.238 51.2305 213.902 51.0273C213.566 50.8242 213.16 50.7227 212.684 50.7227C212.207 50.7227 211.801 50.8242 211.465 51.0273C211.137 51.2305 210.867 51.5117 210.656 51.8711C210.453 52.2227 210.305 52.6289 210.211 53.0898C210.117 53.543 210.07 54.0273 210.07 54.543ZM224.906 58.5391L227.719 48.3203H231.246L226.969 61H224.836L224.906 58.5391ZM222.973 48.3203L225.797 58.5508L225.855 61H223.711L219.434 48.3203H222.973ZM238.43 61.2344C237.445 61.2344 236.562 61.0781 235.781 60.7656C235 60.4453 234.336 60.0039 233.789 59.4414C233.25 58.8789 232.836 58.2266 232.547 57.4844C232.258 56.7344 232.113 55.9375 232.113 55.0938V54.625C232.113 53.6641 232.25 52.7852 232.523 51.9883C232.797 51.1914 233.188 50.5 233.695 49.9141C234.211 49.3281 234.836 48.8789 235.57 48.5664C236.305 48.2461 237.133 48.0859 238.055 48.0859C238.953 48.0859 239.75 48.2344 240.445 48.5312C241.141 48.8281 241.723 49.25 242.191 49.7969C242.668 50.3438 243.027 51 243.27 51.7656C243.512 52.5234 243.633 53.3672 243.633 54.2969V55.7031H233.555V53.4531H240.316V53.1953C240.316 52.7266 240.23 52.3086 240.059 51.9414C239.895 51.5664 239.645 51.2695 239.309 51.0508C238.973 50.832 238.543 50.7227 238.02 50.7227C237.574 50.7227 237.191 50.8203 236.871 51.0156C236.551 51.2109 236.289 51.4844 236.086 51.8359C235.891 52.1875 235.742 52.6016 235.641 53.0781C235.547 53.5469 235.5 54.0625 235.5 54.625V55.0938C235.5 55.6016 235.57 56.0703 235.711 56.5C235.859 56.9297 236.066 57.3008 236.332 57.6133C236.605 57.9258 236.934 58.168 237.316 58.3398C237.707 58.5117 238.148 58.5977 238.641 58.5977C239.25 58.5977 239.816 58.4805 240.34 58.2461C240.871 58.0039 241.328 57.6406 241.711 57.1562L243.352 58.9375C243.086 59.3203 242.723 59.6875 242.262 60.0391C241.809 60.3906 241.262 60.6797 240.621 60.9062C239.98 61.125 239.25 61.2344 238.43 61.2344ZM248.93 51.0859V61H245.555V48.3203H248.73L248.93 51.0859ZM252.75 48.2383L252.691 51.3672C252.527 51.3438 252.328 51.3242 252.094 51.3086C251.867 51.2852 251.66 51.2734 251.473 51.2734C250.996 51.2734 250.582 51.3359 250.23 51.4609C249.887 51.5781 249.598 51.7539 249.363 51.9883C249.137 52.2227 248.965 52.5078 248.848 52.8438C248.738 53.1797 248.676 53.5625 248.66 53.9922L247.98 53.7812C247.98 52.9609 248.062 52.207 248.227 51.5195C248.391 50.8242 248.629 50.2188 248.941 49.7031C249.262 49.1875 249.652 48.7891 250.113 48.5078C250.574 48.2266 251.102 48.0859 251.695 48.0859C251.883 48.0859 252.074 48.1016 252.27 48.1328C252.465 48.1562 252.625 48.1914 252.75 48.2383ZM258.316 59.5703L261.68 48.3203H265.301L260.203 62.9102C260.094 63.2305 259.945 63.5742 259.758 63.9414C259.578 64.3086 259.332 64.6562 259.02 64.9844C258.715 65.3203 258.328 65.5938 257.859 65.8047C257.398 66.0156 256.832 66.1211 256.16 66.1211C255.84 66.1211 255.578 66.1016 255.375 66.0625C255.172 66.0234 254.93 65.9688 254.648 65.8984V63.4258C254.734 63.4258 254.824 63.4258 254.918 63.4258C255.012 63.4336 255.102 63.4375 255.188 63.4375C255.633 63.4375 255.996 63.3867 256.277 63.2852C256.559 63.1836 256.785 63.0273 256.957 62.8164C257.129 62.6133 257.266 62.3477 257.367 62.0195L258.316 59.5703ZM256.91 48.3203L259.664 57.5078L260.145 61.082L257.848 61.3281L253.289 48.3203H256.91Z" fill="#888888"/>
<path d="M106.688 119H99.1172L99.1641 112.672H106.688C108.25 112.672 109.57 112.297 110.648 111.547C111.742 110.797 112.57 109.68 113.133 108.195C113.711 106.695 114 104.852 114 102.664V101.188C114 99.5469 113.836 98.1094 113.508 96.875C113.195 95.625 112.727 94.5859 112.102 93.7578C111.477 92.9141 110.695 92.2812 109.758 91.8594C108.836 91.4375 107.773 91.2266 106.57 91.2266H98.9766V84.875H106.57C108.883 84.875 111 85.2734 112.922 86.0703C114.859 86.8516 116.531 87.9766 117.938 89.4453C119.359 90.8984 120.453 92.625 121.219 94.625C122 96.6094 122.391 98.8125 122.391 101.234V102.664C122.391 105.07 122 107.273 121.219 109.273C120.453 111.273 119.367 113 117.961 114.453C116.555 115.906 114.891 117.031 112.969 117.828C111.062 118.609 108.969 119 106.688 119ZM103.828 84.875V119H95.6016V84.875H103.828ZM138.586 119.469C136.523 119.469 134.68 119.148 133.055 118.508C131.43 117.852 130.055 116.953 128.93 115.812C127.82 114.672 126.969 113.359 126.375 111.875C125.797 110.391 125.508 108.82 125.508 107.164V106.273C125.508 104.414 125.766 102.695 126.281 101.117C126.797 99.5234 127.562 98.1328 128.578 96.9453C129.594 95.7578 130.867 94.8359 132.398 94.1797C133.93 93.5078 135.711 93.1719 137.742 93.1719C139.539 93.1719 141.148 93.4609 142.57 94.0391C143.992 94.6172 145.195 95.4453 146.18 96.5234C147.18 97.6016 147.938 98.9062 148.453 100.438C148.984 101.969 149.25 103.688 149.25 105.594V108.805H128.531V103.859H141.539V103.25C141.555 102.406 141.406 101.688 141.094 101.094C140.797 100.5 140.359 100.047 139.781 99.7344C139.203 99.4219 138.5 99.2656 137.672 99.2656C136.812 99.2656 136.102 99.4531 135.539 99.8281C134.992 100.203 134.562 100.719 134.25 101.375C133.953 102.016 133.742 102.758 133.617 103.602C133.492 104.445 133.43 105.336 133.43 106.273V107.164C133.43 108.102 133.555 108.953 133.805 109.719C134.07 110.484 134.445 111.141 134.93 111.688C135.43 112.219 136.023 112.633 136.711 112.93C137.414 113.227 138.211 113.375 139.102 113.375C140.18 113.375 141.242 113.172 142.289 112.766C143.336 112.359 144.234 111.688 144.984 110.75L148.57 115.016C148.055 115.75 147.32 116.461 146.367 117.148C145.43 117.836 144.305 118.398 142.992 118.836C141.68 119.258 140.211 119.469 138.586 119.469ZM160.43 99.0078V119H152.531V93.6406H159.938L160.43 99.0078ZM159.469 105.453L157.664 105.5C157.664 103.719 157.875 102.078 158.297 100.578C158.719 99.0781 159.344 97.7734 160.172 96.6641C161 95.5547 162.016 94.6953 163.219 94.0859C164.438 93.4766 165.844 93.1719 167.438 93.1719C168.547 93.1719 169.555 93.3438 170.461 93.6875C171.367 94.0156 172.148 94.5391 172.805 95.2578C173.461 95.9609 173.961 96.8828 174.305 98.0234C174.664 99.1484 174.844 100.5 174.844 102.078V119H166.945V103.086C166.945 102.008 166.82 101.195 166.57 100.648C166.336 100.102 165.992 99.7344 165.539 99.5469C165.086 99.3594 164.531 99.2656 163.875 99.2656C163.188 99.2656 162.57 99.4219 162.023 99.7344C161.477 100.047 161.008 100.484 160.617 101.047C160.242 101.594 159.953 102.242 159.75 102.992C159.562 103.742 159.469 104.562 159.469 105.453ZM173.953 105.453L171.75 105.5C171.75 103.719 171.945 102.078 172.336 100.578C172.742 99.0781 173.344 97.7734 174.141 96.6641C174.953 95.5547 175.961 94.6953 177.164 94.0859C178.367 93.4766 179.766 93.1719 181.359 93.1719C182.516 93.1719 183.578 93.3438 184.547 93.6875C185.516 94.0312 186.352 94.5859 187.055 95.3516C187.758 96.1172 188.305 97.1328 188.695 98.3984C189.086 99.6484 189.281 101.195 189.281 103.039V119H181.359V103.039C181.359 101.992 181.234 101.203 180.984 100.672C180.75 100.125 180.406 99.7578 179.953 99.5703C179.5 99.3672 178.961 99.2656 178.336 99.2656C177.586 99.2656 176.938 99.4219 176.391 99.7344C175.844 100.047 175.383 100.484 175.008 101.047C174.648 101.594 174.383 102.242 174.211 102.992C174.039 103.742 173.953 104.562 173.953 105.453ZM192.82 106.578V106.086C192.82 104.227 193.086 102.516 193.617 100.953C194.148 99.375 194.93 98.0078 195.961 96.8516C196.992 95.6953 198.266 94.7969 199.781 94.1562C201.297 93.5 203.047 93.1719 205.031 93.1719C207.031 93.1719 208.789 93.5 210.305 94.1562C211.836 94.7969 213.117 95.6953 214.148 96.8516C215.18 98.0078 215.961 99.375 216.492 100.953C217.023 102.516 217.289 104.227 217.289 106.086V106.578C217.289 108.422 217.023 110.133 216.492 111.711C215.961 113.273 215.18 114.641 214.148 115.812C213.117 116.969 211.844 117.867 210.328 118.508C208.812 119.148 207.062 119.469 205.078 119.469C203.094 119.469 201.336 119.148 199.805 118.508C198.273 117.867 196.992 116.969 195.961 115.812C194.93 114.641 194.148 113.273 193.617 111.711C193.086 110.133 192.82 108.422 192.82 106.578ZM200.719 106.086V106.578C200.719 107.531 200.789 108.422 200.93 109.25C201.07 110.078 201.305 110.805 201.633 111.43C201.961 112.039 202.406 112.516 202.969 112.859C203.531 113.203 204.234 113.375 205.078 113.375C205.906 113.375 206.594 113.203 207.141 112.859C207.703 112.516 208.148 112.039 208.477 111.43C208.805 110.805 209.039 110.078 209.18 109.25C209.32 108.422 209.391 107.531 209.391 106.578V106.086C209.391 105.164 209.32 104.297 209.18 103.484C209.039 102.656 208.805 101.93 208.477 101.305C208.148 100.664 207.703 100.164 207.141 99.8047C206.578 99.4453 205.875 99.2656 205.031 99.2656C204.203 99.2656 203.508 99.4453 202.945 99.8047C202.398 100.164 201.961 100.664 201.633 101.305C201.305 101.93 201.07 102.656 200.93 103.484C200.789 104.297 200.719 105.164 200.719 106.086Z" fill="#1D2126"/>
<path d="M1134 0H1348C1356.28 0 1363 6.71573 1363 15V148C1363 156.284 1356.28 163 1348 163H1134V0Z" fill="#FF7070"/>
<path d="M1281 46.5H1216L1213.5 49V114L1216 116.5H1281L1283.5 114V49L1281 46.5ZM1278.5 111.5H1233.5V101.5H1245C1246.5 104.5 1250 106.5 1253.5 106.5C1259 106.5 1263.5 102 1263.5 96.5C1263.5 91 1259 86.5 1253.5 86.5C1248 86.5 1243.5 91 1243.5 96.5H1228.5V111.5H1218.5V51.5H1228.5V63C1225.5 64.5 1223.5 68 1223.5 71.5C1223.5 77 1228 81.5 1233.5 81.5C1239 81.5 1243.5 77 1243.5 71.5H1253.5C1253.5 77 1258 81.5 1263.5 81.5C1269 81.5 1273.5 77 1273.5 71.5C1273.5 66 1269 61.5 1263.5 61.5C1260 61.5 1256.5 63.5 1255 66.5H1242C1240.5 63.5 1237 61.5 1233.5 61.5V51.5H1278.5V111.5ZM1248.5 96.5C1248.5 93.5 1250.5 91.5 1253.5 91.5C1256.5 91.5 1258.5 93.5 1258.5 96.5C1258.5 99.5 1256.5 101.5 1253.5 101.5C1250.5 101.5 1248.5 99.5 1248.5 96.5ZM1233.5 66.5C1236.5 66.5 1238.5 68.5 1238.5 71.5C1238.5 74.5 1236.5 76.5 1233.5 76.5C1230.5 76.5 1228.5 74.5 1228.5 71.5C1228.5 68.5 1230.5 66.5 1233.5 66.5ZM1263.5 66.5C1266.5 66.5 1268.5 68.5 1268.5 71.5C1268.5 74.5 1266.5 76.5 1263.5 76.5C1260.5 76.5 1258.5 74.5 1258.5 71.5C1258.5 68.5 1260.5 66.5 1263.5 66.5Z" fill="white"/>
</svg>
