<svg width="1363" height="297" viewBox="0 0 1363 297" fill="none" xmlns="http://www.w3.org/2000/svg">
<path d="M0 15C0 6.71573 6.71573 0 15 0H37V297H15C6.71573 297 0 290.284 0 282V15Z" fill="#FF7070"/>
<path d="M37 0H1066V297H37V0Z" fill="#F0F0F0"/>
<path d="M116.309 61.6055V62.8184C116.309 64.7637 116.045 66.5098 115.518 68.0566C114.99 69.6035 114.246 70.9219 113.285 72.0117C112.324 73.0898 111.176 73.916 109.84 74.4902C108.516 75.0645 107.045 75.3516 105.428 75.3516C103.822 75.3516 102.352 75.0645 101.016 74.4902C99.6914 73.916 98.543 73.0898 97.5703 72.0117C96.5977 70.9219 95.8418 69.6035 95.3027 68.0566C94.7754 66.5098 94.5117 64.7637 94.5117 62.8184V61.6055C94.5117 59.6484 94.7754 57.9023 95.3027 56.3672C95.8301 54.8203 96.5742 53.502 97.5352 52.4121C98.5078 51.3223 99.6562 50.4902 100.98 49.916C102.316 49.3418 103.787 49.0547 105.393 49.0547C107.01 49.0547 108.48 49.3418 109.805 49.916C111.141 50.4902 112.289 51.3223 113.25 52.4121C114.223 53.502 114.973 54.8203 115.5 56.3672C116.039 57.9023 116.309 59.6484 116.309 61.6055ZM110.982 62.8184V61.5703C110.982 60.2109 110.859 59.0156 110.613 57.9844C110.367 56.9531 110.004 56.0859 109.523 55.3828C109.043 54.6797 108.457 54.1523 107.766 53.8008C107.074 53.4375 106.283 53.2559 105.393 53.2559C104.502 53.2559 103.711 53.4375 103.02 53.8008C102.34 54.1523 101.76 54.6797 101.279 55.3828C100.811 56.0859 100.453 56.9531 100.207 57.9844C99.9609 59.0156 99.8379 60.2109 99.8379 61.5703V62.8184C99.8379 64.166 99.9609 65.3613 100.207 66.4043C100.453 67.4355 100.816 68.3086 101.297 69.0234C101.777 69.7266 102.363 70.2598 103.055 70.623C103.746 70.9863 104.537 71.168 105.428 71.168C106.318 71.168 107.109 70.9863 107.801 70.623C108.492 70.2598 109.072 69.7266 109.541 69.0234C110.01 68.3086 110.367 67.4355 110.613 66.4043C110.859 65.3613 110.982 64.166 110.982 62.8184ZM124.852 59.918V75H119.771V55.9805H124.535L124.852 59.918ZM124.148 64.8223H122.742C122.742 63.498 122.9 62.2793 123.217 61.166C123.545 60.041 124.02 59.0684 124.641 58.248C125.273 57.416 126.053 56.7715 126.979 56.3145C127.904 55.8574 128.977 55.6289 130.195 55.6289C131.039 55.6289 131.812 55.7578 132.516 56.0156C133.219 56.2617 133.822 56.6543 134.326 57.1934C134.842 57.7207 135.24 58.4121 135.521 59.2676C135.803 60.1113 135.943 61.125 135.943 62.3086V75H130.881V62.8711C130.881 62.0039 130.764 61.3359 130.529 60.8672C130.295 60.3984 129.961 60.0703 129.527 59.8828C129.105 59.6953 128.596 59.6016 127.998 59.6016C127.342 59.6016 126.768 59.7363 126.275 60.0059C125.795 60.2754 125.396 60.6504 125.08 61.1309C124.764 61.5996 124.529 62.1504 124.377 62.7832C124.225 63.416 124.148 64.0957 124.148 64.8223ZM135.469 64.2422L133.658 64.4707C133.658 63.2285 133.811 62.0742 134.115 61.0078C134.432 59.9414 134.895 59.0039 135.504 58.1953C136.125 57.3867 136.893 56.7598 137.807 56.3145C138.721 55.8574 139.775 55.6289 140.971 55.6289C141.885 55.6289 142.717 55.7637 143.467 56.0332C144.217 56.291 144.855 56.707 145.383 57.2812C145.922 57.8438 146.332 58.582 146.613 59.4961C146.906 60.4102 147.053 61.5293 147.053 62.8535V75H141.973V62.8535C141.973 61.9746 141.855 61.3066 141.621 60.8496C141.398 60.3809 141.07 60.0586 140.637 59.8828C140.215 59.6953 139.711 59.6016 139.125 59.6016C138.516 59.6016 137.982 59.7246 137.525 59.9707C137.068 60.2051 136.688 60.5332 136.383 60.9551C136.078 61.377 135.85 61.8691 135.697 62.4316C135.545 62.9824 135.469 63.5859 135.469 64.2422ZM161.238 70.7109V62.2383C161.238 61.6289 161.139 61.1074 160.939 60.6738C160.74 60.2285 160.43 59.8828 160.008 59.6367C159.598 59.3906 159.064 59.2676 158.408 59.2676C157.846 59.2676 157.359 59.3672 156.949 59.5664C156.539 59.7539 156.223 60.0293 156 60.3926C155.777 60.7441 155.666 61.1602 155.666 61.6406H150.604C150.604 60.832 150.791 60.0645 151.166 59.3379C151.541 58.6113 152.086 57.9727 152.801 57.4219C153.516 56.8594 154.365 56.4199 155.35 56.1035C156.346 55.7871 157.459 55.6289 158.689 55.6289C160.166 55.6289 161.479 55.875 162.627 56.3672C163.775 56.8594 164.678 57.5977 165.334 58.582C166.002 59.5664 166.336 60.7969 166.336 62.2734V70.4121C166.336 71.4551 166.4 72.3105 166.529 72.9785C166.658 73.6348 166.846 74.209 167.092 74.7012V75H161.977C161.73 74.4844 161.543 73.8398 161.414 73.0664C161.297 72.2812 161.238 71.4961 161.238 70.7109ZM161.906 63.416L161.941 66.2812H159.111C158.443 66.2812 157.863 66.3574 157.371 66.5098C156.879 66.6621 156.475 66.8789 156.158 67.1602C155.842 67.4297 155.607 67.7461 155.455 68.1094C155.314 68.4727 155.244 68.8711 155.244 69.3047C155.244 69.7383 155.344 70.1309 155.543 70.4824C155.742 70.8223 156.029 71.0918 156.404 71.291C156.779 71.4785 157.219 71.5723 157.723 71.5723C158.484 71.5723 159.146 71.4199 159.709 71.1152C160.271 70.8105 160.705 70.4355 161.01 69.9902C161.326 69.5449 161.49 69.123 161.502 68.7246L162.838 70.8691C162.65 71.3496 162.393 71.8477 162.064 72.3633C161.748 72.8789 161.344 73.3652 160.852 73.8223C160.359 74.2676 159.768 74.6367 159.076 74.9297C158.385 75.2109 157.564 75.3516 156.615 75.3516C155.408 75.3516 154.312 75.1113 153.328 74.6309C152.355 74.1387 151.582 73.4648 151.008 72.6094C150.445 71.7422 150.164 70.7578 150.164 69.6562C150.164 68.6602 150.352 67.7754 150.727 67.002C151.102 66.2285 151.652 65.5781 152.379 65.0508C153.117 64.5117 154.037 64.1074 155.139 63.8379C156.24 63.5566 157.518 63.416 158.971 63.416H161.906ZM175.301 60.1289V75H170.238V55.9805H175.002L175.301 60.1289ZM181.031 55.8574L180.943 60.5508C180.697 60.5156 180.398 60.4863 180.047 60.4629C179.707 60.4277 179.396 60.4102 179.115 60.4102C178.4 60.4102 177.779 60.5039 177.252 60.6914C176.736 60.8672 176.303 61.1309 175.951 61.4824C175.611 61.834 175.354 62.2617 175.178 62.7656C175.014 63.2695 174.92 63.8438 174.896 64.4883L173.877 64.1719C173.877 62.9414 174 61.8105 174.246 60.7793C174.492 59.7363 174.85 58.8281 175.318 58.0547C175.799 57.2812 176.385 56.6836 177.076 56.2617C177.768 55.8398 178.559 55.6289 179.449 55.6289C179.73 55.6289 180.018 55.6523 180.311 55.6992C180.604 55.7344 180.844 55.7871 181.031 55.8574ZM197.977 49.4062V75H192.703V49.4062H197.977ZM213.305 49.4062L203.162 62.0449L197.309 68.3379L196.359 63.3457L200.314 57.9316L206.836 49.4062H213.305ZM207.311 75L199.77 63.1699L203.672 59.9004L213.551 75H207.311ZM220.336 60.1289V75H215.273V55.9805H220.037L220.336 60.1289ZM226.066 55.8574L225.979 60.5508C225.732 60.5156 225.434 60.4863 225.082 60.4629C224.742 60.4277 224.432 60.4102 224.15 60.4102C223.436 60.4102 222.814 60.5039 222.287 60.6914C221.771 60.8672 221.338 61.1309 220.986 61.4824C220.646 61.834 220.389 62.2617 220.213 62.7656C220.049 63.2695 219.955 63.8438 219.932 64.4883L218.912 64.1719C218.912 62.9414 219.035 61.8105 219.281 60.7793C219.527 59.7363 219.885 58.8281 220.354 58.0547C220.834 57.2812 221.42 56.6836 222.111 56.2617C222.803 55.8398 223.594 55.6289 224.484 55.6289C224.766 55.6289 225.053 55.6523 225.346 55.6992C225.639 55.7344 225.879 55.7871 226.066 55.8574ZM238.125 70.7109V62.2383C238.125 61.6289 238.025 61.1074 237.826 60.6738C237.627 60.2285 237.316 59.8828 236.895 59.6367C236.484 59.3906 235.951 59.2676 235.295 59.2676C234.732 59.2676 234.246 59.3672 233.836 59.5664C233.426 59.7539 233.109 60.0293 232.887 60.3926C232.664 60.7441 232.553 61.1602 232.553 61.6406H227.49C227.49 60.832 227.678 60.0645 228.053 59.3379C228.428 58.6113 228.973 57.9727 229.688 57.4219C230.402 56.8594 231.252 56.4199 232.236 56.1035C233.232 55.7871 234.346 55.6289 235.576 55.6289C237.053 55.6289 238.365 55.875 239.514 56.3672C240.662 56.8594 241.564 57.5977 242.221 58.582C242.889 59.5664 243.223 60.7969 243.223 62.2734V70.4121C243.223 71.4551 243.287 72.3105 243.416 72.9785C243.545 73.6348 243.732 74.209 243.979 74.7012V75H238.863C238.617 74.4844 238.43 73.8398 238.301 73.0664C238.184 72.2812 238.125 71.4961 238.125 70.7109ZM238.793 63.416L238.828 66.2812H235.998C235.33 66.2812 234.75 66.3574 234.258 66.5098C233.766 66.6621 233.361 66.8789 233.045 67.1602C232.729 67.4297 232.494 67.7461 232.342 68.1094C232.201 68.4727 232.131 68.8711 232.131 69.3047C232.131 69.7383 232.23 70.1309 232.43 70.4824C232.629 70.8223 232.916 71.0918 233.291 71.291C233.666 71.4785 234.105 71.5723 234.609 71.5723C235.371 71.5723 236.033 71.4199 236.596 71.1152C237.158 70.8105 237.592 70.4355 237.896 69.9902C238.213 69.5449 238.377 69.123 238.389 68.7246L239.725 70.8691C239.537 71.3496 239.279 71.8477 238.951 72.3633C238.635 72.8789 238.23 73.3652 237.738 73.8223C237.246 74.2676 236.654 74.6367 235.963 74.9297C235.271 75.2109 234.451 75.3516 233.502 75.3516C232.295 75.3516 231.199 75.1113 230.215 74.6309C229.242 74.1387 228.469 73.4648 227.895 72.6094C227.332 71.7422 227.051 70.7578 227.051 69.6562C227.051 68.6602 227.238 67.7754 227.613 67.002C227.988 66.2285 228.539 65.5781 229.266 65.0508C230.004 64.5117 230.924 64.1074 232.025 63.8379C233.127 63.5566 234.404 63.416 235.857 63.416H238.793ZM252.486 72.8555L257.531 55.9805H262.963L255.316 77.8652C255.152 78.3457 254.93 78.8613 254.648 79.4121C254.379 79.9629 254.01 80.4844 253.541 80.9766C253.084 81.4805 252.504 81.8906 251.801 82.207C251.109 82.5234 250.26 82.6816 249.252 82.6816C248.771 82.6816 248.379 82.6523 248.074 82.5938C247.77 82.5352 247.406 82.4531 246.984 82.3477V78.6387C247.113 78.6387 247.248 78.6387 247.389 78.6387C247.529 78.6504 247.664 78.6562 247.793 78.6562C248.461 78.6562 249.006 78.5801 249.428 78.4277C249.85 78.2754 250.189 78.041 250.447 77.7246C250.705 77.4199 250.91 77.0215 251.062 76.5293L252.486 72.8555ZM250.377 55.9805L254.508 69.7617L255.229 75.123L251.783 75.4922L244.945 55.9805H250.377ZM270.627 72.8555L275.672 55.9805H281.104L273.457 77.8652C273.293 78.3457 273.07 78.8613 272.789 79.4121C272.52 79.9629 272.15 80.4844 271.682 80.9766C271.225 81.4805 270.645 81.8906 269.941 82.207C269.25 82.5234 268.4 82.6816 267.393 82.6816C266.912 82.6816 266.52 82.6523 266.215 82.5938C265.91 82.5352 265.547 82.4531 265.125 82.3477V78.6387C265.254 78.6387 265.389 78.6387 265.529 78.6387C265.67 78.6504 265.805 78.6562 265.934 78.6562C266.602 78.6562 267.146 78.5801 267.568 78.4277C267.99 78.2754 268.33 78.041 268.588 77.7246C268.846 77.4199 269.051 77.0215 269.203 76.5293L270.627 72.8555ZM268.518 55.9805L272.648 69.7617L273.369 75.123L269.924 75.4922L263.086 55.9805H268.518ZM291.633 75.3516C290.156 75.3516 288.832 75.1172 287.66 74.6484C286.488 74.168 285.492 73.5059 284.672 72.6621C283.863 71.8184 283.242 70.8398 282.809 69.7266C282.375 68.6016 282.158 67.4062 282.158 66.1406V65.4375C282.158 63.9961 282.363 62.6777 282.773 61.4824C283.184 60.2871 283.77 59.25 284.531 58.3711C285.305 57.4922 286.242 56.8184 287.344 56.3496C288.445 55.8691 289.688 55.6289 291.07 55.6289C292.418 55.6289 293.613 55.8516 294.656 56.2969C295.699 56.7422 296.572 57.375 297.275 58.1953C297.99 59.0156 298.529 60 298.893 61.1484C299.256 62.2852 299.438 63.5508 299.438 64.9453V67.0547H284.32V63.6797H294.463V63.293C294.463 62.5898 294.334 61.9629 294.076 61.4121C293.83 60.8496 293.455 60.4043 292.951 60.0762C292.447 59.748 291.803 59.584 291.018 59.584C290.35 59.584 289.775 59.7305 289.295 60.0234C288.814 60.3164 288.422 60.7266 288.117 61.2539C287.824 61.7812 287.602 62.4023 287.449 63.1172C287.309 63.8203 287.238 64.5938 287.238 65.4375V66.1406C287.238 66.9023 287.344 67.6055 287.555 68.25C287.777 68.8945 288.088 69.4512 288.486 69.9199C288.896 70.3887 289.389 70.752 289.963 71.0098C290.549 71.2676 291.211 71.3965 291.949 71.3965C292.863 71.3965 293.713 71.2207 294.498 70.8691C295.295 70.5059 295.98 69.9609 296.555 69.2344L299.016 71.9062C298.617 72.4805 298.072 73.0312 297.381 73.5586C296.701 74.0859 295.881 74.5195 294.92 74.8594C293.959 75.1875 292.863 75.3516 291.633 75.3516ZM307.383 59.918V75H302.303V55.9805H307.066L307.383 59.918ZM306.68 64.8223H305.273C305.273 63.498 305.432 62.2793 305.748 61.166C306.076 60.041 306.551 59.0684 307.172 58.248C307.805 57.416 308.584 56.7715 309.51 56.3145C310.436 55.8574 311.508 55.6289 312.727 55.6289C313.57 55.6289 314.344 55.7578 315.047 56.0156C315.75 56.2617 316.354 56.6543 316.857 57.1934C317.373 57.7207 317.771 58.4121 318.053 59.2676C318.334 60.1113 318.475 61.125 318.475 62.3086V75H313.412V62.8711C313.412 62.0039 313.295 61.3359 313.061 60.8672C312.826 60.3984 312.492 60.0703 312.059 59.8828C311.637 59.6953 311.127 59.6016 310.529 59.6016C309.873 59.6016 309.299 59.7363 308.807 60.0059C308.326 60.2754 307.928 60.6504 307.611 61.1309C307.295 61.5996 307.061 62.1504 306.908 62.7832C306.756 63.416 306.68 64.0957 306.68 64.8223ZM318 64.2422L316.189 64.4707C316.189 63.2285 316.342 62.0742 316.646 61.0078C316.963 59.9414 317.426 59.0039 318.035 58.1953C318.656 57.3867 319.424 56.7598 320.338 56.3145C321.252 55.8574 322.307 55.6289 323.502 55.6289C324.416 55.6289 325.248 55.7637 325.998 56.0332C326.748 56.291 327.387 56.707 327.914 57.2812C328.453 57.8438 328.863 58.582 329.145 59.4961C329.438 60.4102 329.584 61.5293 329.584 62.8535V75H324.504V62.8535C324.504 61.9746 324.387 61.3066 324.152 60.8496C323.93 60.3809 323.602 60.0586 323.168 59.8828C322.746 59.6953 322.242 59.6016 321.656 59.6016C321.047 59.6016 320.514 59.7246 320.057 59.9707C319.6 60.2051 319.219 60.5332 318.914 60.9551C318.609 61.377 318.381 61.8691 318.229 62.4316C318.076 62.9824 318 63.5859 318 64.2422Z" fill="#888888"/>
<path d="M108.969 140H100.137L100.191 132.617H108.969C110.792 132.617 112.332 132.18 113.59 131.305C114.866 130.43 115.832 129.126 116.488 127.395C117.163 125.645 117.5 123.493 117.5 120.941V119.219C117.5 117.305 117.309 115.628 116.926 114.188C116.561 112.729 116.014 111.517 115.285 110.551C114.556 109.566 113.645 108.828 112.551 108.336C111.475 107.844 110.236 107.598 108.832 107.598H99.9727V100.188H108.832C111.53 100.188 114 100.652 116.242 101.582C118.503 102.493 120.453 103.806 122.094 105.52C123.753 107.215 125.029 109.229 125.922 111.562C126.833 113.878 127.289 116.448 127.289 119.273V120.941C127.289 123.749 126.833 126.319 125.922 128.652C125.029 130.986 123.762 133 122.121 134.695C120.48 136.391 118.539 137.703 116.297 138.633C114.073 139.544 111.63 140 108.969 140ZM105.633 100.188V140H96.0352V100.188H105.633ZM141.59 110.414V140H132.348V110.414H141.59ZM131.801 102.785C131.801 101.473 132.275 100.397 133.223 99.5586C134.171 98.7201 135.401 98.3008 136.914 98.3008C138.427 98.3008 139.658 98.7201 140.605 99.5586C141.553 100.397 142.027 101.473 142.027 102.785C142.027 104.098 141.553 105.173 140.605 106.012C139.658 106.85 138.427 107.27 136.914 107.27C135.401 107.27 134.171 106.85 133.223 106.012C132.275 105.173 131.801 104.098 131.801 102.785ZM162.781 131.688C162.781 131.177 162.608 130.74 162.262 130.375C161.934 129.992 161.35 129.646 160.512 129.336C159.673 129.008 158.497 128.68 156.984 128.352C155.544 128.042 154.186 127.632 152.91 127.121C151.652 126.611 150.549 125.991 149.602 125.262C148.654 124.533 147.906 123.667 147.359 122.664C146.831 121.661 146.566 120.513 146.566 119.219C146.566 117.961 146.831 116.776 147.359 115.664C147.906 114.534 148.699 113.54 149.738 112.684C150.796 111.809 152.081 111.125 153.594 110.633C155.107 110.122 156.829 109.867 158.762 109.867C161.423 109.867 163.72 110.277 165.652 111.098C167.585 111.9 169.07 113.03 170.109 114.488C171.167 115.928 171.695 117.596 171.695 119.492H162.48C162.48 118.745 162.353 118.107 162.098 117.578C161.861 117.049 161.469 116.648 160.922 116.375C160.375 116.083 159.646 115.938 158.734 115.938C158.096 115.938 157.513 116.056 156.984 116.293C156.474 116.53 156.064 116.858 155.754 117.277C155.444 117.697 155.289 118.189 155.289 118.754C155.289 119.155 155.38 119.52 155.562 119.848C155.763 120.158 156.064 120.449 156.465 120.723C156.866 120.978 157.376 121.215 157.996 121.434C158.616 121.634 159.363 121.816 160.238 121.98C162.225 122.345 164.085 122.865 165.816 123.539C167.548 124.214 168.952 125.171 170.027 126.41C171.121 127.65 171.668 129.318 171.668 131.414C171.668 132.727 171.367 133.939 170.766 135.051C170.164 136.145 169.298 137.111 168.168 137.949C167.038 138.77 165.68 139.408 164.094 139.863C162.508 140.319 160.721 140.547 158.734 140.547C155.909 140.547 153.521 140.046 151.57 139.043C149.62 138.022 148.143 136.746 147.141 135.215C146.156 133.665 145.664 132.098 145.664 130.512H154.25C154.286 131.423 154.505 132.171 154.906 132.754C155.326 133.337 155.882 133.766 156.574 134.039C157.267 134.312 158.069 134.449 158.98 134.449C159.819 134.449 160.512 134.331 161.059 134.094C161.624 133.857 162.052 133.538 162.344 133.137C162.635 132.717 162.781 132.234 162.781 131.688ZM185.012 98V140H175.797V98H185.012ZM183.918 124.195L181.758 124.25C181.758 122.172 182.013 120.258 182.523 118.508C183.034 116.758 183.763 115.236 184.711 113.941C185.659 112.647 186.798 111.645 188.129 110.934C189.46 110.223 190.936 109.867 192.559 109.867C194.017 109.867 195.348 110.077 196.551 110.496C197.772 110.915 198.82 111.59 199.695 112.52C200.589 113.449 201.272 114.661 201.746 116.156C202.238 117.651 202.484 119.474 202.484 121.625V140H193.215V121.57C193.215 120.367 193.042 119.438 192.695 118.781C192.367 118.107 191.893 117.642 191.273 117.387C190.654 117.113 189.897 116.977 189.004 116.977C187.928 116.977 187.053 117.159 186.379 117.523C185.704 117.888 185.185 118.398 184.82 119.055C184.474 119.693 184.237 120.449 184.109 121.324C183.982 122.199 183.918 123.156 183.918 124.195ZM220.969 140H212.137L212.191 132.617H220.969C222.792 132.617 224.332 132.18 225.59 131.305C226.866 130.43 227.832 129.126 228.488 127.395C229.163 125.645 229.5 123.493 229.5 120.941V119.219C229.5 117.305 229.309 115.628 228.926 114.188C228.561 112.729 228.014 111.517 227.285 110.551C226.556 109.566 225.645 108.828 224.551 108.336C223.475 107.844 222.236 107.598 220.832 107.598H211.973V100.188H220.832C223.53 100.188 226 100.652 228.242 101.582C230.503 102.493 232.453 103.806 234.094 105.52C235.753 107.215 237.029 109.229 237.922 111.562C238.833 113.878 239.289 116.448 239.289 119.273V120.941C239.289 123.749 238.833 126.319 237.922 128.652C237.029 130.986 235.762 133 234.121 134.695C232.48 136.391 230.539 137.703 228.297 138.633C226.073 139.544 223.63 140 220.969 140ZM217.633 100.188V140H208.035V100.188H217.633ZM253.59 110.414V140H244.348V110.414H253.59ZM243.801 102.785C243.801 101.473 244.275 100.397 245.223 99.5586C246.171 98.7201 247.401 98.3008 248.914 98.3008C250.427 98.3008 251.658 98.7201 252.605 99.5586C253.553 100.397 254.027 101.473 254.027 102.785C254.027 104.098 253.553 105.173 252.605 106.012C251.658 106.85 250.427 107.27 248.914 107.27C247.401 107.27 246.171 106.85 245.223 106.012C244.275 105.173 243.801 104.098 243.801 102.785ZM274.781 131.688C274.781 131.177 274.608 130.74 274.262 130.375C273.934 129.992 273.35 129.646 272.512 129.336C271.673 129.008 270.497 128.68 268.984 128.352C267.544 128.042 266.186 127.632 264.91 127.121C263.652 126.611 262.549 125.991 261.602 125.262C260.654 124.533 259.906 123.667 259.359 122.664C258.831 121.661 258.566 120.513 258.566 119.219C258.566 117.961 258.831 116.776 259.359 115.664C259.906 114.534 260.699 113.54 261.738 112.684C262.796 111.809 264.081 111.125 265.594 110.633C267.107 110.122 268.829 109.867 270.762 109.867C273.423 109.867 275.72 110.277 277.652 111.098C279.585 111.9 281.07 113.03 282.109 114.488C283.167 115.928 283.695 117.596 283.695 119.492H274.48C274.48 118.745 274.353 118.107 274.098 117.578C273.861 117.049 273.469 116.648 272.922 116.375C272.375 116.083 271.646 115.938 270.734 115.938C270.096 115.938 269.513 116.056 268.984 116.293C268.474 116.53 268.064 116.858 267.754 117.277C267.444 117.697 267.289 118.189 267.289 118.754C267.289 119.155 267.38 119.52 267.562 119.848C267.763 120.158 268.064 120.449 268.465 120.723C268.866 120.978 269.376 121.215 269.996 121.434C270.616 121.634 271.363 121.816 272.238 121.98C274.225 122.345 276.085 122.865 277.816 123.539C279.548 124.214 280.952 125.171 282.027 126.41C283.121 127.65 283.668 129.318 283.668 131.414C283.668 132.727 283.367 133.939 282.766 135.051C282.164 136.145 281.298 137.111 280.168 137.949C279.038 138.77 277.68 139.408 276.094 139.863C274.508 140.319 272.721 140.547 270.734 140.547C267.909 140.547 265.521 140.046 263.57 139.043C261.62 138.022 260.143 136.746 259.141 135.215C258.156 133.665 257.664 132.098 257.664 130.512H266.25C266.286 131.423 266.505 132.171 266.906 132.754C267.326 133.337 267.882 133.766 268.574 134.039C269.267 134.312 270.069 134.449 270.98 134.449C271.819 134.449 272.512 134.331 273.059 134.094C273.624 133.857 274.052 133.538 274.344 133.137C274.635 132.717 274.781 132.234 274.781 131.688ZM300.484 133.438C301.341 133.438 302.07 133.283 302.672 132.973C303.292 132.645 303.757 132.189 304.066 131.605C304.395 131.004 304.549 130.284 304.531 129.445H313.199C313.217 131.669 312.671 133.62 311.559 135.297C310.465 136.956 308.97 138.25 307.074 139.18C305.197 140.091 303.073 140.547 300.703 140.547C298.388 140.547 296.365 140.173 294.633 139.426C292.901 138.66 291.452 137.603 290.285 136.254C289.137 134.887 288.271 133.292 287.688 131.469C287.122 129.646 286.84 127.668 286.84 125.535V124.906C286.84 122.773 287.122 120.796 287.688 118.973C288.271 117.132 289.137 115.536 290.285 114.188C291.452 112.82 292.892 111.763 294.605 111.016C296.337 110.25 298.352 109.867 300.648 109.867C303.109 109.867 305.279 110.332 307.156 111.262C309.052 112.191 310.538 113.54 311.613 115.309C312.689 117.077 313.217 119.219 313.199 121.734H304.531C304.549 120.841 304.413 120.039 304.121 119.328C303.829 118.617 303.374 118.052 302.754 117.633C302.152 117.195 301.378 116.977 300.43 116.977C299.482 116.977 298.716 117.186 298.133 117.605C297.549 118.025 297.103 118.608 296.793 119.355C296.501 120.085 296.301 120.923 296.191 121.871C296.1 122.819 296.055 123.831 296.055 124.906V125.535C296.055 126.629 296.1 127.659 296.191 128.625C296.301 129.573 296.51 130.411 296.82 131.141C297.13 131.852 297.577 132.417 298.16 132.836C298.743 133.237 299.518 133.438 300.484 133.438ZM315.988 125.508V124.934C315.988 122.764 316.298 120.768 316.918 118.945C317.538 117.104 318.449 115.509 319.652 114.16C320.855 112.811 322.341 111.763 324.109 111.016C325.878 110.25 327.919 109.867 330.234 109.867C332.568 109.867 334.618 110.25 336.387 111.016C338.173 111.763 339.668 112.811 340.871 114.16C342.074 115.509 342.986 117.104 343.605 118.945C344.225 120.768 344.535 122.764 344.535 124.934V125.508C344.535 127.659 344.225 129.655 343.605 131.496C342.986 133.319 342.074 134.914 340.871 136.281C339.668 137.63 338.182 138.678 336.414 139.426C334.646 140.173 332.604 140.547 330.289 140.547C327.974 140.547 325.923 140.173 324.137 139.426C322.35 138.678 320.855 137.63 319.652 136.281C318.449 134.914 317.538 133.319 316.918 131.496C316.298 129.655 315.988 127.659 315.988 125.508ZM325.203 124.934V125.508C325.203 126.62 325.285 127.659 325.449 128.625C325.613 129.591 325.887 130.439 326.27 131.168C326.652 131.879 327.172 132.435 327.828 132.836C328.484 133.237 329.305 133.438 330.289 133.438C331.255 133.438 332.057 133.237 332.695 132.836C333.352 132.435 333.871 131.879 334.254 131.168C334.637 130.439 334.91 129.591 335.074 128.625C335.238 127.659 335.32 126.62 335.32 125.508V124.934C335.32 123.858 335.238 122.846 335.074 121.898C334.91 120.932 334.637 120.085 334.254 119.355C333.871 118.608 333.352 118.025 332.695 117.605C332.039 117.186 331.219 116.977 330.234 116.977C329.268 116.977 328.457 117.186 327.801 117.605C327.163 118.025 326.652 118.608 326.27 119.355C325.887 120.085 325.613 120.932 325.449 121.898C325.285 122.846 325.203 123.858 325.203 124.934ZM358.863 133.684L364.688 110.414H374.395L364.715 140H358.973L358.863 133.684ZM355.418 110.414L361.16 133.684L361.105 140H355.336L345.684 110.414H355.418ZM391.074 140.547C388.668 140.547 386.517 140.173 384.621 139.426C382.725 138.66 381.121 137.612 379.809 136.281C378.514 134.951 377.521 133.419 376.828 131.688C376.154 129.956 375.816 128.124 375.816 126.191V125.152C375.816 122.983 376.117 120.978 376.719 119.137C377.32 117.277 378.214 115.655 379.398 114.27C380.583 112.884 382.069 111.809 383.855 111.043C385.642 110.259 387.72 109.867 390.09 109.867C392.186 109.867 394.064 110.204 395.723 110.879C397.382 111.553 398.785 112.52 399.934 113.777C401.1 115.035 401.984 116.557 402.586 118.344C403.206 120.13 403.516 122.135 403.516 124.359V128.105H379.344V122.336H394.52V121.625C394.538 120.641 394.365 119.802 394 119.109C393.654 118.417 393.143 117.888 392.469 117.523C391.794 117.159 390.974 116.977 390.008 116.977C389.005 116.977 388.176 117.195 387.52 117.633C386.882 118.07 386.38 118.672 386.016 119.438C385.669 120.185 385.423 121.051 385.277 122.035C385.132 123.02 385.059 124.059 385.059 125.152V126.191C385.059 127.285 385.204 128.279 385.496 129.172C385.806 130.065 386.243 130.831 386.809 131.469C387.392 132.089 388.085 132.572 388.887 132.918C389.707 133.264 390.637 133.438 391.676 133.438C392.934 133.438 394.173 133.201 395.395 132.727C396.616 132.253 397.664 131.469 398.539 130.375L402.723 135.352C402.121 136.208 401.264 137.038 400.152 137.84C399.059 138.642 397.746 139.298 396.215 139.809C394.684 140.301 392.97 140.547 391.074 140.547ZM416.559 117.742V140H407.344V110.414H415.957L416.559 117.742ZM425.309 110.195L425.145 118.754C424.78 118.717 424.288 118.672 423.668 118.617C423.048 118.562 422.529 118.535 422.109 118.535C421.034 118.535 420.104 118.663 419.32 118.918C418.555 119.155 417.917 119.52 417.406 120.012C416.914 120.486 416.549 121.087 416.312 121.816C416.094 122.546 415.993 123.393 416.012 124.359L414.344 123.266C414.344 121.279 414.535 119.474 414.918 117.852C415.319 116.211 415.884 114.798 416.613 113.613C417.342 112.41 418.227 111.49 419.266 110.852C420.305 110.195 421.471 109.867 422.766 109.867C423.221 109.867 423.668 109.895 424.105 109.949C424.561 110.004 424.962 110.086 425.309 110.195ZM438.051 136.527L445.707 110.414H455.605L443.711 144.402C443.456 145.15 443.118 145.952 442.699 146.809C442.28 147.684 441.706 148.513 440.977 149.297C440.247 150.081 439.309 150.719 438.16 151.211C437.03 151.703 435.626 151.949 433.949 151.949C433.056 151.949 432.4 151.904 431.98 151.812C431.579 151.74 430.96 151.603 430.121 151.402V144.812C430.358 144.812 430.559 144.812 430.723 144.812C430.905 144.812 431.105 144.812 431.324 144.812C432.309 144.812 433.092 144.712 433.676 144.512C434.277 144.311 434.733 144.02 435.043 143.637C435.371 143.254 435.626 142.789 435.809 142.242L438.051 136.527ZM436.109 110.414L441.934 131.113L442.945 140.875H436.766L426.238 110.414H436.109Z" fill="#1D2126"/>
<rect x="93" y="178" width="917" height="77" rx="10" fill="#D3D3D3"/>
<rect x="111" y="196" width="117" height="41" rx="3" fill="#424242"/>
<path d="M134.203 210.203H139.239C140.224 210.203 141.079 210.35 141.806 210.643C142.532 210.936 143.092 211.369 143.484 211.943C143.883 212.518 144.082 213.227 144.082 214.07C144.082 214.803 143.968 215.415 143.739 215.907C143.511 216.399 143.191 216.807 142.781 217.129C142.377 217.445 141.905 217.706 141.366 217.911L140.355 218.482H136.128L136.11 216.101H139.239C139.632 216.101 139.957 216.03 140.215 215.89C140.473 215.749 140.666 215.55 140.795 215.292C140.93 215.028 140.997 214.715 140.997 214.352C140.997 213.982 140.93 213.666 140.795 213.402C140.66 213.139 140.461 212.937 140.197 212.796C139.939 212.655 139.62 212.585 139.239 212.585H137.288V223H134.203V210.203ZM141.208 223L138.378 217.34L141.647 217.322L144.513 222.868V223H141.208ZM150.41 223.176C149.637 223.176 148.945 223.056 148.336 222.815C147.727 222.569 147.211 222.232 146.789 221.805C146.373 221.377 146.054 220.885 145.831 220.328C145.614 219.771 145.506 219.183 145.506 218.562V218.228C145.506 217.53 145.603 216.886 145.796 216.294C145.989 215.696 146.276 215.175 146.657 214.729C147.038 214.284 147.516 213.938 148.09 213.692C148.664 213.44 149.332 213.314 150.094 213.314C150.768 213.314 151.371 213.423 151.904 213.64C152.438 213.856 152.889 214.167 153.258 214.571C153.633 214.976 153.917 215.465 154.11 216.039C154.31 216.613 154.409 217.258 154.409 217.973V219.177H146.64V217.322H151.518V217.094C151.523 216.777 151.468 216.508 151.351 216.285C151.239 216.062 151.075 215.893 150.858 215.775C150.642 215.658 150.378 215.6 150.067 215.6C149.745 215.6 149.479 215.67 149.268 215.811C149.062 215.951 148.901 216.145 148.784 216.391C148.673 216.631 148.594 216.909 148.547 217.226C148.5 217.542 148.477 217.876 148.477 218.228V218.562C148.477 218.913 148.523 219.232 148.617 219.52C148.717 219.807 148.857 220.053 149.039 220.258C149.227 220.457 149.449 220.612 149.707 220.724C149.971 220.835 150.27 220.891 150.604 220.891C151.008 220.891 151.406 220.814 151.799 220.662C152.191 220.51 152.528 220.258 152.81 219.906L154.154 221.506C153.961 221.781 153.686 222.048 153.328 222.306C152.977 222.563 152.555 222.774 152.062 222.938C151.57 223.097 151.02 223.176 150.41 223.176ZM160.553 220.609V216.689C160.553 216.42 160.515 216.188 160.438 215.995C160.362 215.802 160.242 215.652 160.078 215.547C159.914 215.436 159.694 215.38 159.419 215.38C159.196 215.38 159.006 215.418 158.848 215.494C158.689 215.57 158.569 215.685 158.487 215.837C158.405 215.989 158.364 216.183 158.364 216.417H155.402C155.402 215.978 155.499 215.57 155.692 215.195C155.892 214.814 156.173 214.483 156.536 214.202C156.905 213.921 157.345 213.704 157.854 213.552C158.37 213.394 158.944 213.314 159.577 213.314C160.333 213.314 161.007 213.44 161.599 213.692C162.196 213.944 162.668 214.322 163.014 214.826C163.359 215.324 163.532 215.951 163.532 216.707V220.601C163.532 221.222 163.567 221.693 163.638 222.016C163.708 222.332 163.808 222.61 163.937 222.851V223H160.966C160.825 222.707 160.72 222.35 160.649 221.928C160.585 221.5 160.553 221.061 160.553 220.609ZM160.913 217.19L160.931 218.772H159.621C159.346 218.772 159.111 218.811 158.918 218.887C158.73 218.963 158.578 219.068 158.461 219.203C158.35 219.332 158.268 219.479 158.215 219.643C158.168 219.807 158.145 219.979 158.145 220.161C158.145 220.337 158.186 220.495 158.268 220.636C158.355 220.771 158.473 220.876 158.619 220.952C158.766 221.028 158.93 221.066 159.111 221.066C159.439 221.066 159.718 221.005 159.946 220.882C160.181 220.753 160.359 220.598 160.482 220.416C160.605 220.234 160.667 220.064 160.667 219.906L161.317 221.119C161.2 221.354 161.065 221.591 160.913 221.831C160.767 222.071 160.582 222.294 160.359 222.499C160.143 222.698 159.876 222.862 159.56 222.991C159.243 223.114 158.859 223.176 158.408 223.176C157.822 223.176 157.283 223.056 156.791 222.815C156.305 222.575 155.915 222.241 155.622 221.813C155.329 221.38 155.183 220.882 155.183 220.319C155.183 219.827 155.271 219.388 155.446 219.001C155.628 218.614 155.9 218.286 156.264 218.017C156.627 217.747 157.09 217.542 157.652 217.401C158.215 217.261 158.877 217.19 159.639 217.19H160.913ZM169.192 220.891C169.468 220.891 169.702 220.841 169.896 220.741C170.095 220.636 170.244 220.489 170.344 220.302C170.449 220.108 170.499 219.877 170.493 219.607H173.279C173.285 220.322 173.109 220.949 172.752 221.488C172.4 222.021 171.92 222.438 171.311 222.736C170.707 223.029 170.024 223.176 169.263 223.176C168.519 223.176 167.868 223.056 167.312 222.815C166.755 222.569 166.289 222.229 165.914 221.796C165.545 221.356 165.267 220.844 165.079 220.258C164.897 219.672 164.807 219.036 164.807 218.351V218.148C164.807 217.463 164.897 216.827 165.079 216.241C165.267 215.649 165.545 215.137 165.914 214.703C166.289 214.264 166.752 213.924 167.303 213.684C167.859 213.438 168.507 213.314 169.245 213.314C170.036 213.314 170.733 213.464 171.337 213.763C171.946 214.062 172.424 214.495 172.77 215.063C173.115 215.632 173.285 216.32 173.279 217.129H170.493C170.499 216.842 170.455 216.584 170.361 216.355C170.268 216.127 170.121 215.945 169.922 215.811C169.729 215.67 169.479 215.6 169.175 215.6C168.87 215.6 168.624 215.667 168.437 215.802C168.249 215.937 168.105 216.124 168.006 216.364C167.912 216.599 167.848 216.868 167.812 217.173C167.783 217.478 167.769 217.803 167.769 218.148V218.351C167.769 218.702 167.783 219.033 167.812 219.344C167.848 219.648 167.915 219.918 168.015 220.152C168.114 220.381 168.258 220.562 168.445 220.697C168.633 220.826 168.882 220.891 169.192 220.891ZM179.555 213.49V215.547H173.824V213.49H179.555ZM175.028 211.126H177.99V219.897C177.99 220.149 178.02 220.346 178.078 220.486C178.137 220.621 178.236 220.718 178.377 220.776C178.523 220.829 178.717 220.855 178.957 220.855C179.127 220.855 179.268 220.853 179.379 220.847C179.49 220.835 179.596 220.82 179.695 220.803V222.921C179.443 223.003 179.18 223.064 178.904 223.105C178.629 223.152 178.336 223.176 178.025 223.176C177.393 223.176 176.851 223.076 176.399 222.877C175.954 222.678 175.614 222.364 175.38 221.937C175.146 221.509 175.028 220.952 175.028 220.267V211.126ZM190.444 218.983V210.203H193.521V218.983C193.521 219.839 193.324 220.58 192.932 221.207C192.545 221.834 192.018 222.32 191.35 222.666C190.688 223.006 189.943 223.176 189.117 223.176C188.262 223.176 187.5 223.032 186.832 222.745C186.17 222.458 185.648 222.016 185.268 221.418C184.893 220.82 184.705 220.059 184.705 219.133H187.799C187.799 219.566 187.849 219.906 187.948 220.152C188.048 220.393 188.194 220.562 188.388 220.662C188.587 220.756 188.83 220.803 189.117 220.803C189.398 220.803 189.636 220.732 189.829 220.592C190.028 220.445 190.181 220.237 190.286 219.968C190.392 219.692 190.444 219.364 190.444 218.983ZM202.072 219.599C202.072 219.399 202.043 219.221 201.984 219.062C201.926 218.898 201.817 218.746 201.659 218.605C201.501 218.465 201.272 218.324 200.974 218.184C200.681 218.037 200.294 217.885 199.813 217.727C199.251 217.539 198.709 217.328 198.188 217.094C197.666 216.854 197.2 216.575 196.79 216.259C196.38 215.937 196.055 215.562 195.814 215.134C195.574 214.7 195.454 214.196 195.454 213.622C195.454 213.071 195.577 212.576 195.823 212.137C196.069 211.691 196.412 211.313 196.852 211.003C197.297 210.687 197.818 210.446 198.416 210.282C199.014 210.112 199.667 210.027 200.376 210.027C201.313 210.027 202.14 210.191 202.854 210.52C203.575 210.842 204.138 211.302 204.542 211.899C204.952 212.491 205.157 213.191 205.157 214H202.09C202.09 213.678 202.022 213.394 201.888 213.147C201.759 212.901 201.562 212.708 201.299 212.567C201.035 212.427 200.704 212.356 200.306 212.356C199.919 212.356 199.594 212.415 199.33 212.532C199.066 212.649 198.867 212.808 198.732 213.007C198.598 213.2 198.53 213.414 198.53 213.648C198.53 213.842 198.583 214.018 198.688 214.176C198.8 214.328 198.955 214.472 199.154 214.606C199.359 214.741 199.605 214.87 199.893 214.993C200.186 215.116 200.514 215.236 200.877 215.354C201.557 215.57 202.16 215.813 202.688 216.083C203.221 216.347 203.669 216.648 204.032 216.988C204.401 217.322 204.68 217.703 204.867 218.131C205.061 218.559 205.157 219.042 205.157 219.581C205.157 220.155 205.046 220.665 204.823 221.11C204.601 221.556 204.281 221.934 203.865 222.244C203.449 222.549 202.951 222.78 202.371 222.938C201.791 223.097 201.144 223.176 200.429 223.176C199.772 223.176 199.125 223.094 198.486 222.93C197.854 222.76 197.279 222.502 196.764 222.156C196.248 221.805 195.835 221.356 195.524 220.812C195.22 220.261 195.067 219.607 195.067 218.852H198.161C198.161 219.227 198.211 219.543 198.311 219.801C198.41 220.059 198.557 220.267 198.75 220.425C198.943 220.577 199.181 220.688 199.462 220.759C199.743 220.823 200.065 220.855 200.429 220.855C200.821 220.855 201.138 220.8 201.378 220.688C201.618 220.571 201.794 220.419 201.905 220.231C202.017 220.038 202.072 219.827 202.072 219.599Z" fill="white"/>
<rect x="111" y="196" width="117" height="41" rx="3" stroke="#424242" stroke-width="4"/>
<rect x="248" y="196" width="104" height="41" rx="3" fill="#424242"/>
<path d="M279.812 220.627V223H273.343V220.627H279.812ZM274.441 210.203V223H271.356V210.203H274.441ZM285.911 220.609V216.689C285.911 216.42 285.873 216.188 285.797 215.995C285.721 215.802 285.601 215.652 285.437 215.547C285.272 215.436 285.053 215.38 284.777 215.38C284.555 215.38 284.364 215.418 284.206 215.494C284.048 215.57 283.928 215.685 283.846 215.837C283.764 215.989 283.723 216.183 283.723 216.417H280.761C280.761 215.978 280.857 215.57 281.051 215.195C281.25 214.814 281.531 214.483 281.895 214.202C282.264 213.921 282.703 213.704 283.213 213.552C283.729 213.394 284.303 213.314 284.936 213.314C285.691 213.314 286.365 213.44 286.957 213.692C287.555 213.944 288.026 214.322 288.372 214.826C288.718 215.324 288.891 215.951 288.891 216.707V220.601C288.891 221.222 288.926 221.693 288.996 222.016C289.066 222.332 289.166 222.61 289.295 222.851V223H286.324C286.184 222.707 286.078 222.35 286.008 221.928C285.943 221.5 285.911 221.061 285.911 220.609ZM286.271 217.19L286.289 218.772H284.979C284.704 218.772 284.47 218.811 284.276 218.887C284.089 218.963 283.937 219.068 283.819 219.203C283.708 219.332 283.626 219.479 283.573 219.643C283.526 219.807 283.503 219.979 283.503 220.161C283.503 220.337 283.544 220.495 283.626 220.636C283.714 220.771 283.831 220.876 283.978 220.952C284.124 221.028 284.288 221.066 284.47 221.066C284.798 221.066 285.076 221.005 285.305 220.882C285.539 220.753 285.718 220.598 285.841 220.416C285.964 220.234 286.025 220.064 286.025 219.906L286.676 221.119C286.559 221.354 286.424 221.591 286.271 221.831C286.125 222.071 285.94 222.294 285.718 222.499C285.501 222.698 285.234 222.862 284.918 222.991C284.602 223.114 284.218 223.176 283.767 223.176C283.181 223.176 282.642 223.056 282.149 222.815C281.663 222.575 281.273 222.241 280.98 221.813C280.688 221.38 280.541 220.882 280.541 220.319C280.541 219.827 280.629 219.388 280.805 219.001C280.986 218.614 281.259 218.286 281.622 218.017C281.985 217.747 282.448 217.542 283.011 217.401C283.573 217.261 284.235 217.19 284.997 217.19H286.271ZM293.522 215.846V223H290.561V213.49H293.329L293.522 215.846ZM296.335 213.42L296.282 216.171C296.165 216.159 296.007 216.145 295.808 216.127C295.608 216.109 295.441 216.101 295.307 216.101C294.961 216.101 294.662 216.142 294.41 216.224C294.164 216.3 293.959 216.417 293.795 216.575C293.637 216.728 293.52 216.921 293.443 217.155C293.373 217.39 293.341 217.662 293.347 217.973L292.811 217.621C292.811 216.982 292.872 216.402 292.995 215.881C293.124 215.354 293.306 214.899 293.54 214.519C293.774 214.132 294.059 213.836 294.393 213.631C294.727 213.42 295.102 213.314 295.518 213.314C295.664 213.314 295.808 213.323 295.948 213.341C296.095 213.358 296.224 213.385 296.335 213.42ZM302.03 220.609V216.689C302.03 216.42 301.992 216.188 301.916 215.995C301.84 215.802 301.72 215.652 301.556 215.547C301.392 215.436 301.172 215.38 300.896 215.38C300.674 215.38 300.483 215.418 300.325 215.494C300.167 215.57 300.047 215.685 299.965 215.837C299.883 215.989 299.842 216.183 299.842 216.417H296.88C296.88 215.978 296.977 215.57 297.17 215.195C297.369 214.814 297.65 214.483 298.014 214.202C298.383 213.921 298.822 213.704 299.332 213.552C299.848 213.394 300.422 213.314 301.055 213.314C301.811 213.314 302.484 213.44 303.076 213.692C303.674 213.944 304.146 214.322 304.491 214.826C304.837 215.324 305.01 215.951 305.01 216.707V220.601C305.01 221.222 305.045 221.693 305.115 222.016C305.186 222.332 305.285 222.61 305.414 222.851V223H302.443C302.303 222.707 302.197 222.35 302.127 221.928C302.062 221.5 302.03 221.061 302.03 220.609ZM302.391 217.19L302.408 218.772H301.099C300.823 218.772 300.589 218.811 300.396 218.887C300.208 218.963 300.056 219.068 299.938 219.203C299.827 219.332 299.745 219.479 299.692 219.643C299.646 219.807 299.622 219.979 299.622 220.161C299.622 220.337 299.663 220.495 299.745 220.636C299.833 220.771 299.95 220.876 300.097 220.952C300.243 221.028 300.407 221.066 300.589 221.066C300.917 221.066 301.195 221.005 301.424 220.882C301.658 220.753 301.837 220.598 301.96 220.416C302.083 220.234 302.145 220.064 302.145 219.906L302.795 221.119C302.678 221.354 302.543 221.591 302.391 221.831C302.244 222.071 302.06 222.294 301.837 222.499C301.62 222.698 301.354 222.862 301.037 222.991C300.721 223.114 300.337 223.176 299.886 223.176C299.3 223.176 298.761 223.056 298.269 222.815C297.782 222.575 297.393 222.241 297.1 221.813C296.807 221.38 296.66 220.882 296.66 220.319C296.66 219.827 296.748 219.388 296.924 219.001C297.105 218.614 297.378 218.286 297.741 218.017C298.104 217.747 298.567 217.542 299.13 217.401C299.692 217.261 300.354 217.19 301.116 217.19H302.391ZM309.94 220.97L311.812 213.49H314.933L311.821 223H309.976L309.94 220.97ZM308.833 213.49L310.679 220.97L310.661 223H308.807L305.704 213.49H308.833ZM320.294 223.176C319.521 223.176 318.829 223.056 318.22 222.815C317.61 222.569 317.095 222.232 316.673 221.805C316.257 221.377 315.938 220.885 315.715 220.328C315.498 219.771 315.39 219.183 315.39 218.562V218.228C315.39 217.53 315.486 216.886 315.68 216.294C315.873 215.696 316.16 215.175 316.541 214.729C316.922 214.284 317.399 213.938 317.974 213.692C318.548 213.44 319.216 213.314 319.978 213.314C320.651 213.314 321.255 213.423 321.788 213.64C322.321 213.856 322.772 214.167 323.142 214.571C323.517 214.976 323.801 215.465 323.994 216.039C324.193 216.613 324.293 217.258 324.293 217.973V219.177H316.523V217.322H321.401V217.094C321.407 216.777 321.352 216.508 321.234 216.285C321.123 216.062 320.959 215.893 320.742 215.775C320.525 215.658 320.262 215.6 319.951 215.6C319.629 215.6 319.362 215.67 319.151 215.811C318.946 215.951 318.785 216.145 318.668 216.391C318.557 216.631 318.478 216.909 318.431 217.226C318.384 217.542 318.36 217.876 318.36 218.228V218.562C318.36 218.913 318.407 219.232 318.501 219.52C318.601 219.807 318.741 220.053 318.923 220.258C319.11 220.457 319.333 220.612 319.591 220.724C319.854 220.835 320.153 220.891 320.487 220.891C320.892 220.891 321.29 220.814 321.683 220.662C322.075 220.51 322.412 220.258 322.693 219.906L324.038 221.506C323.845 221.781 323.569 222.048 323.212 222.306C322.86 222.563 322.438 222.774 321.946 222.938C321.454 223.097 320.903 223.176 320.294 223.176ZM328.626 209.5V223H325.655V209.5H328.626Z" fill="white"/>
<rect x="248" y="196" width="104" height="41" rx="3" stroke="#424242" stroke-width="4"/>
<rect x="372" y="196" width="103" height="41" rx="3" fill="#424242"/>
<path d="M396.72 210.203H399.233L402.09 219.106L404.946 210.203H407.46L403.109 223H401.07L396.72 210.203ZM395.19 210.203H397.792L398.275 220.012V223H395.19V210.203ZM406.388 210.203H408.998V223H405.904V220.012L406.388 210.203ZM413.753 221.884L416.214 213.49H419.396L415.572 224.415C415.49 224.655 415.382 224.913 415.247 225.188C415.112 225.47 414.928 225.736 414.693 225.988C414.459 226.24 414.157 226.445 413.788 226.604C413.425 226.762 412.974 226.841 412.435 226.841C412.147 226.841 411.937 226.826 411.802 226.797C411.673 226.773 411.474 226.729 411.204 226.665V224.547C411.28 224.547 411.345 224.547 411.397 224.547C411.456 224.547 411.521 224.547 411.591 224.547C411.907 224.547 412.159 224.515 412.347 224.45C412.54 224.386 412.687 224.292 412.786 224.169C412.892 224.046 412.974 223.896 413.032 223.721L413.753 221.884ZM413.129 213.49L415.001 220.144L415.326 223.281H413.34L409.956 213.49H413.129ZM426.901 219.599C426.901 219.399 426.872 219.221 426.813 219.062C426.755 218.898 426.646 218.746 426.488 218.605C426.33 218.465 426.102 218.324 425.803 218.184C425.51 218.037 425.123 217.885 424.643 217.727C424.08 217.539 423.538 217.328 423.017 217.094C422.495 216.854 422.029 216.575 421.619 216.259C421.209 215.937 420.884 215.562 420.644 215.134C420.403 214.7 420.283 214.196 420.283 213.622C420.283 213.071 420.406 212.576 420.652 212.137C420.898 211.691 421.241 211.313 421.681 211.003C422.126 210.687 422.647 210.446 423.245 210.282C423.843 210.112 424.496 210.027 425.205 210.027C426.143 210.027 426.969 210.191 427.684 210.52C428.404 210.842 428.967 211.302 429.371 211.899C429.781 212.491 429.986 213.191 429.986 214H426.919C426.919 213.678 426.852 213.394 426.717 213.147C426.588 212.901 426.392 212.708 426.128 212.567C425.864 212.427 425.533 212.356 425.135 212.356C424.748 212.356 424.423 212.415 424.159 212.532C423.896 212.649 423.696 212.808 423.562 213.007C423.427 213.2 423.359 213.414 423.359 213.648C423.359 213.842 423.412 214.018 423.518 214.176C423.629 214.328 423.784 214.472 423.983 214.606C424.188 214.741 424.435 214.87 424.722 214.993C425.015 215.116 425.343 215.236 425.706 215.354C426.386 215.57 426.989 215.813 427.517 216.083C428.05 216.347 428.498 216.648 428.861 216.988C429.23 217.322 429.509 217.703 429.696 218.131C429.89 218.559 429.986 219.042 429.986 219.581C429.986 220.155 429.875 220.665 429.652 221.11C429.43 221.556 429.11 221.934 428.694 222.244C428.278 222.549 427.78 222.78 427.2 222.938C426.62 223.097 425.973 223.176 425.258 223.176C424.602 223.176 423.954 223.094 423.315 222.93C422.683 222.76 422.108 222.502 421.593 222.156C421.077 221.805 420.664 221.356 420.354 220.812C420.049 220.261 419.896 219.607 419.896 218.852H422.99C422.99 219.227 423.04 219.543 423.14 219.801C423.239 220.059 423.386 220.267 423.579 220.425C423.772 220.577 424.01 220.688 424.291 220.759C424.572 220.823 424.895 220.855 425.258 220.855C425.65 220.855 425.967 220.8 426.207 220.688C426.447 220.571 426.623 220.419 426.734 220.231C426.846 220.038 426.901 219.827 426.901 219.599ZM438.714 220.891L442.282 223.721L440.366 225.338L436.859 222.508L438.714 220.891ZM442.432 216.347V216.865C442.432 217.844 442.294 218.723 442.019 219.502C441.749 220.275 441.362 220.938 440.858 221.488C440.36 222.033 439.771 222.452 439.092 222.745C438.412 223.032 437.662 223.176 436.842 223.176C436.016 223.176 435.26 223.032 434.574 222.745C433.895 222.452 433.303 222.033 432.799 221.488C432.301 220.938 431.914 220.275 431.639 219.502C431.369 218.723 431.234 217.844 431.234 216.865V216.347C431.234 215.368 431.369 214.489 431.639 213.71C431.914 212.931 432.298 212.269 432.79 211.724C433.288 211.173 433.877 210.754 434.557 210.467C435.242 210.174 435.998 210.027 436.824 210.027C437.645 210.027 438.395 210.174 439.074 210.467C439.76 210.754 440.352 211.173 440.85 211.724C441.354 212.269 441.743 212.931 442.019 213.71C442.294 214.489 442.432 215.368 442.432 216.347ZM439.294 216.865V216.329C439.294 215.696 439.238 215.14 439.127 214.659C439.021 214.173 438.863 213.766 438.652 213.438C438.441 213.109 438.181 212.863 437.87 212.699C437.565 212.529 437.217 212.444 436.824 212.444C436.414 212.444 436.057 212.529 435.752 212.699C435.447 212.863 435.192 213.109 434.987 213.438C434.782 213.766 434.627 214.173 434.521 214.659C434.422 215.14 434.372 215.696 434.372 216.329V216.865C434.372 217.492 434.422 218.049 434.521 218.535C434.627 219.016 434.782 219.423 434.987 219.757C435.198 220.091 435.456 220.343 435.761 220.513C436.071 220.683 436.432 220.768 436.842 220.768C437.234 220.768 437.583 220.683 437.888 220.513C438.192 220.343 438.447 220.091 438.652 219.757C438.863 219.423 439.021 219.016 439.127 218.535C439.238 218.049 439.294 217.492 439.294 216.865ZM452.46 220.627V223H445.991V220.627H452.46ZM447.09 210.203V223H444.005V210.203H447.09Z" fill="white"/>
<rect x="372" y="196" width="103" height="41" rx="3" stroke="#424242" stroke-width="4"/>
<path d="M1066 0H1348C1356.28 0 1363 6.71573 1363 15V282C1363 290.284 1356.28 297 1348 297H1066V0Z" fill="white"/>
<path d="M1101.21 158.5H1095.32L1095.36 154.158H1101.21C1102.67 154.158 1103.9 153.83 1104.9 153.175C1105.9 152.507 1106.65 151.536 1107.16 150.262C1107.68 148.988 1107.94 147.448 1107.94 145.642V144.324C1107.94 142.939 1107.79 141.72 1107.5 140.669C1107.21 139.618 1106.78 138.733 1106.22 138.016C1105.65 137.298 1104.95 136.76 1104.12 136.401C1103.29 136.03 1102.34 135.845 1101.26 135.845H1095.21V131.484H1101.26C1103.07 131.484 1104.72 131.794 1106.22 132.412C1107.72 133.018 1109.03 133.89 1110.13 135.028C1111.23 136.166 1112.08 137.527 1112.67 139.11C1113.28 140.681 1113.58 142.432 1113.58 144.361V145.642C1113.58 147.559 1113.28 149.309 1112.67 150.893C1112.08 152.476 1111.23 153.837 1110.13 154.975C1109.04 156.1 1107.74 156.972 1106.22 157.591C1104.71 158.197 1103.04 158.5 1101.21 158.5ZM1098.48 131.484V158.5H1092.91V131.484H1098.48ZM1122.93 138.424V158.5H1117.57V138.424H1122.93ZM1117.24 133.191C1117.24 132.412 1117.51 131.769 1118.05 131.262C1118.6 130.755 1119.33 130.501 1120.24 130.501C1121.15 130.501 1121.87 130.755 1122.41 131.262C1122.97 131.769 1123.25 132.412 1123.25 133.191C1123.25 133.971 1122.97 134.614 1122.41 135.121C1121.87 135.628 1121.15 135.882 1120.24 135.882C1119.33 135.882 1118.6 135.628 1118.05 135.121C1117.51 134.614 1117.24 133.971 1117.24 133.191ZM1138.2 152.952C1138.2 152.569 1138.09 152.222 1137.87 151.913C1137.65 151.604 1137.23 151.319 1136.63 151.06C1136.03 150.787 1135.17 150.54 1134.05 150.317C1133.03 150.095 1132.09 149.816 1131.21 149.482C1130.34 149.136 1129.59 148.722 1128.95 148.239C1128.31 147.757 1127.82 147.188 1127.46 146.532C1127.1 145.864 1126.92 145.104 1126.92 144.25C1126.92 143.409 1127.1 142.617 1127.46 141.875C1127.83 141.133 1128.36 140.477 1129.04 139.908C1129.73 139.327 1130.57 138.875 1131.56 138.554C1132.56 138.22 1133.69 138.053 1134.94 138.053C1136.68 138.053 1138.18 138.331 1139.43 138.888C1140.69 139.444 1141.66 140.211 1142.32 141.188C1143 142.153 1143.34 143.254 1143.34 144.491H1138C1138 143.972 1137.89 143.508 1137.67 143.1C1137.46 142.679 1137.12 142.351 1136.66 142.116C1136.22 141.869 1135.64 141.745 1134.92 141.745C1134.33 141.745 1133.81 141.85 1133.38 142.061C1132.95 142.258 1132.61 142.531 1132.38 142.877C1132.16 143.211 1132.04 143.582 1132.04 143.99C1132.04 144.299 1132.11 144.578 1132.23 144.825C1132.37 145.06 1132.58 145.277 1132.88 145.475C1133.18 145.673 1133.56 145.858 1134.03 146.031C1134.51 146.192 1135.11 146.34 1135.81 146.477C1137.26 146.773 1138.55 147.163 1139.69 147.646C1140.83 148.116 1141.73 148.759 1142.4 149.575C1143.07 150.379 1143.4 151.437 1143.4 152.748C1143.4 153.639 1143.2 154.455 1142.81 155.197C1142.41 155.939 1141.84 156.589 1141.1 157.146C1140.36 157.69 1139.47 158.117 1138.43 158.426C1137.4 158.723 1136.24 158.871 1134.96 158.871C1133.09 158.871 1131.51 158.537 1130.21 157.869C1128.92 157.201 1127.94 156.354 1127.28 155.327C1126.62 154.288 1126.29 153.224 1126.29 152.136H1131.36C1131.38 152.866 1131.57 153.453 1131.91 153.898C1132.27 154.344 1132.72 154.665 1133.27 154.863C1133.83 155.061 1134.43 155.16 1135.07 155.16C1135.76 155.16 1136.34 155.067 1136.79 154.882C1137.25 154.684 1137.6 154.424 1137.83 154.103C1138.08 153.769 1138.2 153.385 1138.2 152.952ZM1152.08 130V158.5H1146.74V130H1152.08ZM1151.32 147.757H1149.86C1149.87 146.359 1150.05 145.073 1150.41 143.897C1150.77 142.71 1151.29 141.683 1151.95 140.817C1152.62 139.939 1153.42 139.259 1154.35 138.776C1155.29 138.294 1156.33 138.053 1157.46 138.053C1158.45 138.053 1159.35 138.195 1160.15 138.479C1160.97 138.752 1161.67 139.197 1162.25 139.815C1162.84 140.422 1163.3 141.219 1163.62 142.209C1163.95 143.199 1164.11 144.398 1164.11 145.809V158.5H1158.73V145.771C1158.73 144.881 1158.6 144.182 1158.34 143.675C1158.09 143.155 1157.72 142.79 1157.24 142.58C1156.77 142.357 1156.19 142.246 1155.5 142.246C1154.73 142.246 1154.07 142.388 1153.53 142.673C1153 142.957 1152.57 143.353 1152.25 143.86C1151.93 144.355 1151.69 144.937 1151.54 145.604C1151.4 146.272 1151.32 146.99 1151.32 147.757ZM1176.8 158.5H1170.92L1170.95 154.158H1176.8C1178.26 154.158 1179.49 153.83 1180.49 153.175C1181.49 152.507 1182.25 151.536 1182.75 150.262C1183.27 148.988 1183.53 147.448 1183.53 145.642V144.324C1183.53 142.939 1183.38 141.72 1183.09 140.669C1182.8 139.618 1182.38 138.733 1181.81 138.016C1181.24 137.298 1180.54 136.76 1179.71 136.401C1178.88 136.03 1177.93 135.845 1176.85 135.845H1170.8V131.484H1176.85C1178.66 131.484 1180.31 131.794 1181.81 132.412C1183.32 133.018 1184.62 133.89 1185.72 135.028C1186.82 136.166 1187.67 137.527 1188.26 139.11C1188.87 140.681 1189.17 142.432 1189.17 144.361V145.642C1189.17 147.559 1188.87 149.309 1188.26 150.893C1187.67 152.476 1186.82 153.837 1185.72 154.975C1184.63 156.1 1183.33 156.972 1181.81 157.591C1180.3 158.197 1178.63 158.5 1176.8 158.5ZM1174.07 131.484V158.5H1168.5V131.484H1174.07ZM1198.53 138.424V158.5H1193.16V138.424H1198.53ZM1192.83 133.191C1192.83 132.412 1193.1 131.769 1193.65 131.262C1194.19 130.755 1194.92 130.501 1195.83 130.501C1196.74 130.501 1197.46 130.755 1198.01 131.262C1198.56 131.769 1198.84 132.412 1198.84 133.191C1198.84 133.971 1198.56 134.614 1198.01 135.121C1197.46 135.628 1196.74 135.882 1195.83 135.882C1194.92 135.882 1194.19 135.628 1193.65 135.121C1193.1 134.614 1192.83 133.971 1192.83 133.191ZM1213.8 152.952C1213.8 152.569 1213.68 152.222 1213.46 151.913C1213.24 151.604 1212.82 151.319 1212.22 151.06C1211.62 150.787 1210.77 150.54 1209.64 150.317C1208.63 150.095 1207.68 149.816 1206.8 149.482C1205.93 149.136 1205.18 148.722 1204.54 148.239C1203.91 147.757 1203.41 147.188 1203.05 146.532C1202.69 145.864 1202.51 145.104 1202.51 144.25C1202.51 143.409 1202.69 142.617 1203.05 141.875C1203.42 141.133 1203.95 140.477 1204.63 139.908C1205.32 139.327 1206.16 138.875 1207.15 138.554C1208.16 138.22 1209.28 138.053 1210.53 138.053C1212.27 138.053 1213.77 138.331 1215.02 138.888C1216.28 139.444 1217.25 140.211 1217.92 141.188C1218.6 142.153 1218.94 143.254 1218.94 144.491H1213.59C1213.59 143.972 1213.48 143.508 1213.26 143.1C1213.05 142.679 1212.71 142.351 1212.26 142.116C1211.81 141.869 1211.23 141.745 1210.51 141.745C1209.92 141.745 1209.4 141.85 1208.97 142.061C1208.54 142.258 1208.2 142.531 1207.97 142.877C1207.75 143.211 1207.64 143.582 1207.64 143.99C1207.64 144.299 1207.7 144.578 1207.82 144.825C1207.96 145.06 1208.17 145.277 1208.47 145.475C1208.77 145.673 1209.15 145.858 1209.62 146.031C1210.1 146.192 1210.7 146.34 1211.4 146.477C1212.85 146.773 1214.14 147.163 1215.28 147.646C1216.42 148.116 1217.32 148.759 1217.99 149.575C1218.66 150.379 1218.99 151.437 1218.99 152.748C1218.99 153.639 1218.79 154.455 1218.4 155.197C1218 155.939 1217.43 156.589 1216.69 157.146C1215.95 157.69 1215.06 158.117 1214.02 158.426C1212.99 158.723 1211.84 158.871 1210.55 158.871C1208.68 158.871 1207.1 158.537 1205.8 157.869C1204.51 157.201 1203.54 156.354 1202.87 155.327C1202.21 154.288 1201.88 153.224 1201.88 152.136H1206.95C1206.97 152.866 1207.16 153.453 1207.51 153.898C1207.86 154.344 1208.32 154.665 1208.86 154.863C1209.42 155.061 1210.02 155.16 1210.66 155.16C1211.35 155.16 1211.93 155.067 1212.39 154.882C1212.84 154.684 1213.19 154.424 1213.42 154.103C1213.67 153.769 1213.8 153.385 1213.8 152.952ZM1230.75 154.696C1231.41 154.696 1231.99 154.573 1232.5 154.325C1233.01 154.065 1233.4 153.707 1233.69 153.249C1233.98 152.779 1234.14 152.229 1234.15 151.598H1239.18C1239.17 153.008 1238.79 154.263 1238.05 155.364C1237.3 156.453 1236.31 157.312 1235.06 157.943C1233.81 158.562 1232.41 158.871 1230.87 158.871C1229.31 158.871 1227.95 158.611 1226.78 158.092C1225.63 157.572 1224.68 156.855 1223.91 155.939C1223.14 155.012 1222.57 153.936 1222.18 152.711C1221.8 151.474 1221.61 150.15 1221.61 148.74V148.202C1221.61 146.78 1221.8 145.456 1222.18 144.231C1222.57 142.994 1223.14 141.918 1223.91 141.003C1224.68 140.075 1225.63 139.352 1226.78 138.832C1227.93 138.312 1229.28 138.053 1230.83 138.053C1232.47 138.053 1233.92 138.368 1235.15 138.999C1236.4 139.63 1237.38 140.533 1238.08 141.708C1238.8 142.871 1239.17 144.25 1239.18 145.846H1234.15C1234.14 145.178 1234 144.572 1233.72 144.027C1233.46 143.483 1233.08 143.05 1232.57 142.729C1232.08 142.395 1231.47 142.228 1230.74 142.228C1229.96 142.228 1229.32 142.395 1228.83 142.729C1228.33 143.05 1227.95 143.495 1227.67 144.064C1227.4 144.621 1227.21 145.258 1227.1 145.976C1227 146.681 1226.95 147.423 1226.95 148.202V148.74C1226.95 149.52 1227 150.268 1227.1 150.985C1227.2 151.703 1227.38 152.34 1227.66 152.896C1227.94 153.453 1228.33 153.892 1228.83 154.214C1229.32 154.535 1229.96 154.696 1230.75 154.696ZM1241.42 148.666V148.276C1241.42 146.804 1241.63 145.45 1242.05 144.213C1242.48 142.964 1243.09 141.881 1243.89 140.966C1244.7 140.05 1245.69 139.339 1246.86 138.832C1248.04 138.312 1249.38 138.053 1250.91 138.053C1252.43 138.053 1253.78 138.312 1254.97 138.832C1256.16 139.339 1257.15 140.05 1257.96 140.966C1258.77 141.881 1259.39 142.964 1259.81 144.213C1260.23 145.45 1260.44 146.804 1260.44 148.276V148.666C1260.44 150.126 1260.23 151.48 1259.81 152.729C1259.39 153.966 1258.77 155.049 1257.96 155.977C1257.15 156.892 1256.16 157.603 1254.99 158.11C1253.81 158.618 1252.46 158.871 1250.94 158.871C1249.42 158.871 1248.07 158.618 1246.88 158.11C1245.7 157.603 1244.71 156.892 1243.89 155.977C1243.09 155.049 1242.48 153.966 1242.05 152.729C1241.63 151.48 1241.42 150.126 1241.42 148.666ZM1246.77 148.276V148.666C1246.77 149.507 1246.84 150.293 1246.99 151.022C1247.14 151.752 1247.37 152.396 1247.7 152.952C1248.03 153.496 1248.46 153.923 1248.99 154.232C1249.53 154.542 1250.18 154.696 1250.94 154.696C1251.68 154.696 1252.32 154.542 1252.85 154.232C1253.39 153.923 1253.81 153.496 1254.13 152.952C1254.46 152.396 1254.69 151.752 1254.84 151.022C1255 150.293 1255.08 149.507 1255.08 148.666V148.276C1255.08 147.46 1255 146.693 1254.84 145.976C1254.69 145.246 1254.45 144.603 1254.12 144.046C1253.79 143.477 1253.37 143.032 1252.83 142.71C1252.3 142.388 1251.66 142.228 1250.91 142.228C1250.15 142.228 1249.51 142.388 1248.98 142.71C1248.46 143.032 1248.03 143.477 1247.7 144.046C1247.37 144.603 1247.14 145.246 1246.99 145.976C1246.84 146.693 1246.77 147.46 1246.77 148.276ZM1270.26 154.604L1274.71 138.424H1280.3L1273.52 158.5H1270.15L1270.26 154.604ZM1267.2 138.424L1271.67 154.622L1271.76 158.5H1268.37L1261.59 138.424H1267.2ZM1291.67 158.871C1290.11 158.871 1288.71 158.624 1287.48 158.129C1286.24 157.622 1285.19 156.923 1284.32 156.032C1283.47 155.142 1282.81 154.109 1282.36 152.934C1281.9 151.746 1281.67 150.484 1281.67 149.148V148.406C1281.67 146.885 1281.89 145.493 1282.32 144.231C1282.75 142.97 1283.37 141.875 1284.17 140.947C1284.99 140.02 1285.98 139.308 1287.14 138.813C1288.31 138.306 1289.62 138.053 1291.08 138.053C1292.5 138.053 1293.76 138.288 1294.86 138.758C1295.96 139.228 1296.88 139.896 1297.63 140.762C1298.38 141.628 1298.95 142.667 1299.33 143.879C1299.72 145.079 1299.91 146.415 1299.91 147.887V150.113H1283.95V146.551H1294.66V146.143C1294.66 145.4 1294.52 144.739 1294.25 144.157C1293.99 143.563 1293.59 143.093 1293.06 142.747C1292.53 142.401 1291.85 142.228 1291.02 142.228C1290.32 142.228 1289.71 142.382 1289.2 142.691C1288.69 143.001 1288.28 143.434 1287.96 143.99C1287.65 144.547 1287.41 145.202 1287.25 145.957C1287.11 146.699 1287.03 147.516 1287.03 148.406V149.148C1287.03 149.952 1287.14 150.695 1287.37 151.375C1287.6 152.055 1287.93 152.643 1288.35 153.138C1288.78 153.632 1289.3 154.016 1289.91 154.288C1290.53 154.56 1291.22 154.696 1292 154.696C1292.97 154.696 1293.87 154.511 1294.69 154.14C1295.54 153.756 1296.26 153.181 1296.87 152.414L1299.46 155.234C1299.04 155.84 1298.47 156.422 1297.74 156.979C1297.02 157.535 1296.15 157.993 1295.14 158.352C1294.13 158.698 1292.97 158.871 1291.67 158.871ZM1308.29 142.803V158.5H1302.95V138.424H1307.98L1308.29 142.803ZM1314.34 138.294L1314.25 143.248C1313.99 143.211 1313.68 143.18 1313.3 143.155C1312.95 143.118 1312.62 143.1 1312.32 143.1C1311.57 143.1 1310.91 143.199 1310.35 143.396C1309.81 143.582 1309.35 143.86 1308.98 144.231C1308.62 144.603 1308.35 145.054 1308.17 145.586C1307.99 146.118 1307.89 146.724 1307.87 147.404L1306.79 147.07C1306.79 145.771 1306.92 144.578 1307.18 143.489C1307.44 142.388 1307.82 141.43 1308.31 140.613C1308.82 139.797 1309.44 139.166 1310.17 138.721C1310.9 138.275 1311.73 138.053 1312.67 138.053C1312.97 138.053 1313.27 138.077 1313.58 138.127C1313.89 138.164 1314.15 138.22 1314.34 138.294ZM1323.16 156.236L1328.48 138.424H1334.22L1326.14 161.524C1325.97 162.032 1325.74 162.576 1325.44 163.157C1325.15 163.739 1324.77 164.289 1324.27 164.809C1323.79 165.34 1323.18 165.773 1322.43 166.107C1321.7 166.441 1320.81 166.608 1319.74 166.608C1319.24 166.608 1318.82 166.577 1318.5 166.516C1318.18 166.454 1317.79 166.367 1317.35 166.256V162.341C1317.49 162.341 1317.63 162.341 1317.78 162.341C1317.92 162.353 1318.07 162.359 1318.2 162.359C1318.91 162.359 1319.48 162.279 1319.93 162.118C1320.37 161.957 1320.73 161.71 1321 161.376C1321.28 161.054 1321.49 160.634 1321.65 160.114L1323.16 156.236ZM1320.93 138.424L1325.29 152.971L1326.05 158.63L1322.42 159.02L1315.2 138.424H1320.93Z" fill="#FF7070"/>
</svg>
