<svg width="1363" height="163" viewBox="0 0 1363 163" fill="none" xmlns="http://www.w3.org/2000/svg">
<path d="M0 15C0 6.71573 6.71573 0 15 0H37V163H15C6.71573 163 0 156.284 0 148V15Z" fill="#5B5B5B"/>
<rect width="1097" height="163" transform="translate(37)" fill="#F0F0F0"/>
<path d="M101.906 53.9219L94.3945 51.2383V48.0859L104.602 52.375V54.6367L101.906 53.9219ZM94.3945 56.1719L101.918 53.4297L104.602 52.7852V55.0352L94.3945 59.3242V56.1719ZM118.137 61H114.422L114.445 58.2578H118.137C119.059 58.2578 119.836 58.0508 120.469 57.6367C121.102 57.2148 121.578 56.6016 121.898 55.7969C122.227 54.9922 122.391 54.0195 122.391 52.8789V52.0469C122.391 51.1719 122.297 50.4023 122.109 49.7383C121.93 49.0742 121.66 48.5156 121.301 48.0625C120.941 47.6094 120.5 47.2695 119.977 47.043C119.453 46.8086 118.852 46.6914 118.172 46.6914H114.352V43.9375H118.172C119.312 43.9375 120.355 44.1328 121.301 44.5234C122.254 44.9062 123.078 45.457 123.773 46.1758C124.469 46.8945 125.004 47.7539 125.379 48.7539C125.762 49.7461 125.953 50.8516 125.953 52.0703V52.8789C125.953 54.0898 125.762 55.1953 125.379 56.1953C125.004 57.1953 124.469 58.0547 123.773 58.7734C123.086 59.4844 122.262 60.0352 121.301 60.4258C120.348 60.8086 119.293 61 118.137 61ZM116.414 43.9375V61H112.898V43.9375H116.414ZM131.859 48.3203V61H128.473V48.3203H131.859ZM128.262 45.0156C128.262 44.5234 128.434 44.1172 128.777 43.7969C129.121 43.4766 129.582 43.3164 130.16 43.3164C130.73 43.3164 131.188 43.4766 131.531 43.7969C131.883 44.1172 132.059 44.5234 132.059 45.0156C132.059 45.5078 131.883 45.9141 131.531 46.2344C131.188 46.5547 130.73 46.7148 130.16 46.7148C129.582 46.7148 129.121 46.5547 128.777 46.2344C128.434 45.9141 128.262 45.5078 128.262 45.0156ZM141.504 57.4961C141.504 57.2539 141.434 57.0352 141.293 56.8398C141.152 56.6445 140.891 56.4648 140.508 56.3008C140.133 56.1289 139.59 55.9727 138.879 55.832C138.238 55.6914 137.641 55.5156 137.086 55.3047C136.539 55.0859 136.062 54.8242 135.656 54.5195C135.258 54.2148 134.945 53.8555 134.719 53.4414C134.492 53.0195 134.379 52.5391 134.379 52C134.379 51.4688 134.492 50.9688 134.719 50.5C134.953 50.0312 135.285 49.6172 135.715 49.2578C136.152 48.8906 136.684 48.6055 137.309 48.4023C137.941 48.1914 138.652 48.0859 139.441 48.0859C140.543 48.0859 141.488 48.2617 142.277 48.6133C143.074 48.9648 143.684 49.4492 144.105 50.0664C144.535 50.6758 144.75 51.3711 144.75 52.1523H141.375C141.375 51.8242 141.305 51.5312 141.164 51.2734C141.031 51.0078 140.82 50.8008 140.531 50.6523C140.25 50.4961 139.883 50.418 139.43 50.418C139.055 50.418 138.73 50.4844 138.457 50.6172C138.184 50.7422 137.973 50.9141 137.824 51.1328C137.684 51.3438 137.613 51.5781 137.613 51.8359C137.613 52.0312 137.652 52.207 137.73 52.3633C137.816 52.5117 137.953 52.6484 138.141 52.7734C138.328 52.8984 138.57 53.0156 138.867 53.125C139.172 53.2266 139.547 53.3203 139.992 53.4062C140.906 53.5938 141.723 53.8398 142.441 54.1445C143.16 54.4414 143.73 54.8477 144.152 55.3633C144.574 55.8711 144.785 56.5391 144.785 57.3672C144.785 57.9297 144.66 58.4453 144.41 58.9141C144.16 59.3828 143.801 59.793 143.332 60.1445C142.863 60.4883 142.301 60.7578 141.645 60.9531C140.996 61.1406 140.266 61.2344 139.453 61.2344C138.273 61.2344 137.273 61.0234 136.453 60.6016C135.641 60.1797 135.023 59.6445 134.602 58.9961C134.188 58.3398 133.98 57.668 133.98 56.9805H137.18C137.195 57.4414 137.312 57.8125 137.531 58.0938C137.758 58.375 138.043 58.5781 138.387 58.7031C138.738 58.8281 139.117 58.8906 139.523 58.8906C139.961 58.8906 140.324 58.832 140.613 58.7148C140.902 58.5898 141.121 58.4258 141.27 58.2227C141.426 58.0117 141.504 57.7695 141.504 57.4961ZM150.27 43V61H146.895V43H150.27ZM149.789 54.2148H148.863C148.871 53.332 148.988 52.5195 149.215 51.7773C149.441 51.0273 149.766 50.3789 150.188 49.832C150.609 49.2773 151.113 48.8477 151.699 48.543C152.293 48.2383 152.949 48.0859 153.668 48.0859C154.293 48.0859 154.859 48.1758 155.367 48.3555C155.883 48.5273 156.324 48.8086 156.691 49.1992C157.066 49.582 157.355 50.0859 157.559 50.7109C157.762 51.3359 157.863 52.0938 157.863 52.9844V61H154.465V52.9609C154.465 52.3984 154.383 51.957 154.219 51.6367C154.062 51.3086 153.832 51.0781 153.527 50.9453C153.23 50.8047 152.863 50.7344 152.426 50.7344C151.941 50.7344 151.527 50.8242 151.184 51.0039C150.848 51.1836 150.578 51.4336 150.375 51.7539C150.172 52.0664 150.023 52.4336 149.93 52.8555C149.836 53.2773 149.789 53.7305 149.789 54.2148ZM165.879 61H162.164L162.188 58.2578H165.879C166.801 58.2578 167.578 58.0508 168.211 57.6367C168.844 57.2148 169.32 56.6016 169.641 55.7969C169.969 54.9922 170.133 54.0195 170.133 52.8789V52.0469C170.133 51.1719 170.039 50.4023 169.852 49.7383C169.672 49.0742 169.402 48.5156 169.043 48.0625C168.684 47.6094 168.242 47.2695 167.719 47.043C167.195 46.8086 166.594 46.6914 165.914 46.6914H162.094V43.9375H165.914C167.055 43.9375 168.098 44.1328 169.043 44.5234C169.996 44.9062 170.82 45.457 171.516 46.1758C172.211 46.8945 172.746 47.7539 173.121 48.7539C173.504 49.7461 173.695 50.8516 173.695 52.0703V52.8789C173.695 54.0898 173.504 55.1953 173.121 56.1953C172.746 57.1953 172.211 58.0547 171.516 58.7734C170.828 59.4844 170.004 60.0352 169.043 60.4258C168.09 60.8086 167.035 61 165.879 61ZM164.156 43.9375V61H160.641V43.9375H164.156ZM179.602 48.3203V61H176.215V48.3203H179.602ZM176.004 45.0156C176.004 44.5234 176.176 44.1172 176.52 43.7969C176.863 43.4766 177.324 43.3164 177.902 43.3164C178.473 43.3164 178.93 43.4766 179.273 43.7969C179.625 44.1172 179.801 44.5234 179.801 45.0156C179.801 45.5078 179.625 45.9141 179.273 46.2344C178.93 46.5547 178.473 46.7148 177.902 46.7148C177.324 46.7148 176.863 46.5547 176.52 46.2344C176.176 45.9141 176.004 45.5078 176.004 45.0156ZM189.246 57.4961C189.246 57.2539 189.176 57.0352 189.035 56.8398C188.895 56.6445 188.633 56.4648 188.25 56.3008C187.875 56.1289 187.332 55.9727 186.621 55.832C185.98 55.6914 185.383 55.5156 184.828 55.3047C184.281 55.0859 183.805 54.8242 183.398 54.5195C183 54.2148 182.688 53.8555 182.461 53.4414C182.234 53.0195 182.121 52.5391 182.121 52C182.121 51.4688 182.234 50.9688 182.461 50.5C182.695 50.0312 183.027 49.6172 183.457 49.2578C183.895 48.8906 184.426 48.6055 185.051 48.4023C185.684 48.1914 186.395 48.0859 187.184 48.0859C188.285 48.0859 189.23 48.2617 190.02 48.6133C190.816 48.9648 191.426 49.4492 191.848 50.0664C192.277 50.6758 192.492 51.3711 192.492 52.1523H189.117C189.117 51.8242 189.047 51.5312 188.906 51.2734C188.773 51.0078 188.562 50.8008 188.273 50.6523C187.992 50.4961 187.625 50.418 187.172 50.418C186.797 50.418 186.473 50.4844 186.199 50.6172C185.926 50.7422 185.715 50.9141 185.566 51.1328C185.426 51.3438 185.355 51.5781 185.355 51.8359C185.355 52.0312 185.395 52.207 185.473 52.3633C185.559 52.5117 185.695 52.6484 185.883 52.7734C186.07 52.8984 186.312 53.0156 186.609 53.125C186.914 53.2266 187.289 53.3203 187.734 53.4062C188.648 53.5938 189.465 53.8398 190.184 54.1445C190.902 54.4414 191.473 54.8477 191.895 55.3633C192.316 55.8711 192.527 56.5391 192.527 57.3672C192.527 57.9297 192.402 58.4453 192.152 58.9141C191.902 59.3828 191.543 59.793 191.074 60.1445C190.605 60.4883 190.043 60.7578 189.387 60.9531C188.738 61.1406 188.008 61.2344 187.195 61.2344C186.016 61.2344 185.016 61.0234 184.195 60.6016C183.383 60.1797 182.766 59.6445 182.344 58.9961C181.93 58.3398 181.723 57.668 181.723 56.9805H184.922C184.938 57.4414 185.055 57.8125 185.273 58.0938C185.5 58.375 185.785 58.5781 186.129 58.7031C186.48 58.8281 186.859 58.8906 187.266 58.8906C187.703 58.8906 188.066 58.832 188.355 58.7148C188.645 58.5898 188.863 58.4258 189.012 58.2227C189.168 58.0117 189.246 57.7695 189.246 57.4961ZM199.957 58.5977C200.371 58.5977 200.738 58.5195 201.059 58.3633C201.379 58.1992 201.629 57.9727 201.809 57.6836C201.996 57.3867 202.094 57.0391 202.102 56.6406H205.277C205.27 57.5312 205.031 58.3242 204.562 59.0195C204.094 59.707 203.465 60.25 202.676 60.6484C201.887 61.0391 201.004 61.2344 200.027 61.2344C199.043 61.2344 198.184 61.0703 197.449 60.7422C196.723 60.4141 196.117 59.9609 195.633 59.3828C195.148 58.7969 194.785 58.1172 194.543 57.3438C194.301 56.5625 194.18 55.7266 194.18 54.8359V54.4961C194.18 53.5977 194.301 52.7617 194.543 51.9883C194.785 51.207 195.148 50.5273 195.633 49.9492C196.117 49.3633 196.723 48.9062 197.449 48.5781C198.176 48.25 199.027 48.0859 200.004 48.0859C201.043 48.0859 201.953 48.2852 202.734 48.6836C203.523 49.082 204.141 49.6523 204.586 50.3945C205.039 51.1289 205.27 52 205.277 53.0078H202.102C202.094 52.5859 202.004 52.2031 201.832 51.8594C201.668 51.5156 201.426 51.2422 201.105 51.0391C200.793 50.8281 200.406 50.7227 199.945 50.7227C199.453 50.7227 199.051 50.8281 198.738 51.0391C198.426 51.2422 198.184 51.5234 198.012 51.8828C197.84 52.2344 197.719 52.6367 197.648 53.0898C197.586 53.5352 197.555 54.0039 197.555 54.4961V54.8359C197.555 55.3281 197.586 55.8008 197.648 56.2539C197.711 56.707 197.828 57.1094 198 57.4609C198.18 57.8125 198.426 58.0898 198.738 58.293C199.051 58.4961 199.457 58.5977 199.957 58.5977ZM206.695 54.7891V54.543C206.695 53.6133 206.828 52.7578 207.094 51.9766C207.359 51.1875 207.746 50.5039 208.254 49.9258C208.762 49.3477 209.387 48.8984 210.129 48.5781C210.871 48.25 211.723 48.0859 212.684 48.0859C213.645 48.0859 214.5 48.25 215.25 48.5781C216 48.8984 216.629 49.3477 217.137 49.9258C217.652 50.5039 218.043 51.1875 218.309 51.9766C218.574 52.7578 218.707 53.6133 218.707 54.543V54.7891C218.707 55.7109 218.574 56.5664 218.309 57.3555C218.043 58.1367 217.652 58.8203 217.137 59.4062C216.629 59.9844 216.004 60.4336 215.262 60.7539C214.52 61.0742 213.668 61.2344 212.707 61.2344C211.746 61.2344 210.891 61.0742 210.141 60.7539C209.398 60.4336 208.77 59.9844 208.254 59.4062C207.746 58.8203 207.359 58.1367 207.094 57.3555C206.828 56.5664 206.695 55.7109 206.695 54.7891ZM210.07 54.543V54.7891C210.07 55.3203 210.117 55.8164 210.211 56.2773C210.305 56.7383 210.453 57.1445 210.656 57.4961C210.867 57.8398 211.141 58.1094 211.477 58.3047C211.812 58.5 212.223 58.5977 212.707 58.5977C213.176 58.5977 213.578 58.5 213.914 58.3047C214.25 58.1094 214.52 57.8398 214.723 57.4961C214.926 57.1445 215.074 56.7383 215.168 56.2773C215.27 55.8164 215.32 55.3203 215.32 54.7891V54.543C215.32 54.0273 215.27 53.543 215.168 53.0898C215.074 52.6289 214.922 52.2227 214.711 51.8711C214.508 51.5117 214.238 51.2305 213.902 51.0273C213.566 50.8242 213.16 50.7227 212.684 50.7227C212.207 50.7227 211.801 50.8242 211.465 51.0273C211.137 51.2305 210.867 51.5117 210.656 51.8711C210.453 52.2227 210.305 52.6289 210.211 53.0898C210.117 53.543 210.07 54.0273 210.07 54.543ZM224.906 58.5391L227.719 48.3203H231.246L226.969 61H224.836L224.906 58.5391ZM222.973 48.3203L225.797 58.5508L225.855 61H223.711L219.434 48.3203H222.973ZM238.43 61.2344C237.445 61.2344 236.562 61.0781 235.781 60.7656C235 60.4453 234.336 60.0039 233.789 59.4414C233.25 58.8789 232.836 58.2266 232.547 57.4844C232.258 56.7344 232.113 55.9375 232.113 55.0938V54.625C232.113 53.6641 232.25 52.7852 232.523 51.9883C232.797 51.1914 233.188 50.5 233.695 49.9141C234.211 49.3281 234.836 48.8789 235.57 48.5664C236.305 48.2461 237.133 48.0859 238.055 48.0859C238.953 48.0859 239.75 48.2344 240.445 48.5312C241.141 48.8281 241.723 49.25 242.191 49.7969C242.668 50.3438 243.027 51 243.27 51.7656C243.512 52.5234 243.633 53.3672 243.633 54.2969V55.7031H233.555V53.4531H240.316V53.1953C240.316 52.7266 240.23 52.3086 240.059 51.9414C239.895 51.5664 239.645 51.2695 239.309 51.0508C238.973 50.832 238.543 50.7227 238.02 50.7227C237.574 50.7227 237.191 50.8203 236.871 51.0156C236.551 51.2109 236.289 51.4844 236.086 51.8359C235.891 52.1875 235.742 52.6016 235.641 53.0781C235.547 53.5469 235.5 54.0625 235.5 54.625V55.0938C235.5 55.6016 235.57 56.0703 235.711 56.5C235.859 56.9297 236.066 57.3008 236.332 57.6133C236.605 57.9258 236.934 58.168 237.316 58.3398C237.707 58.5117 238.148 58.5977 238.641 58.5977C239.25 58.5977 239.816 58.4805 240.34 58.2461C240.871 58.0039 241.328 57.6406 241.711 57.1562L243.352 58.9375C243.086 59.3203 242.723 59.6875 242.262 60.0391C241.809 60.3906 241.262 60.6797 240.621 60.9062C239.98 61.125 239.25 61.2344 238.43 61.2344ZM248.93 51.0859V61H245.555V48.3203H248.73L248.93 51.0859ZM252.75 48.2383L252.691 51.3672C252.527 51.3438 252.328 51.3242 252.094 51.3086C251.867 51.2852 251.66 51.2734 251.473 51.2734C250.996 51.2734 250.582 51.3359 250.23 51.4609C249.887 51.5781 249.598 51.7539 249.363 51.9883C249.137 52.2227 248.965 52.5078 248.848 52.8438C248.738 53.1797 248.676 53.5625 248.66 53.9922L247.98 53.7812C247.98 52.9609 248.062 52.207 248.227 51.5195C248.391 50.8242 248.629 50.2188 248.941 49.7031C249.262 49.1875 249.652 48.7891 250.113 48.5078C250.574 48.2266 251.102 48.0859 251.695 48.0859C251.883 48.0859 252.074 48.1016 252.27 48.1328C252.465 48.1562 252.625 48.1914 252.75 48.2383ZM258.316 59.5703L261.68 48.3203H265.301L260.203 62.9102C260.094 63.2305 259.945 63.5742 259.758 63.9414C259.578 64.3086 259.332 64.6562 259.02 64.9844C258.715 65.3203 258.328 65.5938 257.859 65.8047C257.398 66.0156 256.832 66.1211 256.16 66.1211C255.84 66.1211 255.578 66.1016 255.375 66.0625C255.172 66.0234 254.93 65.9688 254.648 65.8984V63.4258C254.734 63.4258 254.824 63.4258 254.918 63.4258C255.012 63.4336 255.102 63.4375 255.188 63.4375C255.633 63.4375 255.996 63.3867 256.277 63.2852C256.559 63.1836 256.785 63.0273 256.957 62.8164C257.129 62.6133 257.266 62.3477 257.367 62.0195L258.316 59.5703ZM256.91 48.3203L259.664 57.5078L260.145 61.082L257.848 61.3281L253.289 48.3203H256.91Z" fill="#888888"/>
<path d="M112.125 84.875V119H103.898V84.875H112.125ZM122.391 84.875V91.2266H93.8672V84.875H122.391ZM135.68 119.469C133.617 119.469 131.773 119.148 130.148 118.508C128.523 117.852 127.148 116.953 126.023 115.812C124.914 114.672 124.062 113.359 123.469 111.875C122.891 110.391 122.602 108.82 122.602 107.164V106.273C122.602 104.414 122.859 102.695 123.375 101.117C123.891 99.5234 124.656 98.1328 125.672 96.9453C126.688 95.7578 127.961 94.8359 129.492 94.1797C131.023 93.5078 132.805 93.1719 134.836 93.1719C136.633 93.1719 138.242 93.4609 139.664 94.0391C141.086 94.6172 142.289 95.4453 143.273 96.5234C144.273 97.6016 145.031 98.9062 145.547 100.438C146.078 101.969 146.344 103.688 146.344 105.594V108.805H125.625V103.859H138.633V103.25C138.648 102.406 138.5 101.688 138.188 101.094C137.891 100.5 137.453 100.047 136.875 99.7344C136.297 99.4219 135.594 99.2656 134.766 99.2656C133.906 99.2656 133.195 99.4531 132.633 99.8281C132.086 100.203 131.656 100.719 131.344 101.375C131.047 102.016 130.836 102.758 130.711 103.602C130.586 104.445 130.523 105.336 130.523 106.273V107.164C130.523 108.102 130.648 108.953 130.898 109.719C131.164 110.484 131.539 111.141 132.023 111.688C132.523 112.219 133.117 112.633 133.805 112.93C134.508 113.227 135.305 113.375 136.195 113.375C137.273 113.375 138.336 113.172 139.383 112.766C140.43 112.359 141.328 111.688 142.078 110.75L145.664 115.016C145.148 115.75 144.414 116.461 143.461 117.148C142.523 117.836 141.398 118.398 140.086 118.836C138.773 119.258 137.305 119.469 135.68 119.469ZM160.266 113.375C161 113.375 161.625 113.242 162.141 112.977C162.672 112.695 163.07 112.305 163.336 111.805C163.617 111.289 163.75 110.672 163.734 109.953H171.164C171.18 111.859 170.711 113.531 169.758 114.969C168.82 116.391 167.539 117.5 165.914 118.297C164.305 119.078 162.484 119.469 160.453 119.469C158.469 119.469 156.734 119.148 155.25 118.508C153.766 117.852 152.523 116.945 151.523 115.789C150.539 114.617 149.797 113.25 149.297 111.688C148.812 110.125 148.57 108.43 148.57 106.602V106.062C148.57 104.234 148.812 102.539 149.297 100.977C149.797 99.3984 150.539 98.0312 151.523 96.875C152.523 95.7031 153.758 94.7969 155.227 94.1562C156.711 93.5 158.438 93.1719 160.406 93.1719C162.516 93.1719 164.375 93.5703 165.984 94.3672C167.609 95.1641 168.883 96.3203 169.805 97.8359C170.727 99.3516 171.18 101.188 171.164 103.344H163.734C163.75 102.578 163.633 101.891 163.383 101.281C163.133 100.672 162.742 100.188 162.211 99.8281C161.695 99.4531 161.031 99.2656 160.219 99.2656C159.406 99.2656 158.75 99.4453 158.25 99.8047C157.75 100.164 157.367 100.664 157.102 101.305C156.852 101.93 156.68 102.648 156.586 103.461C156.508 104.273 156.469 105.141 156.469 106.062V106.602C156.469 107.539 156.508 108.422 156.586 109.25C156.68 110.062 156.859 110.781 157.125 111.406C157.391 112.016 157.773 112.5 158.273 112.859C158.773 113.203 159.438 113.375 160.266 113.375ZM182.273 83V119H174.375V83H182.273ZM181.336 105.453L179.484 105.5C179.484 103.719 179.703 102.078 180.141 100.578C180.578 99.0781 181.203 97.7734 182.016 96.6641C182.828 95.5547 183.805 94.6953 184.945 94.0859C186.086 93.4766 187.352 93.1719 188.742 93.1719C189.992 93.1719 191.133 93.3516 192.164 93.7109C193.211 94.0703 194.109 94.6484 194.859 95.4453C195.625 96.2422 196.211 97.2812 196.617 98.5625C197.039 99.8438 197.25 101.406 197.25 103.25V119H189.305V103.203C189.305 102.172 189.156 101.375 188.859 100.812C188.578 100.234 188.172 99.8359 187.641 99.6172C187.109 99.3828 186.461 99.2656 185.695 99.2656C184.773 99.2656 184.023 99.4219 183.445 99.7344C182.867 100.047 182.422 100.484 182.109 101.047C181.812 101.594 181.609 102.242 181.5 102.992C181.391 103.742 181.336 104.562 181.336 105.453ZM231.539 109.93C231.539 109.398 231.461 108.922 231.305 108.5C231.148 108.062 230.859 107.656 230.438 107.281C230.016 106.906 229.406 106.531 228.609 106.156C227.828 105.766 226.797 105.359 225.516 104.938C224.016 104.438 222.57 103.875 221.18 103.25C219.789 102.609 218.547 101.867 217.453 101.023C216.359 100.164 215.492 99.1641 214.852 98.0234C214.211 96.8672 213.891 95.5234 213.891 93.9922C213.891 92.5234 214.219 91.2031 214.875 90.0312C215.531 88.8438 216.445 87.8359 217.617 87.0078C218.805 86.1641 220.195 85.5234 221.789 85.0859C223.383 84.6328 225.125 84.4062 227.016 84.4062C229.516 84.4062 231.719 84.8438 233.625 85.7188C235.547 86.5781 237.047 87.8047 238.125 89.3984C239.219 90.9766 239.766 92.8438 239.766 95H231.586C231.586 94.1406 231.406 93.3828 231.047 92.7266C230.703 92.0703 230.18 91.5547 229.477 91.1797C228.773 90.8047 227.891 90.6172 226.828 90.6172C225.797 90.6172 224.93 90.7734 224.227 91.0859C223.523 91.3984 222.992 91.8203 222.633 92.3516C222.273 92.8672 222.094 93.4375 222.094 94.0625C222.094 94.5781 222.234 95.0469 222.516 95.4688C222.812 95.875 223.227 96.2578 223.758 96.6172C224.305 96.9766 224.961 97.3203 225.727 97.6484C226.508 97.9766 227.383 98.2969 228.352 98.6094C230.164 99.1875 231.773 99.8359 233.18 100.555C234.602 101.258 235.797 102.062 236.766 102.969C237.75 103.859 238.492 104.875 238.992 106.016C239.508 107.156 239.766 108.445 239.766 109.883C239.766 111.414 239.469 112.773 238.875 113.961C238.281 115.148 237.43 116.156 236.32 116.984C235.211 117.797 233.883 118.414 232.336 118.836C230.789 119.258 229.062 119.469 227.156 119.469C225.406 119.469 223.68 119.25 221.977 118.812C220.289 118.359 218.758 117.672 217.383 116.75C216.008 115.812 214.906 114.617 214.078 113.164C213.266 111.695 212.859 109.953 212.859 107.938H221.109C221.109 108.938 221.242 109.781 221.508 110.469C221.773 111.156 222.164 111.711 222.68 112.133C223.195 112.539 223.828 112.836 224.578 113.023C225.328 113.195 226.188 113.281 227.156 113.281C228.203 113.281 229.047 113.133 229.688 112.836C230.328 112.523 230.797 112.117 231.094 111.617C231.391 111.102 231.539 110.539 231.539 109.93ZM256.992 93.6406V99.125H241.711V93.6406H256.992ZM244.922 87.3359H252.82V110.727C252.82 111.398 252.898 111.922 253.055 112.297C253.211 112.656 253.477 112.914 253.852 113.07C254.242 113.211 254.758 113.281 255.398 113.281C255.852 113.281 256.227 113.273 256.523 113.258C256.82 113.227 257.102 113.188 257.367 113.141V118.789C256.695 119.008 255.992 119.172 255.258 119.281C254.523 119.406 253.742 119.469 252.914 119.469C251.227 119.469 249.781 119.203 248.578 118.672C247.391 118.141 246.484 117.305 245.859 116.164C245.234 115.023 244.922 113.539 244.922 111.711V87.3359ZM273.305 112.625V102.172C273.305 101.453 273.203 100.836 273 100.32C272.797 99.8047 272.477 99.4062 272.039 99.125C271.602 98.8281 271.016 98.6797 270.281 98.6797C269.688 98.6797 269.18 98.7812 268.758 98.9844C268.336 99.1875 268.016 99.4922 267.797 99.8984C267.578 100.305 267.469 100.82 267.469 101.445H259.57C259.57 100.273 259.828 99.1875 260.344 98.1875C260.875 97.1719 261.625 96.2891 262.594 95.5391C263.578 94.7891 264.75 94.2109 266.109 93.8047C267.484 93.3828 269.016 93.1719 270.703 93.1719C272.719 93.1719 274.516 93.5078 276.094 94.1797C277.688 94.8516 278.945 95.8594 279.867 97.2031C280.789 98.5312 281.25 100.203 281.25 102.219V112.602C281.25 114.258 281.344 115.516 281.531 116.375C281.719 117.219 281.984 117.961 282.328 118.602V119H274.406C274.031 118.219 273.75 117.266 273.562 116.141C273.391 115 273.305 113.828 273.305 112.625ZM274.266 103.508L274.312 107.727H270.82C270.086 107.727 269.461 107.828 268.945 108.031C268.445 108.234 268.039 108.516 267.727 108.875C267.43 109.219 267.211 109.609 267.07 110.047C266.945 110.484 266.883 110.945 266.883 111.43C266.883 111.898 266.992 112.32 267.211 112.695C267.445 113.055 267.758 113.336 268.148 113.539C268.539 113.742 268.977 113.844 269.461 113.844C270.336 113.844 271.078 113.68 271.688 113.352C272.312 113.008 272.789 112.594 273.117 112.109C273.445 111.625 273.609 111.172 273.609 110.75L275.344 113.984C275.031 114.609 274.672 115.242 274.266 115.883C273.875 116.523 273.383 117.117 272.789 117.664C272.211 118.195 271.5 118.633 270.656 118.977C269.812 119.305 268.789 119.469 267.586 119.469C266.023 119.469 264.586 119.148 263.273 118.508C261.977 117.867 260.938 116.977 260.156 115.836C259.375 114.68 258.984 113.352 258.984 111.852C258.984 110.539 259.219 109.367 259.688 108.336C260.172 107.305 260.898 106.43 261.867 105.711C262.836 104.992 264.07 104.445 265.57 104.07C267.07 103.695 268.836 103.508 270.867 103.508H274.266ZM296.344 113.375C297.078 113.375 297.703 113.242 298.219 112.977C298.75 112.695 299.148 112.305 299.414 111.805C299.695 111.289 299.828 110.672 299.812 109.953H307.242C307.258 111.859 306.789 113.531 305.836 114.969C304.898 116.391 303.617 117.5 301.992 118.297C300.383 119.078 298.562 119.469 296.531 119.469C294.547 119.469 292.812 119.148 291.328 118.508C289.844 117.852 288.602 116.945 287.602 115.789C286.617 114.617 285.875 113.25 285.375 111.688C284.891 110.125 284.648 108.43 284.648 106.602V106.062C284.648 104.234 284.891 102.539 285.375 100.977C285.875 99.3984 286.617 98.0312 287.602 96.875C288.602 95.7031 289.836 94.7969 291.305 94.1562C292.789 93.5 294.516 93.1719 296.484 93.1719C298.594 93.1719 300.453 93.5703 302.062 94.3672C303.688 95.1641 304.961 96.3203 305.883 97.8359C306.805 99.3516 307.258 101.188 307.242 103.344H299.812C299.828 102.578 299.711 101.891 299.461 101.281C299.211 100.672 298.82 100.188 298.289 99.8281C297.773 99.4531 297.109 99.2656 296.297 99.2656C295.484 99.2656 294.828 99.4453 294.328 99.8047C293.828 100.164 293.445 100.664 293.18 101.305C292.93 101.93 292.758 102.648 292.664 103.461C292.586 104.273 292.547 105.141 292.547 106.062V106.602C292.547 107.539 292.586 108.422 292.664 109.25C292.758 110.062 292.938 110.781 293.203 111.406C293.469 112.016 293.852 112.5 294.352 112.859C294.852 113.203 295.516 113.375 296.344 113.375ZM318.586 82.9766V119H310.688V82.9766H318.586ZM334.805 93.6406L323.789 106.555L318.023 112.32L314.578 107.305L319.383 101.047L325.336 93.6406H334.805ZM326.344 119L319.57 107.445L325.406 103.297L335.391 119H326.344Z" fill="#1D2126"/>
<path d="M1134 0H1348C1356.28 0 1363 6.71573 1363 15V148C1363 156.284 1356.28 163 1348 163H1134V0Z" fill="#FF7070"/>
<path fill-rule="evenodd" clip-rule="evenodd" d="M1218.75 53C1218.62 53 1218.49 53.0527 1218.4 53.1464C1218.3 53.2402 1218.25 53.3674 1218.25 53.5V109.5C1218.25 109.633 1218.3 109.76 1218.4 109.854C1218.49 109.947 1218.62 110 1218.75 110H1278.25C1278.38 110 1278.51 109.947 1278.6 109.854C1278.7 109.76 1278.75 109.633 1278.75 109.5V64C1278.75 63.8674 1278.7 63.7402 1278.6 63.6464C1278.51 63.5527 1278.38 63.5 1278.25 63.5H1248.5C1247.61 63.5 1246.77 63.1045 1246.2 62.4206L1238.34 53H1218.75ZM1214.15 48.9038C1215.37 47.6848 1217.03 47 1218.75 47H1239.75C1240.64 47 1241.48 47.3955 1242.05 48.0794L1249.91 57.5H1278.25C1279.97 57.5 1281.63 58.1848 1282.85 59.4038C1284.07 60.6228 1284.75 62.2761 1284.75 64V109.5C1284.75 111.224 1284.07 112.877 1282.85 114.096C1281.63 115.315 1279.97 116 1278.25 116H1218.75C1217.03 116 1215.37 115.315 1214.15 114.096C1212.93 112.877 1212.25 111.224 1212.25 109.5V53.5C1212.25 51.7761 1212.93 50.1228 1214.15 48.9038Z" fill="white"/>
<path fill-rule="evenodd" clip-rule="evenodd" d="M1243.97 75.5251C1245.34 76.892 1245.34 79.108 1243.97 80.4749L1237.7 86.75L1243.97 93.0251C1245.34 94.392 1245.34 96.608 1243.97 97.9749C1242.61 99.3417 1240.39 99.3417 1239.03 97.9749L1230.28 89.2249C1228.91 87.858 1228.91 85.642 1230.28 84.2751L1239.03 75.5251C1240.39 74.1583 1242.61 74.1583 1243.97 75.5251Z" fill="white"/>
<path fill-rule="evenodd" clip-rule="evenodd" d="M1252.28 97.9749C1250.91 96.608 1250.91 94.392 1252.28 93.0251L1258.55 86.75L1252.28 80.4749C1250.91 79.108 1250.91 76.892 1252.28 75.5251C1253.64 74.1583 1255.86 74.1583 1257.22 75.5251L1265.97 84.2751C1267.34 85.642 1267.34 87.858 1265.97 89.2249L1257.22 97.9749C1255.86 99.3417 1253.64 99.3417 1252.28 97.9749Z" fill="white"/>
</svg>
